<svg xmlns="http://www.w3.org/2000/svg" viewBox="72.10 -0.80 405 401" width="100%" height="100%">
  <g>
    <path d="M 235.95 108.35 L 233.80 105.60 L 231.80 102.75 Q 228.30 97.20 226.05 89.90 Q 224.90 86.20 224.25 81.40 L 223.80 78.00 L 223.85 77.65 L 223.65 77.40 L 223.65 75.20 Q 223.95 73.20 223.65 71.40 L 223.65 69.60 L 223.85 69.35 L 223.80 69.00 Q 224.75 59.35 227.90 51.45 L 226.55 50.85 L 221.15 48.80 L 215.80 46.55 Q 209.90 43.85 203.45 40.20 L 200.95 38.45 L 198.55 36.40 L 198.30 35.85 L 198.30 35.15 Q 198.85 33.45 199.85 32.45 Q 200.95 31.40 202.75 31.00 Q 208.05 29.70 214.80 29.40 L 222.20 29.10 L 229.55 28.80 L 230.10 28.60 L 230.50 28.25 Q 237.10 18.00 247.55 6.60 L 250.90 2.25 Q 251.55 1.25 252.60 0.65 Q 253.50 0.15 254.75 -0.15 L 260.15 -0.75 L 267.35 -0.75 L 274.55 -0.55 Q 287.30 0.25 298.50 3.50 Q 310.40 6.95 320.80 13.25 L 323.95 15.25 L 327.00 17.40 L 327.45 17.90 L 327.65 18.55 L 328.40 28.00 L 328.60 33.50 L 328.85 39.05 L 329.20 44.80 L 329.65 50.50 L 329.70 51.50 L 329.90 52.45 L 330.25 53.15 L 330.80 53.60 L 337.15 56.75 L 343.55 59.85 Q 347.15 61.65 349.40 64.10 Q 350.40 65.15 350.30 66.65 L 350.25 68.20 L 350.20 69.70 L 349.95 70.45 L 349.50 71.00 Q 345.75 73.35 340.55 73.15 Q 332.20 72.85 321.75 70.70 L 319.70 70.35 L 318.60 70.25 L 318.50 70.75 L 321.00 72.60 L 321.45 72.90 Q 322.30 73.60 323.20 74.90 L 324.70 77.05 Q 326.15 78.95 326.45 80.80 L 326.65 84.00 L 326.45 84.20 L 325.65 87.40 Q 325.40 87.45 325.50 87.60 Q 323.20 93.45 317.20 96.40 Q 315.65 97.15 314.50 97.00 Q 313.10 96.80 312.00 97.40 Q 311.15 97.90 310.25 99.15 L 306.65 103.35 L 302.60 107.15 L 301.45 108.25 L 301.20 108.40 L 299.65 109.45 Q 299.50 109.40 299.40 109.60 L 298.40 110.20 L 301.55 111.05 L 306.35 112.55 Q 308.25 113.20 310.55 114.20 L 314.65 116.00 L 318.85 117.95 L 322.95 120.10 Q 324.50 121.05 326.40 122.50 L 329.70 125.10 L 334.65 129.25 L 339.65 133.30 L 343.20 136.50 L 346.45 139.95 L 352.00 145.80 L 357.55 151.60 L 359.45 153.10 Q 360.50 153.75 361.05 154.75 Q 361.50 155.65 361.65 156.90 L 361.85 158.10 Q 362.25 157.90 363.00 157.65 L 364.00 157.10 L 367.85 154.20 L 371.60 151.20 Q 374.30 148.85 377.85 146.50 L 384.55 142.40 L 387.95 140.35 L 391.25 138.25 Q 394.00 136.30 397.15 135.55 L 403.60 135.20 L 408.25 135.75 L 412.90 136.20 Q 418.55 136.45 425.40 136.25 L 430.30 135.85 L 435.25 135.50 Q 438.20 135.45 440.50 137.15 Q 442.65 138.75 443.70 141.55 Q 444.80 144.45 442.80 147.45 L 440.65 149.60 Q 439.35 150.45 438.00 150.65 L 436.20 150.85 L 436.80 151.20 L 437.25 151.40 Q 440.60 152.55 444.10 154.75 Q 446.85 156.45 450.30 159.20 L 456.30 164.65 Q 457.25 165.60 457.50 167.45 Q 457.70 169.30 457.00 170.50 L 456.95 170.60 Q 456.10 171.05 456.25 171.75 L 456.70 173.00 Q 457.05 174.85 456.60 175.65 Q 455.60 177.45 454.50 178.25 Q 453.15 179.35 451.30 179.15 Q 450.90 179.10 450.60 179.35 L 450.05 179.85 L 448.25 181.25 L 446.30 182.35 Q 441.40 184.20 436.25 181.60 L 433.30 180.20 L 430.40 178.80 L 426.70 176.85 L 422.95 174.90 L 420.70 174.30 L 406.05 173.25 L 404.10 172.90 L 402.15 172.45 L 401.55 172.55 L 401.00 172.85 L 394.80 178.75 L 388.60 184.65 Q 384.50 188.45 380.75 191.10 Q 376.35 194.25 371.95 196.25 Q 362.35 200.65 352.85 199.45 L 352.30 199.50 Q 351.95 199.55 351.70 199.75 L 348.70 201.75 L 345.65 203.60 Q 341.85 205.60 338.60 203.00 L 334.05 199.60 L 329.50 196.20 L 328.25 195.15 L 326.95 193.90 L 326.45 197.65 Q 325.60 202.85 325.50 209.40 L 325.65 221.10 L 325.90 229.85 L 326.30 238.60 L 326.90 245.15 L 327.55 251.70 L 328.00 259.50 L 328.60 270.25 L 329.30 281.00 Q 330.35 292.30 332.10 303.90 Q 332.45 306.10 332.30 308.00 Q 332.10 310.00 331.40 311.90 L 331.25 312.85 L 331.70 313.70 L 334.35 316.95 Q 335.75 318.65 335.10 320.80 L 333.20 327.10 L 333.15 327.85 L 333.55 328.50 L 336.40 331.55 L 339.20 334.60 L 339.65 335.55 L 339.40 336.65 Q 338.55 338.35 337.40 339.40 Q 336.15 340.50 334.40 340.85 L 332.95 341.25 L 331.30 341.75 L 333.10 346.50 L 334.90 351.15 L 335.40 351.75 L 336.05 352.20 L 348.05 356.90 Q 348.50 357.10 349.30 356.90 L 354.35 357.10 L 357.20 358.05 L 360.10 359.10 L 360.75 359.55 L 361.20 360.20 Q 361.95 362.65 364.30 363.85 L 367.65 366.05 L 368.30 366.75 L 368.60 367.60 L 368.75 370.45 L 368.85 373.35 L 368.70 373.80 L 368.35 374.20 L 367.10 375.20 L 365.80 376.00 L 360.50 378.50 Q 357.40 379.90 355.05 380.70 Q 350.95 382.10 345.80 382.50 L 339.45 382.75 L 333.05 382.70 Q 328.55 382.65 323.60 380.40 L 316.00 376.85 Q 311.80 374.70 308.85 372.40 L 304.80 368.60 L 301.20 364.40 L 300.70 363.60 L 300.45 362.70 L 300.15 359.30 L 300.10 355.90 Q 300.10 355.30 300.55 354.50 L 300.90 353.95 L 301.15 353.20 L 301.45 352.15 L 301.30 351.05 L 300.80 349.00 L 300.60 348.00 L 300.55 347.95 L 299.85 347.80 Q 297.60 347.85 295.05 346.70 L 290.70 344.40 Q 289.40 343.70 289.95 342.00 L 291.35 337.75 L 291.40 336.85 L 290.75 336.15 Q 288.60 334.85 286.65 333.35 Q 284.25 331.60 284.95 328.95 Q 285.60 326.60 285.20 324.15 Q 284.85 322.05 283.65 319.55 Q 277.35 306.45 272.20 295.20 L 269.45 288.95 L 266.85 282.65 L 266.30 281.40 L 266.10 284.45 L 265.90 287.30 L 265.55 295.80 L 265.35 304.25 L 265.50 311.40 L 265.90 318.55 L 266.15 320.95 L 266.55 323.40 Q 266.85 325.50 265.70 327.30 L 263.25 331.40 Q 263.00 331.80 263.05 332.15 L 263.35 332.85 L 265.50 335.75 L 267.50 338.75 Q 268.40 340.10 268.25 340.75 Q 268.10 341.40 266.75 342.35 L 265.15 343.25 L 263.45 344.00 L 262.95 344.35 Q 262.80 344.55 262.80 344.90 L 262.55 353.10 L 262.55 353.65 L 262.45 354.20 Q 262.25 354.80 262.40 355.20 L 263.10 355.95 Q 263.80 356.40 264.10 357.15 L 264.20 358.75 L 263.85 361.75 L 263.45 364.75 L 263.10 365.30 L 262.45 365.75 Q 257.75 368.10 253.05 369.05 L 244.85 370.80 L 236.65 372.40 L 231.35 373.10 L 226.00 373.55 L 222.95 373.90 L 219.85 374.15 L 217.55 374.10 L 215.30 373.90 L 209.85 373.15 L 204.60 371.60 Q 201.95 370.55 200.40 369.65 Q 198.20 368.40 196.75 366.75 Q 196.10 366.05 195.80 365.35 Q 195.45 364.60 195.45 363.75 L 195.25 361.55 Q 195.15 360.60 195.65 359.85 Q 196.00 359.30 196.90 358.60 L 199.10 356.65 L 201.20 355.30 L 203.55 354.60 L 204.85 354.35 L 206.00 354.05 Q 206.50 353.70 206.65 353.05 L 207.00 352.65 L 207.55 352.35 L 211.70 350.95 L 215.90 349.65 L 217.20 349.60 L 218.55 349.90 L 219.45 349.90 L 220.25 349.40 L 222.05 347.95 Q 223.20 347.20 223.60 345.90 Q 223.90 344.95 223.80 343.40 L 223.60 342.90 L 223.25 342.50 L 221.25 340.90 L 219.20 339.35 L 218.70 338.85 L 218.25 338.35 Q 217.80 337.85 217.75 337.30 Q 217.70 336.80 218.05 336.15 L 219.25 333.65 L 220.35 331.05 L 220.45 330.60 L 220.40 330.20 L 219.30 328.15 Q 218.60 327.00 217.75 326.45 Q 215.60 325.10 215.25 322.90 L 213.45 312.35 L 211.65 301.85 L 209.55 287.00 L 208.45 275.70 Q 207.70 266.70 207.40 256.25 Q 207.20 247.85 207.25 236.85 Q 207.25 233.75 207.60 229.30 L 208.10 221.80 L 208.40 217.45 L 208.80 213.10 L 209.70 206.35 L 210.70 199.60 L 210.85 197.20 L 210.95 194.85 L 211.20 193.55 L 211.55 192.25 L 212.05 190.45 L 211.85 190.30 L 211.15 190.85 L 206.40 194.55 L 201.65 198.20 L 194.25 203.60 Q 191.70 205.35 189.50 206.00 Q 186.80 206.80 184.20 206.10 Q 183.20 205.85 182.00 205.05 L 179.95 203.60 L 178.75 202.50 L 177.70 201.20 L 177.10 200.75 Q 176.80 200.60 176.35 200.75 L 164.30 203.65 L 161.65 204.20 L 158.95 204.80 Q 158.05 205.05 157.35 205.70 L 154.90 207.70 Q 153.45 208.75 152.10 209.30 L 151.40 209.90 L 151.20 210.15 L 162.85 302.80 L 165.00 319.60 L 166.00 328.55 L 166.35 329.80 Q 166.60 330.40 167.25 330.80 L 169.05 332.10 L 170.90 333.40 Q 172.35 334.30 172.85 336.05 Q 174.00 340.35 176.20 346.15 L 180.10 356.00 L 182.20 361.55 L 184.35 367.10 L 184.80 367.80 L 185.45 368.30 Q 188.55 369.75 192.60 370.95 L 200.00 372.80 Q 202.60 373.40 203.90 373.90 Q 206.05 374.65 207.55 375.75 Q 208.45 376.40 208.95 376.95 L 209.95 378.45 L 211.35 381.55 L 212.85 384.60 Q 213.50 386.10 213.30 386.70 Q 213.10 387.35 211.65 388.05 Q 207.65 390.00 202.65 391.75 L 193.40 394.65 L 184.55 397.05 L 175.60 398.85 L 167.25 399.75 L 161.15 400.30 L 155.00 400.70 L 141.05 400.85 Q 134.15 400.80 127.55 399.35 L 123.60 398.45 L 119.65 397.30 L 118.05 396.25 L 116.55 394.90 L 116.40 394.40 L 116.50 393.80 L 120.05 384.80 L 120.55 384.10 L 124.85 381.10 Q 127.35 379.35 129.20 378.20 Q 131.25 376.90 134.05 375.35 L 139.00 372.60 Q 140.05 372.00 140.25 370.90 L 141.40 366.00 L 142.20 362.25 Q 139.85 363.00 137.30 363.00 L 130.15 363.00 L 123.05 362.95 L 121.50 362.80 L 120.00 362.50 Q 118.40 362.30 116.75 363.20 Q 115.25 364.00 114.10 363.95 L 109.05 363.60 L 103.95 363.15 L 97.05 362.70 L 90.20 362.10 L 83.10 361.20 L 76.05 360.20 Q 74.85 360.00 74.00 359.40 L 72.65 358.45 Q 72.00 357.80 72.15 356.90 Q 72.50 355.35 73.20 354.40 Q 74.05 353.30 75.55 352.95 L 77.70 352.50 L 79.90 351.85 L 78.55 351.40 L 77.20 350.85 Q 76.30 350.50 76.15 350.10 Q 76.00 349.75 76.40 348.85 Q 77.20 347.10 79.05 347.10 L 84.70 347.10 L 90.35 347.05 L 91.10 346.85 L 91.75 346.40 L 94.20 343.55 L 96.70 340.70 Q 98.90 338.40 102.10 338.55 L 103.00 338.40 L 103.80 337.95 Q 105.85 336.15 108.10 334.95 L 107.00 334.75 L 105.75 335.00 L 98.35 338.75 L 98.15 338.50 L 102.10 335.20 L 103.55 334.05 Q 104.40 333.40 105.05 333.05 Q 105.50 332.80 106.15 332.70 L 107.35 332.75 L 109.95 333.25 L 111.25 333.55 L 113.30 333.00 L 113.10 332.90 L 111.90 332.35 L 110.70 331.75 L 110.25 331.35 L 109.75 330.70 L 112.85 330.95 Q 114.20 331.35 115.50 332.25 L 115.50 331.60 L 115.50 331.10 L 115.85 327.65 Q 115.90 327.20 116.20 327.00 Q 116.50 326.85 116.85 327.00 L 118.10 327.60 L 119.10 328.35 Q 119.35 328.70 119.40 329.40 L 119.35 330.65 L 119.35 331.65 L 119.30 332.55 L 119.45 332.60 Q 124.70 328.20 130.35 328.75 Q 135.20 329.20 141.00 333.35 L 141.00 333.65 L 140.60 333.60 L 140.15 333.40 L 136.55 332.25 L 132.90 331.15 Q 129.90 330.40 127.00 332.00 L 125.70 332.80 Q 129.35 334.40 132.15 336.40 Q 135.45 338.70 137.75 341.65 L 139.25 343.90 Q 139.50 344.50 139.90 344.70 L 140.90 345.00 L 143.15 345.20 L 144.10 345.30 L 144.25 343.90 L 144.25 342.50 L 144.30 341.05 L 144.45 339.70 L 144.85 338.45 L 146.50 335.30 L 148.05 332.15 L 148.30 330.75 L 148.15 329.25 L 144.60 303.45 L 141.10 278.20 L 138.20 257.25 L 132.45 215.60 Q 129.30 214.70 126.50 212.95 Q 124.25 211.50 122.80 210.10 Q 121.00 208.35 119.95 206.35 Q 119.25 204.90 118.95 203.25 Q 118.80 202.10 118.05 201.00 L 114.65 195.00 Q 113.50 192.60 114.30 189.35 Q 114.60 187.95 114.20 186.55 Q 112.15 180.05 113.80 174.15 Q 114.15 172.80 115.00 171.55 L 116.70 169.30 Q 118.30 167.45 120.55 165.85 Q 122.35 164.55 124.90 163.15 L 125.20 163.05 L 124.65 159.15 L 122.80 145.70 L 122.70 145.45 L 122.55 145.10 L 120.20 145.10 L 117.80 145.10 Q 116.55 145.15 115.80 144.55 Q 115.00 143.95 114.75 142.75 L 114.05 138.40 L 113.95 137.90 L 113.80 137.45 L 107.90 139.30 L 102.05 140.85 L 97.20 141.05 L 92.35 140.15 Q 90.15 139.55 88.20 138.20 Q 86.50 136.95 84.90 135.05 Q 81.60 131.10 79.65 125.25 L 79.45 124.25 Q 78.65 117.80 82.05 112.10 L 83.65 109.40 Q 84.60 107.85 85.75 107.10 L 87.45 106.05 L 89.25 105.20 Q 98.05 102.05 104.35 100.00 Q 105.70 99.55 106.75 98.75 L 108.50 96.75 Q 108.70 96.45 109.05 96.25 L 109.70 95.90 L 132.30 90.90 Q 133.40 90.65 134.90 91.30 Q 136.25 91.90 137.70 91.90 L 140.60 91.50 L 155.40 87.55 L 170.25 83.65 L 172.80 83.35 Q 174.10 83.40 175.35 83.95 Q 181.25 86.65 185.15 90.40 Q 189.25 94.35 190.05 100.30 Q 190.70 105.70 189.35 110.70 Q 188.60 113.50 186.45 115.40 L 185.20 116.50 L 183.95 117.60 L 182.70 118.15 L 148.45 128.20 Q 147.80 128.40 147.35 128.70 L 146.60 129.55 L 145.70 130.80 L 144.75 132.00 Q 144.45 132.40 144.50 133.00 L 145.35 139.00 L 145.30 139.85 L 144.60 140.35 Q 143.70 140.70 143.00 141.30 L 142.75 141.80 L 142.70 142.35 L 143.95 152.35 L 144.90 160.00 L 145.90 160.25 L 148.30 160.80 L 150.70 161.30 L 154.05 162.20 L 157.30 163.50 L 158.10 163.65 L 158.95 163.50 L 167.10 160.00 L 169.25 158.95 L 169.65 158.55 Q 169.85 156.75 171.10 155.20 Q 171.90 154.15 173.75 152.75 L 178.25 149.50 L 182.85 146.35 L 187.00 143.45 L 191.10 140.45 L 201.05 132.90 Q 207.15 128.30 211.05 125.45 L 216.10 122.15 Q 217.85 121.10 221.30 119.20 Q 229.50 114.55 238.05 112.60 L 238.85 112.40 L 239.55 112.20 L 235.95 108.35" fill="rgb(0,0,0)" stroke="#0f172a" stroke-width="1.2" /><path d="M 217.55 36.50 L 216.20 36.40 L 213.80 36.15 L 213.50 36.15 L 208.95 35.80 L 206.70 35.90 L 204.90 36.15 L 204.45 36.25 L 204.45 36.50 L 207.10 38.10 L 207.50 38.35 L 210.25 39.85 Q 213.50 41.55 217.65 43.25 L 228.50 47.65 L 229.20 47.90 L 229.30 48.00 L 229.35 47.95 L 229.50 47.90 L 229.60 47.65 L 229.90 46.95 L 230.20 46.40 L 231.30 44.20 L 231.50 43.90 L 231.80 43.20 L 231.95 42.90 L 232.05 42.65 L 232.40 41.90 L 233.70 39.70 L 234.10 39.05 L 233.50 38.80 L 228.50 38.00 L 223.50 37.35 L 222.00 37.00 L 218.25 36.60 L 218.20 36.60 L 218.10 36.60 L 217.55 36.50 L 218.25 36.60" fill="rgb(0,0,0)" stroke="#0f172a" stroke-width="1.2" /><path d="M 209.90 32.20 L 212.70 32.05 L 216.05 31.75 L 221.95 31.30 L 211.20 32.05 L 209.90 32.20 L 209.35 32.30 L 208.20 32.50 L 207.90 32.65 L 212.40 33.15 L 217.25 33.35 L 226.55 33.85 L 227.00 33.85 L 228.25 33.90 L 229.70 34.15 L 229.80 34.20 L 238.15 35.10 L 243.00 35.75 L 247.80 36.70 L 249.55 37.00 L 249.80 37.05 L 250.40 37.20 L 250.65 37.25 L 255.30 38.15 L 256.00 38.20 L 256.15 38.30 L 256.35 38.35 L 257.10 38.35 L 257.90 38.60 L 260.45 39.15 L 262.65 39.55 L 277.45 42.65 Q 293.30 46.20 302.70 48.85 Q 311.80 51.40 319.60 54.25 L 321.00 54.65 Q 323.50 55.50 325.35 56.45 L 327.35 57.25 L 333.00 59.60 L 338.55 62.05 Q 340.35 62.85 343.00 64.20 L 347.15 66.30 L 346.80 65.75 L 346.70 65.65 L 346.20 65.15 L 346.00 65.00 Q 344.65 63.90 342.90 62.85 L 339.50 61.15 L 337.15 60.00 L 334.80 58.90 L 329.40 56.20 L 325.35 54.15 L 324.70 53.90 L 321.90 52.70 L 317.35 50.75 Q 316.40 50.35 315.65 50.05 L 314.20 49.50 L 309.20 47.55 L 308.45 47.25 L 300.50 44.75 L 292.40 42.70 L 280.80 39.65 L 273.20 37.75 L 273.00 37.70 L 272.85 37.65 L 269.65 37.05 L 269.15 36.95 L 263.25 35.90 L 257.35 34.80 L 253.60 34.10 L 249.80 33.55 L 247.35 33.20 L 244.85 32.85 L 241.70 32.55 L 238.50 32.15 L 233.30 31.50 L 228.00 31.25 L 226.65 31.20 L 222.10 31.30 L 221.95 31.30" fill="rgb(0,0,0)" stroke="#0f172a" stroke-width="1.2" /><path d="M 226.55 33.85 L 227.75 33.95 L 229.80 34.20" fill="none" stroke="#0f172a" stroke-width="1.8" stroke-linecap="round" /><path d="M 234.10 39.05 L 234.20 38.90 L 233.10 38.70 L 222.05 37.05 L 222.00 37.00" fill="none" stroke="#0f172a" stroke-width="1.8" stroke-linecap="round" /><path d="M 243.60 20.75 L 243.20 20.65 L 242.25 20.60 L 242.10 20.60 L 243.60 20.75 L 247.65 21.20 L 253.80 21.80 L 259.85 22.50 L 271.35 24.40 L 282.75 26.45 Q 293.00 28.30 303.85 31.85 Q 311.10 34.25 319.00 37.55 L 320.95 38.30 Q 322.25 38.85 323.25 39.35 L 324.15 39.75 L 325.40 40.25 L 325.40 39.60 L 325.20 39.55 L 325.10 39.40 L 325.20 39.25 L 325.40 39.20 L 325.40 39.05 L 325.00 34.20 Q 324.60 34.10 324.65 33.85 L 324.85 33.40 L 324.80 31.40 L 323.45 20.45 L 323.35 19.80 L 323.15 19.25 L 321.90 18.05 L 320.60 17.00 L 319.35 16.25 L 315.80 14.40 L 312.50 12.85 Q 305.70 9.85 299.10 8.00 Q 292.65 6.20 286.65 5.35 L 280.45 4.55 L 274.20 4.20 L 272.65 4.00 L 271.00 4.00 L 270.90 4.00 L 270.50 4.00 L 266.30 4.00 L 261.05 4.20 L 256.55 4.45 L 252.55 4.60 L 251.90 4.85 L 251.05 5.65 L 241.25 19.50 L 240.70 20.40 L 242.10 20.60" fill="rgb(0,0,0)" stroke="#0f172a" stroke-width="1.2" /><path d="M 234.50 29.15 L 235.20 29.45 L 235.90 29.60 L 237.75 29.85 L 239.65 30.05 L 247.50 31.20 L 255.35 32.45 L 263.95 33.90 L 272.50 35.65 L 281.05 37.75 L 289.60 40.00 Q 296.00 41.55 300.95 43.05 Q 307.00 44.85 312.05 46.85 L 318.80 49.60 L 325.65 52.40 L 325.85 49.90 L 325.95 47.55 L 325.80 45.30 L 325.65 43.05 L 325.45 42.20 L 324.80 41.70 L 318.05 39.00 L 311.30 36.30 Q 298.00 31.25 286.20 29.10 L 268.60 26.00 L 256.30 24.20 L 251.30 23.65 L 246.35 23.20 L 239.90 22.70 L 239.25 22.80 L 238.70 23.20 L 236.60 26.15 L 234.50 29.15" fill="rgb(34,41,52)" stroke="#0f172a" stroke-width="1.2" /><path d="M 269.65 37.05 L 256.60 34.60 Q 247.30 32.90 240.25 32.25 L 236.60 31.80 L 232.95 31.40 L 226.65 31.20" fill="none" stroke="#0f172a" stroke-width="1.8" stroke-linecap="round" /><path d="M 204.45 36.25 L 204.15 36.30 L 204.45 36.50" fill="none" stroke="#0f172a" stroke-width="1.8" stroke-linecap="round" /><path d="M 208.20 32.50 L 207.50 32.60 L 207.90 32.65" fill="none" stroke="#0f172a" stroke-width="1.8" stroke-linecap="round" /><path d="M 213.80 36.15 L 210.35 35.80 L 206.95 35.75 L 205.65 35.95 L 204.90 36.15" fill="none" stroke="#0f172a" stroke-width="1.8" stroke-linecap="round" /><path d="M 231.80 43.20 L 232.05 42.65" fill="none" stroke="#0f172a" stroke-width="1.8" stroke-linecap="round" /><path d="M 229.30 48.00 L 229.40 48.10 L 229.50 47.90" fill="none" stroke="#0f172a" stroke-width="1.8" stroke-linecap="round" /><path d="M 229.60 47.65 L 230.20 46.40" fill="none" stroke="#0f172a" stroke-width="1.8" stroke-linecap="round" /><path d="M 308.20 77.75 L 308.10 77.75 L 305.10 76.30 L 303.55 75.50 Q 302.75 75.00 302.55 74.25 L 302.35 73.05 L 302.55 71.85 Q 305.95 63.15 304.05 55.00 L 303.60 53.60 L 303.55 53.40 L 300.80 52.70 Q 282.70 48.10 268.05 45.05 L 250.60 41.75 L 237.30 39.45 L 234.90 43.75 Q 232.90 47.60 232.05 50.20 Q 231.65 50.60 231.70 51.00 L 230.85 53.15 L 230.25 55.40 L 230.05 55.55 L 230.10 55.80 Q 228.70 60.65 228.45 64.00 L 228.25 64.15 L 228.30 64.40 L 228.25 65.80 L 228.05 65.95 L 228.10 66.20 Q 227.70 69.80 227.90 75.45 L 228.20 79.10 L 228.70 82.30 L 230.10 80.80 L 231.45 78.75 L 233.35 76.50 L 235.40 74.40 Q 235.50 74.20 235.65 74.25 Q 236.10 73.95 236.60 73.95 L 237.60 74.30 Q 242.45 76.95 248.25 77.95 Q 251.70 78.55 255.75 78.05 L 261.65 77.25 L 265.20 76.45 L 268.60 75.30 Q 272.00 74.15 276.00 72.00 Q 276.10 71.80 276.25 71.85 Q 277.65 71.00 279.15 71.15 Q 280.65 71.30 281.80 72.45 L 286.45 77.35 L 291.10 82.20 L 294.80 86.10 L 298.40 90.05 Q 299.30 91.05 299.95 91.05 L 301.80 90.10 Q 303.10 89.10 303.85 87.00 L 304.65 85.00 L 304.85 84.80 L 305.85 82.40 L 306.05 82.20 L 308.20 77.75 L 311.10 79.15 L 314.15 80.20 L 314.75 80.10 L 315.15 79.85 L 315.25 79.75 L 317.05 77.50 L 318.35 75.80 L 318.35 75.85 L 319.70 77.20 L 320.75 78.85 Q 321.80 81.40 321.65 83.75 Q 321.45 86.20 319.90 88.55 Q 318.05 91.40 315.40 92.75 Q 312.85 94.05 309.45 93.95 L 309.00 94.00 Q 308.75 94.05 308.65 93.80 L 308.25 93.85 L 308.15 93.85 L 307.80 94.20 L 306.80 95.75 L 302.30 101.45 Q 299.75 104.55 297.30 106.70 Q 293.25 110.30 289.15 112.85 L 286.75 114.25 Q 286.20 114.55 286.05 114.95 L 286.05 115.05 Q 286.00 115.35 286.30 115.55 L 288.40 115.70 Q 291.50 114.30 294.40 112.60 L 294.50 112.45 L 294.65 112.45 L 294.75 112.40 Q 295.35 112.80 296.30 112.95 Q 284.30 125.50 275.90 138.20 Q 266.65 152.25 261.30 167.35 Q 255.65 154.80 252.35 142.20 Q 249.30 130.30 248.30 118.15 L 251.35 119.40 L 253.45 120.20 L 255.70 120.65 L 257.35 120.95 L 259.05 121.40 L 259.85 121.40 L 261.35 121.20 L 262.85 121.25 L 264.55 121.00 L 265.50 120.85 L 266.15 120.50 L 265.85 120.25 L 265.50 120.20 L 263.85 120.05 L 262.25 119.75 L 261.70 119.80 Q 261.40 119.85 261.20 119.60 L 258.65 118.95 L 258.05 118.95 L 257.80 119.00 L 257.65 118.85 L 257.10 118.55 Q 255.50 118.25 253.45 117.35 L 253.20 117.20 L 252.65 117.15 Q 252.30 117.25 252.20 117.00 L 251.45 116.60 L 251.20 116.60 L 251.05 116.40 Q 249.85 116.05 249.15 115.70 Q 248.15 115.20 247.45 114.55 L 247.20 114.60 L 247.10 114.40 Q 243.65 111.90 240.70 108.50 Q 238.05 105.40 235.65 101.40 Q 235.40 101.40 235.50 101.20 L 234.90 100.20 Q 232.80 96.60 230.90 91.05 Q 229.45 86.80 228.75 82.70 L 228.70 82.30" fill="rgb(102,72,72)" stroke="#0f172a" stroke-width="1.2" /><path d="M 247.25 54.20 Q 247.20 55.80 246.75 57.00 Q 246.30 58.40 245.30 59.45 Q 244.25 60.55 243.10 60.25 Q 242.00 59.95 241.45 58.60 Q 240.10 55.20 241.50 51.25 L 242.20 49.90 Q 243.30 48.20 244.85 48.40 L 246.10 49.15 L 246.80 50.45 Q 247.30 51.55 247.25 53.00 L 247.25 54.20" fill="rgb(0,0,0)" stroke="#0f172a" stroke-width="1.2" /><path d="M 235.40 74.40 L 235.65 74.25" fill="rgb(102,72,72)" stroke="#0f172a" stroke-width="1.2" /><path d="M 271.00 4.00 L 269.10 4.00 L 266.30 4.00" fill="rgb(0,0,0)" stroke="#0f172a" stroke-width="1.2" /><path d="M 256.55 4.45 L 252.95 4.60 L 252.55 4.60" fill="none" stroke="#0f172a" stroke-width="1.8" stroke-linecap="round" /><path d="M 256.05 38.30 L 256.00 38.20" fill="rgb(77,84,97)" stroke="#0f172a" stroke-width="1.2" /><path d="M 256.05 38.30 L 256.15 38.30" fill="rgb(0,0,0)" stroke="#0f172a" stroke-width="1.2" /><path d="M 255.30 38.15 L 256.05 38.30" fill="none" stroke="#0f172a" stroke-width="1.8" stroke-linecap="round" /><path d="M 256.35 38.35 L 260.45 39.15" fill="none" stroke="#0f172a" stroke-width="1.8" stroke-linecap="round" /><path d="M 260.25 59.80 L 256.15 66.60 L 255.70 67.25 L 255.45 68.00 L 255.25 68.15 L 255.25 68.40 L 255.25 69.20 L 255.25 69.45 L 255.45 69.60 Q 255.70 70.50 256.50 71.70 L 257.75 73.65 L 258.25 74.40 Q 258.90 75.50 258.50 76.20 Q 258.10 76.85 256.75 77.05 Q 255.40 77.20 254.45 76.60 Q 253.60 76.05 252.95 74.85 L 251.60 72.40 L 250.25 70.00 Q 249.65 68.90 249.80 68.00 Q 250.00 67.20 250.80 66.40 L 253.15 63.95 L 255.45 61.45 L 257.70 58.55 L 259.75 55.45 L 261.00 53.25 L 262.20 51.05 L 262.70 50.45 Q 263.05 50.15 263.45 50.15 L 263.85 50.15 Q 264.30 50.50 264.30 51.00 L 264.05 51.90 L 263.45 53.60 L 263.30 53.65 L 263.30 53.80 L 261.95 56.80 L 260.25 59.65 L 260.10 59.70 L 260.25 59.80" fill="rgb(215,179,157)" stroke="#0f172a" stroke-width="1.2" /><path d="M 276.00 72.00 L 276.25 71.85" fill="rgb(102,72,72)" stroke="#0f172a" stroke-width="1.2" /><path d="M 308.45 47.25 Q 304.15 45.70 298.45 44.15 L 287.50 41.40 L 280.20 39.45 L 273.20 37.75" fill="rgb(0,0,0)" stroke="#0f172a" stroke-width="1.2" /><path d="M 284.10 59.40 L 283.45 60.75 L 282.60 62.00 Q 281.75 62.95 280.60 62.85 Q 279.30 62.70 278.65 61.20 Q 277.05 57.20 279.25 52.60 Q 279.65 51.80 280.50 51.30 Q 281.35 50.85 282.10 51.00 Q 282.95 51.20 283.50 51.95 L 284.25 53.50 L 284.45 54.55 L 284.45 55.60 L 284.45 56.60 L 284.25 59.15 Q 284.00 59.25 284.10 59.40" fill="rgb(215,179,157)" stroke="#0f172a" stroke-width="1.2" /><path d="M 279.45 77.80 Q 279.05 77.80 278.60 78.15 L 277.85 78.65 L 273.40 80.25 L 268.90 81.60 L 266.00 82.45 L 263.05 83.00 L 262.85 83.15 L 260.05 83.45 L 259.75 83.60 L 259.45 83.55 L 257.85 83.65 L 257.45 83.80 L 257.05 83.75 L 255.85 83.75 L 255.30 83.80 L 254.85 83.65 L 253.00 83.45 L 251.20 83.25 L 246.95 82.40 L 242.80 81.25 L 240.05 80.35 L 237.25 79.75 Q 236.00 79.80 235.25 80.70 L 233.30 83.05 L 232.35 84.45 Q 231.95 85.30 232.30 86.10 L 233.95 89.65 Q 234.95 91.60 236.25 92.70 Q 239.05 95.15 241.20 96.60 Q 244.00 98.55 246.75 99.65 Q 249.55 100.75 250.60 101.05 L 250.75 101.00 L 251.10 101.00 L 253.75 101.00 L 256.35 100.75 L 257.55 100.75 L 258.70 100.60 Q 259.60 100.60 260.20 100.95 L 260.45 101.15 L 266.05 100.85 L 271.50 100.10 Q 276.65 99.05 282.00 96.20 Q 282.10 96.00 282.25 96.05 L 282.00 96.20 L 284.00 95.00 Q 284.05 94.80 284.25 94.85 L 284.60 94.55 L 285.05 94.40 Q 285.00 94.05 285.45 93.80 Q 285.40 93.60 285.50 93.30 L 285.70 92.80 L 285.85 92.60 L 286.10 91.80 L 286.25 91.60 L 286.30 91.20 L 286.45 91.00 L 287.10 88.60 L 287.25 88.40 L 287.45 86.80 L 287.45 86.55 L 287.65 86.40 L 287.80 86.60 L 287.65 86.40 L 287.65 84.20 L 287.50 84.00 L 286.75 82.90 L 285.85 81.90 L 281.05 77.95 L 280.80 77.80 L 280.05 77.80 L 279.45 77.80 Q 279.50 77.40 279.80 77.45 L 279.95 77.55 L 280.05 77.80" fill="rgb(102,72,72)" stroke="#0f172a" stroke-width="1.2" /><path d="M 281.05 77.95 L 280.80 77.80" fill="rgb(102,72,72)" stroke="#0f172a" stroke-width="1.2" /><path d="M 306.75 64.45 L 306.25 68.35 L 305.55 72.25 L 305.40 72.80 L 308.35 74.55 L 311.30 76.10 L 313.15 76.45 Q 313.60 76.20 314.00 74.95 L 315.65 69.40 L 317.25 63.80 L 317.90 60.75 L 318.35 58.00 L 311.00 55.65 L 305.30 53.95 Q 307.15 58.85 306.75 64.45" fill="rgb(0,0,0)" stroke="#0f172a" stroke-width="1.2" /><path d="M 315.80 14.40 L 313.50 13.25 L 306.05 10.25 Q 290.55 4.50 272.65 4.00" fill="none" stroke="#0f172a" stroke-width="1.8" stroke-linecap="round" /><path d="M 325.00 33.55 L 324.85 31.70 L 324.80 31.40" fill="none" stroke="#0f172a" stroke-width="1.8" stroke-linecap="round" /><path d="M 324.85 33.40 L 325.00 33.55 L 325.05 34.00 L 325.35 38.50 L 325.40 39.05" fill="none" stroke="#0f172a" stroke-width="1.8" stroke-linecap="round" /><path d="M 325.05 34.00 L 325.00 34.20" fill="rgb(77,84,97)" stroke="#0f172a" stroke-width="1.2" /><path d="M 325.40 39.60 L 325.40 39.35 L 325.40 39.20" fill="rgb(0,0,0)" stroke="#0f172a" stroke-width="1.2" /><path d="M 325.35 54.15 L 319.45 51.55 L 315.65 50.05" fill="none" stroke="#0f172a" stroke-width="1.8" stroke-linecap="round" /><path d="M 319.60 54.25 L 325.35 56.45" fill="none" stroke="#0f172a" stroke-width="1.8" stroke-linecap="round" /><path d="M 321.30 59.25 L 321.35 59.20 Q 321.60 59.00 322.15 59.20 L 329.00 61.55 L 335.65 64.15 L 342.25 67.05 L 342.55 67.20 L 342.25 67.00 Q 332.50 62.40 321.40 58.95 L 321.30 59.25 L 321.10 60.10 L 319.95 64.80 L 319.90 65.05 Q 319.75 65.65 320.00 65.95 L 330.55 67.70 L 343.75 68.20 L 343.55 67.85 L 343.15 67.55 L 342.55 67.20" fill="rgb(0,0,0)" stroke="#0f172a" stroke-width="1.2" /><path d="M 319.95 64.80 L 319.80 65.45 L 319.70 65.90 L 320.00 65.95" fill="none" stroke="#0f172a" stroke-width="1.8" stroke-linecap="round" /><path d="M 346.20 65.15 L 343.70 63.25 Q 342.30 62.40 340.30 61.45 L 337.15 60.00" fill="none" stroke="#0f172a" stroke-width="1.8" stroke-linecap="round" /><path d="M 343.75 68.20 L 344.00 68.20 L 343.55 67.85" fill="none" stroke="#0f172a" stroke-width="1.8" stroke-linecap="round" /><path d="M 347.15 66.30 L 347.45 66.45 L 346.80 65.75" fill="none" stroke="#0f172a" stroke-width="1.8" stroke-linecap="round" /><path d="M 319.00 37.55 L 323.25 39.35" fill="none" stroke="#0f172a" stroke-width="1.8" stroke-linecap="round" /><path d="M 427.65 147.55 L 429.70 148.10 L 431.55 148.30 Q 435.25 147.85 438.10 146.00 Q 440.40 144.45 440.75 141.85 Q 440.90 140.85 440.15 140.05 Q 439.40 139.20 438.40 139.30 L 433.00 139.75 L 427.60 140.10 Q 422.10 140.15 413.65 139.80 L 409.55 139.40 L 405.40 139.05 L 401.95 139.15 L 398.45 139.35 L 396.15 139.55 Q 395.00 139.80 393.95 140.35 Q 389.20 143.00 382.60 147.50 L 371.55 155.20 L 367.55 157.95 L 363.55 160.80 L 362.95 161.05 L 362.35 161.10 L 358.80 160.20 L 358.10 160.10 Q 357.80 160.15 357.55 160.45 L 355.45 162.75 Q 354.20 164.10 353.60 165.15 Q 347.90 175.00 344.60 181.65 Q 343.65 183.55 342.70 186.45 L 341.10 191.40 Q 341.00 191.65 341.05 192.00 L 341.25 192.45 L 343.55 193.95 Q 344.85 194.80 345.90 195.25 Q 349.45 196.70 353.40 196.90 L 361.05 196.20 Q 364.40 195.45 367.85 193.85 Q 370.80 192.45 374.10 190.25 Q 383.40 184.15 389.85 178.00 L 393.65 174.45 L 397.50 170.85 L 397.00 170.50 L 396.55 170.25 L 393.40 167.80 L 390.30 165.30 L 389.45 164.35 L 388.70 163.25 L 388.60 162.85 L 388.60 162.40 L 389.05 162.35 L 389.45 162.40 L 390.55 163.10 L 391.55 163.90 Q 396.35 168.95 403.45 169.55 L 409.40 169.95 L 415.30 170.25 L 418.85 170.55 Q 420.80 170.85 422.25 171.70 L 428.65 175.10 L 435.10 178.35 Q 436.40 179.05 437.45 179.15 L 440.05 179.35 L 442.65 179.40 Q 445.40 179.55 447.60 177.05 Q 448.20 176.35 448.20 175.85 Q 448.25 175.35 447.65 174.65 Q 444.85 171.10 441.60 169.55 Q 434.80 166.30 427.80 165.40 Q 425.05 165.05 423.35 162.70 L 423.15 162.15 L 423.00 161.55 L 423.60 161.45 L 424.15 161.40 Q 431.20 162.40 438.45 165.35 Q 442.25 166.95 444.70 169.20 L 451.30 175.30 L 451.80 175.25 L 453.15 174.05 Q 453.80 173.10 453.55 172.65 L 452.75 170.80 L 451.60 169.25 Q 448.25 166.25 444.30 163.50 Q 438.65 159.55 431.40 158.90 Q 430.00 158.75 428.90 157.95 L 427.15 156.10 Q 426.70 155.50 426.90 155.20 L 427.80 155.00 L 431.05 155.50 L 434.25 156.20 Q 438.70 157.50 443.05 160.15 Q 446.80 162.45 450.75 165.90 L 453.40 168.00 L 454.10 168.20 L 454.85 168.10 Q 455.30 167.85 455.35 167.40 L 455.10 166.55 L 453.70 164.80 L 452.20 163.30 L 447.30 159.50 L 442.15 156.05 Q 440.10 154.85 437.30 153.65 L 432.20 151.70 Q 430.85 151.20 429.65 149.95 L 427.65 147.55" fill="rgb(215,179,157)" stroke="#0f172a" stroke-width="1.2" /><path d="M 404.25 367.80 L 401.55 367.80 L 387.85 368.15 L 386.30 368.30 L 384.80 368.20 Q 384.25 368.05 383.55 367.55 L 382.40 366.70 L 382.30 366.30 L 382.35 365.75 Q 382.80 364.60 382.40 364.05 Q 382.00 363.50 380.75 363.35 L 376.35 362.60 L 371.95 361.65 Q 371.55 361.60 371.35 361.35 L 370.70 360.45 L 370.05 359.55 L 370.85 358.90 Q 371.30 358.55 371.70 358.45 L 377.55 357.50 L 382.70 356.95 L 387.80 356.40 L 388.20 356.15 L 388.50 355.70 Q 389.65 352.65 391.75 349.75 Q 393.55 347.25 396.25 344.70 Q 400.25 340.90 406.35 339.60 L 408.30 338.90 L 410.20 338.35 Q 411.35 338.25 412.35 337.35 L 414.05 335.75 Q 415.75 334.40 417.70 334.25 Q 419.80 334.10 421.25 334.25 Q 423.20 334.45 424.75 335.10 L 425.50 335.20 Q 427.75 334.10 430.35 334.30 Q 432.35 334.50 435.15 335.55 Q 437.45 336.45 439.60 338.25 L 443.30 342.00 Q 445.25 344.20 446.95 347.05 L 449.85 352.55 L 450.30 353.15 L 451.05 353.40 L 456.50 353.90 L 460.85 354.50 L 465.20 355.00 Q 468.60 355.25 472.25 354.85 Q 474.55 354.65 475.70 355.25 Q 476.95 355.90 477.95 357.95 Q 475.10 361.45 470.60 361.75 L 469.25 361.85 L 467.90 362.05 Q 466.40 362.35 464.60 363.00 Q 464.10 363.15 464.05 363.55 Q 463.95 363.90 464.25 364.35 Q 466.30 367.50 469.15 368.60 Q 472.70 370.05 475.05 372.60 L 475.35 372.90 L 475.60 373.20 L 476.05 374.15 L 476.20 374.95 L 475.40 375.70 L 474.35 376.15 L 466.75 376.80 Q 462.65 377.05 459.10 376.80 L 448.75 376.40 L 438.35 376.00 L 430.30 375.25 L 422.25 374.25 L 409.80 372.55 Q 407.05 372.15 405.45 370.50 L 404.45 369.30 Q 404.05 368.60 404.25 367.80" fill="none" stroke="#0f172a" stroke-width="1.8" stroke-linecap="round" /><path d="M 434.80 364.60 L 438.15 364.65 L 441.50 364.60 L 446.15 364.15 L 449.05 363.55 Q 449.60 363.40 450.00 362.95 Q 451.45 361.30 450.35 359.05 L 447.00 352.20 L 443.55 345.40 L 442.00 343.15 L 440.25 341.00 Q 436.85 337.10 431.00 337.45 Q 430.00 337.50 428.65 338.15 L 427.70 338.45 L 426.75 338.25 Q 422.30 336.40 418.50 337.80 L 423.05 339.20 Q 423.70 339.40 424.55 340.20 L 426.45 342.00 L 428.25 343.75 L 429.50 342.80 L 430.65 341.95 Q 431.15 341.60 431.90 341.55 Q 432.50 341.55 432.75 341.90 Q 432.95 342.30 432.60 342.80 L 431.95 343.70 L 431.15 344.65 L 432.00 345.00 L 432.80 345.25 L 435.90 346.05 L 439.05 346.90 L 439.75 347.30 L 440.35 347.95 L 442.20 350.35 Q 439.95 348.75 437.00 348.20 L 431.30 347.85 Q 435.60 351.40 437.95 354.80 Q 440.80 358.95 441.40 363.90 L 441.05 363.25 Q 439.45 359.40 436.60 356.35 Q 433.95 353.50 430.15 351.30 L 429.10 350.70 Q 428.05 350.00 427.70 350.05 Q 427.35 350.05 426.30 350.90 L 421.95 354.20 Q 420.55 355.30 419.35 356.95 Q 418.45 358.15 417.35 360.20 L 416.90 361.05 L 416.75 361.20 L 416.45 361.15 L 416.60 360.45 L 416.75 359.80 Q 417.80 357.20 419.65 354.15 L 423.10 348.85 L 423.70 347.80 L 424.30 346.65 Q 418.75 345.25 414.20 345.40 Q 409.00 345.55 404.40 347.75 L 404.25 347.45 L 406.30 346.05 Q 407.55 345.20 408.45 344.85 Q 411.85 343.35 415.85 343.05 L 423.45 343.50 L 424.15 343.65 L 424.45 343.50 Q 421.65 340.60 417.40 338.25 Q 415.95 338.95 414.60 340.15 Q 412.25 342.20 409.05 342.60 L 406.30 343.05 L 403.75 343.85 Q 394.70 348.10 391.30 356.60 L 390.85 358.15 Q 390.75 359.05 391.25 359.60 Q 391.70 360.15 392.65 360.20 L 394.45 360.15 L 396.25 360.10 L 402.80 359.80 L 409.40 359.50 L 411.45 359.75 L 413.10 360.95 Q 414.15 362.15 415.70 362.85 L 418.75 363.75 L 434.80 364.60" fill="rgb(188,77,36)" stroke="#0f172a" stroke-width="1.2" /><path d="M 454.20 363.65 L 452.55 364.25 L 450.90 364.80 Q 441.15 367.35 432.75 367.10 L 428.25 367.00 L 423.80 366.75 L 419.20 366.30 L 414.65 365.80 Q 413.30 365.70 412.25 365.00 Q 411.35 364.40 410.55 363.15 L 410.20 362.80 L 409.70 362.60 L 403.80 362.75 L 400.45 362.95 L 397.10 363.20 Q 393.20 363.35 390.40 362.20 L 388.35 361.00 Q 387.50 360.30 387.05 359.25 L 375.10 360.20 L 375.15 360.55 L 384.35 362.30 Q 385.65 362.55 385.80 363.95 Q 385.90 364.85 386.25 365.20 Q 386.60 365.55 387.55 365.60 L 388.25 365.70 L 388.95 365.70 L 404.15 365.25 L 405.55 365.20 L 406.95 365.15 Q 408.05 365.20 408.55 365.80 Q 409.00 366.35 409.00 367.45 L 409.15 368.30 L 409.65 369.00 Q 412.10 371.25 415.85 371.35 L 420.30 371.45 L 424.75 371.70 L 431.75 372.45 L 438.75 373.15 L 448.60 373.55 L 458.40 373.75 L 465.20 373.80 L 468.45 373.50 L 471.65 373.10 L 472.15 372.90 L 472.80 372.55 L 471.55 371.90 L 467.90 370.00 Q 465.80 368.85 464.05 366.90 Q 462.50 365.25 461.05 362.90 Q 460.35 361.80 460.60 361.05 Q 460.85 360.30 462.05 359.80 Q 463.75 359.10 465.15 359.05 L 468.85 358.95 L 472.50 358.95 Q 473.15 358.95 473.65 358.40 Q 474.20 357.85 474.15 357.30 Q 474.10 356.65 473.60 356.45 L 472.60 356.35 L 471.20 356.40 L 467.75 356.55 L 464.30 356.55 L 462.05 356.50 L 459.85 356.05 Q 458.05 355.35 455.75 355.50 L 451.65 356.00 L 454.20 363.65" fill="rgb(188,78,37)" stroke="#0f172a" stroke-width="1.2" /><path d="M 405.35 151.90 L 406.85 152.35 Q 413.45 154.55 417.70 159.90 L 418.35 160.90 L 418.50 161.45 L 418.55 162.00 L 418.00 162.00 L 417.50 161.90 L 416.30 161.05 L 415.25 160.05 Q 414.05 158.55 412.35 157.50 Q 410.85 156.60 408.80 155.95 Q 406.15 155.15 404.80 152.90 Q 404.50 152.45 404.60 152.20 Q 404.70 151.90 405.35 151.90" fill="rgb(215,179,157)" stroke="#0f172a" stroke-width="1.2" /><path d="M 315.15 79.85 L 313.85 82.60 L 310.20 89.90 L 308.25 93.85" fill="rgb(102,72,72)" stroke="#0f172a" stroke-width="1.2" /><path d="M 328.40 126.95 L 326.20 125.30 Q 322.40 122.55 318.55 120.60 Q 318.85 124.15 318.20 127.85 Q 317.95 129.15 318.30 130.25 Q 318.70 131.25 319.65 132.20 Q 321.50 134.00 322.65 133.75 Q 323.80 133.50 324.65 131.10 Q 324.80 130.50 325.05 130.40 L 325.90 130.50 L 327.55 130.60 Q 328.20 130.20 328.45 129.15 L 328.50 127.90 L 328.40 126.95 L 333.45 131.20 L 338.35 135.30 L 343.00 139.65 L 348.70 146.15 L 354.25 152.80 L 355.85 154.40 L 357.60 156.15 L 355.95 157.95 L 355.65 158.30 L 354.15 159.80 Q 352.30 161.40 350.70 163.50 Q 349.75 164.70 348.90 166.05 Q 347.00 168.95 345.05 173.25 Q 341.40 181.30 339.40 188.30 L 338.20 193.05 Q 337.70 195.75 337.80 198.00 L 337.90 199.10 L 338.00 200.35 Q 335.00 198.50 330.75 194.80 L 324.80 189.70 L 323.75 188.90 L 323.65 189.40 L 323.60 189.65 L 323.45 190.50 L 323.35 190.80 L 323.05 192.70 L 322.35 201.25 L 322.15 203.85 L 322.05 206.45 L 321.95 218.35 L 322.05 230.25 Q 322.10 233.05 322.50 237.05 L 323.10 243.90 L 323.55 248.80 L 319.95 249.25 L 319.70 249.30 L 316.45 249.65 L 312.50 249.90 L 310.15 250.05 L 302.80 250.55 L 299.45 250.75 L 282.50 251.70 L 269.40 252.10 L 256.30 252.40 L 255.05 252.25 Q 254.85 252.05 254.90 250.95 L 255.55 228.90 L 256.25 206.80 L 256.70 200.95 L 257.40 195.10 Q 257.90 190.65 258.85 186.65 Q 259.20 185.10 260.65 183.25 Q 267.50 174.75 274.75 167.90 Q 285.50 157.80 294.55 151.05 L 297.05 149.25 L 299.60 147.50 L 300.50 146.55 Q 300.75 146.00 300.45 145.25 L 299.45 142.60 L 298.45 139.85 L 300.85 139.85 L 303.15 139.90 L 305.95 140.15 L 308.70 140.55 L 309.80 140.50 L 310.35 139.45 L 312.05 130.45 L 312.10 130.00 Q 312.80 125.20 312.80 121.30 L 312.75 119.60 L 312.60 117.70 L 317.55 120.10 L 318.25 120.45 L 318.55 120.60" fill="rgb(63,81,125)" stroke="#0f172a" stroke-width="1.2" /><path d="M 312.10 130.00 Q 313.30 129.90 314.20 128.55 L 315.25 126.45 L 316.05 124.20 L 316.55 122.40 Q 316.85 121.40 317.25 120.75 L 317.55 120.10" fill="rgb(83,139,198)" stroke="#0f172a" stroke-width="1.2" /><path d="M 324.55 158.85 L 324.55 158.80 L 324.40 157.55 Q 324.00 154.00 320.65 151.75 L 320.25 151.50 L 319.90 151.55 Q 319.25 152.15 318.55 151.90 L 317.35 151.20 Q 316.30 150.65 315.55 151.00 Q 314.80 151.35 314.65 152.55 L 314.65 152.85 L 314.45 153.15 L 314.05 152.80 L 313.55 152.65 L 312.10 153.05 Q 311.40 153.40 311.00 154.05 Q 310.40 155.10 311.40 156.35 L 314.70 160.75 Q 317.20 157.70 320.65 157.40 Q 322.85 157.15 324.55 158.85 L 325.00 159.30 Q 326.85 161.45 326.20 163.90 L 325.65 164.90 L 324.80 165.70 L 323.25 166.35 L 323.05 166.70 L 322.30 167.95 L 322.10 168.15 L 321.80 168.25 L 321.75 168.30 L 320.95 168.50 Q 320.55 168.70 320.50 169.25 L 320.10 169.65 L 319.50 169.50 L 317.80 168.15 L 317.05 167.10 L 315.30 167.30 L 315.10 166.95 L 315.30 168.50 L 314.80 170.90 Q 314.55 171.60 313.50 171.75 L 312.85 171.80 L 312.15 171.85 L 310.40 171.65 L 313.40 173.40 Q 314.50 174.10 315.35 175.40 L 315.75 176.05 L 315.80 175.95 L 317.65 172.65 L 317.65 172.60 L 318.20 171.75 L 318.50 171.50 Q 318.95 171.35 319.85 171.85 L 320.45 172.15 L 323.50 173.85 L 323.50 173.90 L 324.40 174.45 Q 326.85 176.05 328.25 177.95 Q 329.35 179.40 329.75 180.60 Q 330.30 182.10 330.05 183.60 Q 329.85 184.50 329.40 184.80 L 328.05 184.90 L 327.65 184.85 Q 327.45 184.85 327.35 185.05 L 326.30 186.70 L 325.40 188.35 L 325.35 188.50 L 325.30 188.65 Q 325.35 189.50 324.90 189.70 L 324.80 189.70" fill="rgb(83,139,198)" stroke="#0f172a" stroke-width="1.2" /><path d="M 355.65 158.30 Q 354.20 156.15 351.85 155.85 Q 349.40 155.60 347.30 157.60 Q 346.40 158.50 346.40 159.30 Q 346.35 160.15 347.20 161.10 Q 348.75 162.90 350.70 163.50" fill="rgb(63,81,125)" stroke="#0f172a" stroke-width="1.2" /><path d="M 309.80 129.05 L 310.00 127.85 Q 310.80 122.30 310.05 117.00 L 307.35 116.10 L 307.00 116.25 Q 304.50 117.35 303.65 117.80 Q 301.85 118.80 300.75 120.00 Q 299.95 120.85 299.70 121.85 Q 299.45 122.85 299.80 123.90 Q 300.55 126.20 302.90 127.30 Q 305.20 128.45 307.50 127.65 L 308.15 127.60 L 308.70 127.95 L 309.35 128.70 L 309.80 129.05 Q 309.05 133.40 307.30 138.25 L 304.90 137.95 L 302.45 137.75 L 297.25 137.55 L 296.00 137.80 Q 295.85 138.05 296.25 139.15 L 298.00 143.90 L 298.10 144.65 L 297.55 145.30 Q 285.50 153.45 274.75 163.75 Q 267.10 171.15 260.15 181.20 L 259.55 182.00 Q 259.75 179.60 260.40 177.10 Q 260.90 175.00 261.75 172.50 Q 265.20 162.85 269.30 154.65 Q 273.80 145.65 279.30 138.00 L 285.85 129.10 Q 289.60 124.15 292.90 120.60 L 296.15 117.45 L 299.50 114.35 Q 299.75 114.15 300.20 114.10 L 301.05 114.10 L 305.60 115.55 L 307.35 116.10" fill="rgb(0,0,0)" stroke="#0f172a" stroke-width="1.2" /><path d="M 332.05 176.40 Q 333.00 176.45 333.20 175.65 Q 333.45 174.85 333.20 174.20 L 333.15 173.80 L 333.55 173.60 Q 334.40 173.40 334.55 173.05 Q 334.75 172.70 334.40 171.90 L 333.60 170.55 L 333.10 169.85 Q 332.90 169.45 333.35 169.00 L 333.40 168.80 L 333.30 168.55 L 332.70 167.20 L 332.00 165.90 Q 330.40 164.00 329.30 163.80 Q 328.20 163.65 326.50 165.00 Q 325.10 166.10 323.75 168.15 Q 323.00 169.25 323.05 169.70 Q 323.05 170.15 323.85 171.25 Q 325.05 172.95 327.45 174.25 Q 328.80 175.00 331.65 176.35 L 331.90 176.40 L 332.05 176.40" fill="rgb(83,139,198)" stroke="#0f172a" stroke-width="1.2" /><path d="M 324.20 161.95 Q 324.20 161.25 323.70 160.65 Q 323.25 160.10 322.55 159.90 Q 320.70 159.40 318.30 160.90 Q 315.85 162.45 315.55 164.30 L 315.55 164.75 L 315.70 165.10 L 316.50 165.00 L 318.60 164.35 L 320.65 163.70 L 321.70 163.50 L 322.75 163.35 Q 323.35 163.20 323.75 162.85 Q 324.15 162.50 324.20 161.95" fill="rgb(0,0,0)" stroke="#0f172a" stroke-width="1.2" /><path d="M 323.25 166.35 L 322.45 166.50 L 318.95 166.90 L 317.05 167.10" fill="rgb(83,139,198)" stroke="#0f172a" stroke-width="1.2" /><path d="M 314.05 164.85 L 314.00 164.75 Q 313.60 163.85 313.65 162.95 Q 313.70 162.05 314.30 161.25 L 314.70 160.75" fill="rgb(63,81,125)" stroke="#0f172a" stroke-width="1.2" /><path d="M 315.10 166.95 L 314.65 166.10 L 314.05 164.85 L 313.10 163.25 L 311.00 160.70 Q 310.35 160.15 309.70 159.75 L 307.55 159.65 Q 306.60 160.25 306.65 161.65 L 306.85 162.75 Q 307.00 163.35 306.80 163.55 L 305.90 163.55 L 304.80 163.30 L 303.95 163.25 Q 303.50 163.35 303.20 163.65 Q 302.95 164.05 303.05 164.50 L 303.45 165.25 Q 305.30 168.25 308.30 170.45 L 308.75 170.80 L 310.40 171.65" fill="rgb(0,0,0)" stroke="#0f172a" stroke-width="1.2" /><path d="M 292.35 241.65 L 292.70 240.95 L 292.90 240.35 L 293.70 236.20 Q 294.00 233.95 293.90 231.95 L 293.25 217.30 Q 293.20 216.35 293.55 215.05 Q 293.85 214.10 294.75 213.90 Q 295.70 213.70 296.20 214.45 Q 297.20 215.80 297.80 217.60 L 298.20 219.25 L 298.45 220.95 Q 298.50 221.45 298.80 221.50 Q 299.05 221.55 299.35 221.20 Q 299.95 220.65 300.05 220.15 L 300.50 218.35 L 300.80 216.55 L 300.90 211.55 L 301.05 206.55 Q 301.15 204.80 302.00 203.35 Q 302.80 201.90 304.30 200.85 Q 305.00 200.40 305.70 200.60 Q 306.40 200.80 306.75 201.55 L 308.90 206.05 Q 309.20 206.65 310.05 206.75 Q 310.95 206.85 311.15 206.30 L 311.90 204.55 L 312.45 202.75 Q 313.00 199.90 312.55 196.90 Q 312.20 194.20 310.95 191.25 Q 309.90 188.60 310.90 186.15 Q 311.40 185.00 311.90 184.70 Q 312.40 184.45 313.60 184.70 L 315.75 185.00 Q 317.00 185.10 316.75 183.80 L 316.60 182.85 L 316.40 181.85 Q 315.80 179.55 315.25 178.55 Q 314.40 176.85 312.85 176.00 L 310.70 174.80 L 308.50 173.75 Q 305.70 172.40 303.50 173.00 Q 300.50 173.85 297.35 172.65 Q 296.55 172.35 296.05 171.70 L 295.30 170.35 Q 294.75 168.95 294.65 167.25 L 294.40 166.40 L 293.55 166.35 Q 291.95 166.70 290.70 167.65 Q 289.50 168.55 288.65 169.90 L 287.15 172.80 L 285.75 175.80 L 284.75 177.25 Q 284.25 177.50 283.05 177.25 L 281.30 176.70 L 279.55 176.15 L 276.65 175.95 Q 275.85 176.10 275.70 176.75 Q 275.60 177.40 276.20 177.90 Q 277.50 178.95 278.95 179.70 L 280.20 180.65 Q 280.45 181.10 280.30 182.15 Q 280.15 183.05 279.60 183.95 L 278.50 185.45 L 275.15 189.55 L 272.00 193.80 L 270.65 196.40 L 269.60 199.15 Q 269.40 199.65 269.35 200.45 L 269.30 201.80 L 269.65 201.95 L 270.45 200.80 L 272.10 198.40 L 273.75 196.05 Q 274.30 195.25 275.30 194.80 L 277.50 194.75 Q 278.55 195.30 278.75 196.65 L 278.90 198.85 L 279.20 201.00 Q 279.75 203.40 279.85 206.80 L 279.90 212.60 L 280.45 228.60 Q 280.45 229.25 280.90 229.65 L 281.80 230.20 L 282.25 229.80 L 282.75 229.05 L 283.25 227.45 L 283.60 224.50 L 283.80 221.60 L 283.75 215.90 L 283.65 210.20 Q 283.65 209.05 284.25 207.80 Q 284.55 207.15 285.25 206.85 Q 285.95 206.50 286.40 206.85 L 288.30 208.50 Q 289.25 209.55 289.40 210.75 L 289.85 215.25 L 291.05 236.00 L 291.40 238.80 Q 291.70 240.35 292.35 241.65" fill="rgb(188,77,36)" stroke="#0f172a" stroke-width="1.2" /><path d="M 318.20 171.75 L 318.50 171.50 Q 318.95 171.35 319.85 171.85 L 320.45 172.15" fill="rgb(83,139,198)" stroke="#0f172a" stroke-width="1.2" /><path d="M 315.75 176.05 L 316.65 177.90 Q 317.70 180.25 318.20 182.25 Q 318.70 184.10 318.80 185.90 L 319.10 188.05 L 319.25 188.65 Q 319.95 190.10 321.25 190.50 Q 321.75 190.65 322.15 190.25 L 322.75 189.45 L 323.65 189.40" fill="rgb(63,81,125)" stroke="#0f172a" stroke-width="1.2" /><path d="M 318.80 185.90 L 318.85 186.85 L 318.65 187.80 L 318.15 188.50 L 317.05 188.85 L 315.90 188.40 L 314.10 187.10 Q 313.60 186.75 313.15 186.70 Q 312.65 186.60 312.20 187.00 Q 311.80 187.35 311.85 187.90 L 312.05 188.85 L 313.60 193.10 L 314.85 197.45 Q 315.95 203.85 313.10 209.50 L 312.30 210.25 L 311.20 210.35 Q 307.90 210.00 307.00 207.05 L 306.05 203.95 Q 304.45 204.10 303.55 205.00 Q 302.70 205.85 302.65 207.45 L 302.55 212.55 L 302.40 217.65 L 301.75 222.15 Q 301.25 224.20 299.80 224.30 Q 298.95 224.35 298.40 223.70 L 297.70 222.35 L 297.10 220.35 L 296.65 218.35 L 296.30 216.65 L 295.45 217.25 Q 295.25 217.60 295.30 218.15 L 295.65 225.80 L 295.90 233.40 L 295.75 237.45 L 295.45 241.50 L 295.20 242.45 L 294.60 243.60 L 293.55 244.30 Q 292.85 244.40 292.20 244.00 L 291.10 243.05 Q 289.65 241.05 289.45 238.20 L 288.20 220.45 L 287.90 215.90 L 287.55 211.40 L 287.25 210.45 L 286.60 209.70 Q 286.30 209.50 285.75 210.20 Q 285.25 210.90 285.25 211.60 L 285.30 215.75 L 285.25 219.90 L 285.10 224.70 L 284.80 229.45 L 284.15 231.45 L 283.15 233.35 Q 282.65 234.20 281.75 234.25 Q 280.90 234.30 280.20 233.55 L 279.10 231.80 L 276.90 231.70 Q 275.90 231.05 275.85 229.20 L 275.85 228.15 L 275.70 227.10 L 275.70 226.50 Q 275.80 226.20 276.20 226.15 L 276.45 225.95 L 276.55 225.70 Q 276.60 224.80 277.05 224.80 Q 277.25 224.80 278.05 225.15 L 278.45 225.30 L 278.00 214.65 L 277.85 208.75 L 277.70 202.85 L 277.60 200.65 L 277.45 198.10 L 276.40 198.80 L 275.65 199.50 L 274.10 201.65 L 272.60 203.80 L 272.30 204.35 L 272.00 204.85 Q 271.00 206.40 269.60 205.20 Q 267.95 203.75 267.50 201.20 Q 266.20 194.00 271.65 188.80 L 273.95 186.60 L 276.30 184.40 Q 277.75 183.00 277.60 181.85 Q 277.40 180.65 275.65 179.65 Q 274.40 178.95 273.95 177.00 Q 273.50 175.05 274.35 174.05 Q 275.10 173.15 276.70 172.85 Q 278.30 172.50 279.40 173.10 L 281.10 173.95 Q 282.40 174.60 283.30 174.20 Q 284.25 173.85 284.65 172.45 L 284.75 172.20 L 286.05 169.05 Q 287.20 166.95 288.80 165.35 Q 290.95 163.25 293.90 163.20 Q 295.10 163.15 295.45 164.15 L 296.25 166.30 L 296.90 168.45 Q 297.10 169.15 297.45 169.45 L 298.50 169.65 L 300.10 169.55 L 301.65 169.25 L 303.90 169.00 Q 305.05 169.05 306.05 169.50 L 308.75 170.80" fill="rgb(0,0,0)" stroke="#0f172a" stroke-width="1.2" /><path d="M 323.60 189.65 Q 323.35 189.75 323.35 190.00 L 323.45 190.50" fill="rgb(63,81,125)" stroke="#0f172a" stroke-width="1.2" /><path d="M 349.00 198.90 L 348.90 198.60 Q 344.65 197.55 340.55 194.40 L 340.35 197.50 Q 340.35 199.20 340.80 200.50 L 341.40 201.25 Q 344.15 202.90 346.35 201.25 L 347.70 200.10 L 349.00 198.90" fill="rgb(0,0,0)" stroke="#0f172a" stroke-width="1.2" /><path d="M 304.70 214.20 Q 307.25 215.00 308.55 216.00 Q 310.25 217.25 310.85 219.30 L 311.20 220.45 L 311.50 221.60 L 311.60 222.90 Q 311.40 224.50 309.95 225.05 L 308.65 225.00 Q 308.15 224.75 307.80 224.15 Q 306.55 222.25 305.70 220.25 Q 305.15 218.90 304.70 216.70 L 304.65 215.55 L 304.70 214.20" fill="rgb(0,0,0)" stroke="#0f172a" stroke-width="1.2" /><path d="M 304.65 85.00 L 304.85 84.80" fill="rgb(102,72,72)" stroke="#0f172a" stroke-width="1.2" /><path d="M 305.85 82.40 L 306.05 82.20" fill="rgb(102,72,72)" stroke="#0f172a" stroke-width="1.2" /><path d="M 285.05 88.40 L 285.10 88.60 L 284.90 88.90 L 284.85 89.20 L 284.85 89.80 Q 284.60 89.85 284.65 90.00 L 284.05 92.60 Q 283.80 92.65 283.85 92.80 L 283.65 93.35 L 283.50 94.00 L 282.95 94.35 Q 282.70 94.40 282.25 93.65 Q 281.80 92.95 281.90 92.65 L 282.05 91.95 L 282.05 91.30 Q 282.05 90.15 281.40 89.80 Q 280.70 89.40 279.75 90.05 L 275.25 92.65 L 270.60 95.00 Q 266.65 96.95 262.20 97.95 L 260.60 98.25 L 258.95 98.40 L 253.80 97.70 Q 251.45 97.05 248.90 95.80 Q 245.45 94.15 241.90 91.60 L 240.55 90.65 Q 239.95 90.15 239.35 90.40 Q 238.75 90.65 238.65 91.40 L 238.45 92.10 L 238.45 92.85 L 237.65 92.70 L 237.25 92.05 L 235.95 89.55 L 234.50 87.20 Q 234.00 86.30 234.05 85.20 Q 234.10 84.00 234.90 83.40 L 235.95 82.35 L 237.05 81.30 L 237.45 81.00 L 237.95 80.80 L 238.85 80.90 Q 239.15 81.10 239.05 81.75 Q 238.85 82.70 239.55 83.35 Q 240.20 83.90 241.45 84.15 L 244.05 84.80 L 246.70 85.45 L 249.35 85.95 L 252.05 86.40 Q 252.25 86.65 252.60 86.60 L 253.25 86.55 L 254.65 86.60 Q 255.85 87.10 257.05 86.60 L 260.65 86.35 L 263.30 85.80 L 265.90 85.15 L 266.85 84.95 L 267.25 84.95 L 267.65 84.75 L 267.85 84.75 L 268.05 84.80 L 268.25 84.60 L 269.25 84.55 L 270.20 84.15 L 273.15 83.35 L 276.15 82.55 L 276.90 82.35 L 277.65 81.95 L 277.85 81.80 L 278.00 81.70 L 277.85 81.60 L 277.55 80.85 L 277.25 80.15 Q 277.00 79.65 277.15 79.40 Q 277.30 79.20 277.85 79.15 L 278.65 79.15 Q 279.40 79.30 280.20 79.95 L 281.55 81.05 L 283.35 82.50 L 285.20 83.90 L 285.75 84.50 L 285.70 85.35 L 285.60 85.75 L 285.65 86.20 Q 285.45 86.25 285.45 86.35 L 285.45 86.60 L 285.30 87.30 L 285.25 88.00 L 285.05 88.15 L 285.05 88.40" fill="rgb(0,0,0)" stroke="#0f172a" stroke-width="1.2" /><path d="M 287.10 88.60 L 287.25 88.40" fill="rgb(102,72,72)" stroke="#0f172a" stroke-width="1.2" /><path d="M 287.45 86.80 L 287.75 86.70 L 287.80 86.65 L 287.80 86.60" fill="rgb(102,72,72)" stroke="#0f172a" stroke-width="1.2" /><path d="M 287.65 84.20 L 287.50 84.00" fill="rgb(102,72,72)" stroke="#0f172a" stroke-width="1.2" /><path d="M 274.65 90.35 L 275.00 90.30 L 275.25 90.00 L 277.50 89.15 L 279.65 88.10 Q 280.50 87.55 280.40 86.55 Q 280.30 85.60 279.45 85.05 Q 277.95 84.20 276.10 84.65 L 271.10 85.95 L 266.10 87.20 Q 261.55 88.20 258.20 88.40 L 254.55 88.30 L 250.85 87.85 L 243.15 86.30 L 241.35 85.80 L 239.45 85.60 L 238.80 85.75 Q 238.55 85.90 238.45 86.20 Q 238.30 86.70 238.70 87.65 Q 239.10 88.60 239.55 88.80 L 246.90 91.95 L 247.15 92.15 L 247.45 92.15 Q 249.55 93.20 251.20 93.60 L 251.45 93.75 L 254.55 94.35 L 257.75 94.50 L 260.50 94.60 L 263.15 94.35 Q 265.80 93.85 269.00 92.65 L 274.65 90.35" fill="rgb(0,0,0)" stroke="#0f172a" stroke-width="1.2" /><path d="M 285.05 94.40 L 285.40 94.20 L 285.45 93.80" fill="rgb(102,72,72)" stroke="#0f172a" stroke-width="1.2" /><path d="M 284.00 95.00 L 284.25 94.85" fill="rgb(102,72,72)" stroke="#0f172a" stroke-width="1.2" /><path d="M 286.30 91.20 L 286.45 91.00" fill="rgb(102,72,72)" stroke="#0f172a" stroke-width="1.2" /><path d="M 285.70 92.80 L 285.85 92.60" fill="rgb(102,72,72)" stroke="#0f172a" stroke-width="1.2" /><path d="M 286.10 91.80 L 286.25 91.60" fill="rgb(102,72,72)" stroke="#0f172a" stroke-width="1.2" /><path d="M 286.05 115.05 Q 285.90 115.15 285.80 115.20 Q 283.70 116.55 282.00 117.30 Q 276.45 119.80 271.65 120.45 L 271.50 120.60 L 271.25 120.55 L 265.50 120.85" fill="rgb(102,72,72)" stroke="#0f172a" stroke-width="1.2" /><path d="M 263.05 83.00 L 262.85 83.15" fill="rgb(103,74,74)" stroke="#0f172a" stroke-width="1.2" /><path d="M 260.05 83.45 Q 259.60 82.90 259.45 83.55" fill="rgb(103,74,74)" stroke="#0f172a" stroke-width="1.2" /><path d="M 257.85 83.65 L 257.40 83.40 Q 257.15 83.40 257.05 83.75" fill="rgb(103,74,74)" stroke="#0f172a" stroke-width="1.2" /><path d="M 255.85 83.75 L 255.40 83.35 L 254.85 83.65" fill="rgb(103,74,74)" stroke="#0f172a" stroke-width="1.2" /><path d="M 260.45 101.15 L 260.85 101.95 Q 260.95 102.75 260.50 103.35 Q 260.05 103.95 259.15 104.15 L 256.75 104.45 L 254.35 104.00 Q 252.75 103.30 250.80 101.85 Q 250.35 101.55 250.50 101.20 L 250.60 101.05" fill="rgb(0,0,0)" stroke="#0f172a" stroke-width="1.2" /><path d="M 254.55 177.30 L 256.75 180.20 L 257.25 180.70 L 257.45 179.90 L 258.60 175.40 L 259.70 170.90 L 259.75 169.90 L 259.50 169.00 Q 255.80 160.70 253.40 154.10 Q 250.45 146.00 248.75 138.65 Q 247.30 132.30 246.50 127.75 Q 245.45 121.80 245.15 116.70 L 245.15 116.55 L 244.30 116.00 L 242.50 114.60 L 240.40 115.15 Q 237.40 115.75 233.75 117.60 L 233.00 118.30 L 232.40 119.25 Q 231.05 121.60 229.90 124.80 L 228.05 130.60 L 226.85 135.20 L 234.25 134.05 Q 235.30 133.95 236.10 134.45 Q 236.90 135.00 237.20 136.00 L 234.50 138.40 L 231.85 140.85 Q 231.70 140.95 231.70 141.30 L 231.75 141.85 Q 235.05 149.80 241.00 159.05 Q 245.20 165.55 250.25 171.95 L 250.60 171.60 Q 251.15 171.15 251.65 171.00 L 252.25 170.85 L 252.80 171.05 L 254.15 172.50 Q 254.80 173.40 254.85 174.40 L 254.90 175.05 L 254.95 175.65 Q 255.10 176.65 254.85 177.00 L 254.55 177.30 L 252.85 175.15 L 250.25 171.95" fill="rgb(0,0,0)" stroke="#0f172a" stroke-width="1.2" /><path d="M 271.65 120.45 Q 271.45 120.20 271.35 120.30 L 271.25 120.55" fill="rgb(102,72,72)" stroke="#0f172a" stroke-width="1.2" /><path d="M 249.20 173.25 L 247.15 170.55 Q 239.10 160.05 233.15 149.35 L 231.05 144.95 Q 229.75 142.30 228.35 140.75 L 233.45 136.80 L 232.85 136.80 L 232.45 136.85 L 226.55 137.85 Q 225.70 138.00 225.10 137.45 Q 224.45 136.85 224.60 136.00 L 225.45 131.80 Q 226.30 128.15 227.10 125.85 Q 228.15 122.65 229.65 120.20 L 230.95 117.95 L 230.30 118.00 L 229.80 118.15 L 226.60 119.50 Q 224.70 120.30 223.45 121.05 L 221.10 122.45 Q 221.80 123.75 220.95 125.45 L 220.70 126.00 Q 220.20 127.70 219.30 128.25 L 216.70 128.40 L 215.90 128.35 Q 214.95 128.50 214.20 128.00 L 213.75 127.60 L 210.05 130.50 L 204.45 134.75 L 192.10 143.25 L 179.75 151.70 L 175.60 154.60 L 175.75 154.85 L 176.75 154.55 L 179.45 153.50 L 182.15 152.55 L 182.95 152.45 L 183.75 152.60 Q 185.80 153.30 187.60 154.85 Q 189.05 156.10 190.55 158.15 Q 199.00 169.55 198.70 184.10 Q 198.60 191.80 195.45 197.95 L 194.25 200.20 L 196.25 198.70 L 198.15 197.40 L 204.75 192.75 L 210.85 187.45 L 212.25 185.85 Q 212.85 184.90 213.05 183.85 Q 213.85 179.45 215.25 174.55 Q 213.80 173.50 213.10 172.20 L 212.15 171.05 L 211.15 169.95 Q 210.50 169.05 210.60 168.00 Q 210.75 166.95 211.60 166.30 L 213.50 164.90 L 215.55 163.75 L 216.95 162.70 L 217.90 162.15 L 218.90 161.80 L 219.65 161.90 L 220.45 162.50 Q 222.30 163.90 223.00 165.95 Q 223.55 167.80 223.20 170.25 Q 222.95 171.65 221.45 172.60 L 218.55 174.55 L 217.40 175.10 L 217.35 175.15 Q 216.85 176.95 216.75 178.30 L 216.20 181.70 L 215.55 185.10 L 215.10 187.55 Q 218.25 186.85 220.00 190.00 Q 220.65 191.25 219.70 192.25 L 218.55 193.20 L 217.25 193.95 L 216.85 194.20 L 216.55 194.45 L 216.05 195.20 L 215.90 195.55 L 215.30 196.20 L 215.25 196.20 L 215.20 196.20 Q 214.80 196.35 213.90 195.75 L 213.85 195.75 L 212.90 203.10 Q 211.80 212.55 211.50 221.20 L 211.30 233.40 L 211.25 245.60 L 211.45 246.35 L 212.05 246.70 L 215.15 247.65 L 218.30 248.55 Q 225.95 250.45 234.65 251.40 L 251.25 252.35 L 251.85 252.25 L 251.85 250.85 L 251.85 249.45 L 252.50 233.80 L 253.25 218.10 Q 253.75 207.80 254.45 201.20 L 255.55 192.30 L 256.75 183.40 L 256.65 182.80 L 256.35 182.25 L 255.40 181.20 L 254.45 180.20 L 252.60 177.80 L 251.10 177.65 Q 250.00 177.35 249.30 176.35 Q 248.65 175.40 248.75 174.50 Q 248.80 173.90 249.20 173.25 L 250.80 175.40 L 252.60 177.80" fill="rgb(0,0,0)" stroke="#0f172a" stroke-width="1.2" /><path d="M 140.50 94.20 L 141.05 94.60 Q 143.25 96.60 144.40 98.10 Q 146.00 100.20 146.65 102.45 L 146.85 102.80 L 147.20 103.00 Q 151.30 104.60 152.85 109.20 Q 153.65 111.65 153.20 114.05 Q 152.75 116.30 151.20 118.45 L 150.85 118.70 L 150.50 118.90 L 149.30 119.65 Q 148.65 120.10 148.65 120.95 L 148.35 122.65 L 147.85 124.40 L 147.60 125.40 L 148.60 125.15 L 174.70 116.40 L 174.70 116.10 L 175.30 116.20 L 181.35 114.15 L 182.35 113.65 L 181.10 112.90 Q 179.90 112.00 179.75 111.25 L 179.90 110.90 L 180.20 110.70 Q 181.05 110.65 182.10 111.80 Q 182.75 112.45 183.00 113.05 L 183.35 112.50 Q 187.25 105.60 185.90 97.15 Q 185.55 94.90 184.95 93.55 Q 184.15 91.70 182.70 90.70 Q 180.20 88.85 176.60 87.20 Q 175.35 86.60 173.90 86.45 L 174.30 86.75 Q 175.30 87.70 175.50 88.75 L 174.55 88.75 L 173.80 88.60 L 171.85 86.90 L 171.65 86.50 L 170.85 86.65 L 168.30 87.20 L 165.75 87.75 L 163.10 88.40 L 163.85 88.90 Q 164.90 89.75 165.00 90.80 Q 163.95 90.85 163.00 90.05 Q 162.25 89.45 162.00 88.70 L 152.35 91.15 L 153.55 91.85 Q 154.60 92.70 154.60 93.25 L 154.30 93.60 L 154.00 93.75 L 151.55 91.70 L 151.60 91.40 L 151.60 91.30 L 147.70 92.30 L 146.10 92.75 L 146.60 93.10 Q 148.00 94.25 148.00 95.30 Q 146.90 95.35 145.55 94.25 L 144.50 93.15 L 140.50 94.20" fill="rgb(0,0,0)" stroke="#0f172a" stroke-width="1.2" /><path d="M 183.00 97.50 Q 183.90 97.40 184.85 98.15 Q 185.75 98.95 185.90 99.90 Q 185.00 100.00 184.05 99.25 Q 183.10 98.45 183.00 97.50" fill="rgb(0,0,0)" stroke="#0f172a" stroke-width="1.2" /><path d="M 182.10 101.55 Q 183.10 101.60 184.00 102.40 Q 184.90 103.15 185.00 104.10 Q 184.10 104.20 183.15 103.40 Q 182.20 102.60 182.10 101.55" fill="rgb(0,0,0)" stroke="#0f172a" stroke-width="1.2" /><path d="M 178.35 104.75 Q 179.10 104.70 180.15 105.60 Q 181.20 106.45 181.30 107.05 L 181.15 107.70 Q 180.90 107.95 180.55 107.70 L 178.20 105.55 L 178.20 105.15 L 178.35 104.75" fill="rgb(0,0,0)" stroke="#0f172a" stroke-width="1.2" /><path d="M 161.15 166.85 L 152.70 164.05 Q 148.75 162.95 145.30 162.90 L 145.85 167.50 L 146.25 171.00 L 146.55 173.25 L 147.20 173.50 Q 148.45 174.10 148.55 174.80 L 148.40 175.20 L 148.05 175.50 L 145.30 177.15 Q 143.60 178.15 142.60 178.85 Q 140.65 180.15 139.45 181.30 Q 137.90 182.80 137.00 184.50 Q 135.65 187.20 136.55 190.30 Q 136.95 191.60 137.85 192.30 Q 138.75 192.95 140.10 192.95 Q 144.95 192.95 148.80 190.90 Q 152.65 188.90 155.35 184.90 Q 157.25 182.10 157.60 178.95 Q 158.00 175.80 156.80 172.50 L 156.60 171.70 L 156.80 171.50 L 157.30 172.00 L 157.80 172.50 Q 160.70 176.45 159.55 181.40 Q 158.90 184.20 156.75 186.80 L 152.00 192.65 L 151.70 193.15 Q 151.60 193.50 151.65 193.75 Q 152.30 198.00 150.10 201.35 L 150.70 206.25 L 151.10 206.00 L 151.95 205.45 Q 153.80 204.55 155.20 203.00 Q 156.40 201.70 157.45 199.70 Q 159.55 195.75 159.85 192.25 Q 160.90 192.35 161.50 193.05 Q 162.15 193.70 162.05 194.65 L 161.75 196.65 L 161.35 198.65 L 161.25 199.85 L 171.35 197.40 L 180.25 195.15 Q 185.15 193.75 188.95 192.15 L 190.20 191.40 L 195.70 186.05 L 196.15 185.45 L 196.35 184.75 Q 198.00 171.45 190.45 161.15 Q 188.45 158.35 185.00 156.60 L 184.10 156.35 L 183.25 156.40 L 180.45 157.35 L 177.75 158.55 L 171.10 161.50 L 164.30 164.15 L 162.05 165.05 L 161.10 165.60 Q 160.80 166.05 161.15 166.85" fill="rgb(215,179,157)" stroke="#0f172a" stroke-width="1.2" /><path d="M 207.40 147.40 Q 205.70 147.40 205.25 148.15 Q 204.75 148.90 205.50 150.50 L 205.60 151.15 L 205.30 151.70 L 204.25 152.75 Q 203.35 153.70 203.30 154.35 Q 203.20 155.05 203.80 156.10 L 204.05 156.45 L 204.20 156.85 Q 204.50 158.30 205.55 159.45 L 207.85 161.20 Q 208.70 161.75 209.45 161.85 Q 210.35 161.95 211.15 161.45 L 212.55 161.50 L 214.70 161.40 L 215.55 160.85 Q 216.65 160.30 216.85 159.90 L 216.70 158.20 Q 216.20 155.95 214.95 153.70 Q 213.95 151.90 212.20 149.75 Q 210.30 147.35 207.40 147.40" fill="rgb(63,81,125)" stroke="#0f172a" stroke-width="1.2" /><path d="M 221.10 122.45 Q 218.35 124.15 215.60 126.15 L 213.75 127.60" fill="rgb(0,0,0)" stroke="#0f172a" stroke-width="1.2" /><path d="M 214.55 146.45 L 214.05 146.45 L 213.60 146.20 L 213.10 146.05 Q 212.85 146.00 212.65 146.20 Q 212.35 146.55 212.75 147.10 Q 213.60 148.25 214.25 149.95 L 215.30 153.05 Q 215.65 154.05 216.40 154.90 L 218.05 156.35 Q 218.80 156.85 219.35 156.20 L 221.90 153.35 Q 223.00 152.30 223.45 150.95 Q 223.95 149.70 223.90 148.05 Q 223.90 146.55 222.80 145.15 Q 221.90 143.95 220.70 143.25 L 219.70 143.30 Q 219.40 143.85 219.05 143.75 Q 218.85 143.75 218.40 143.35 L 217.60 142.75 L 215.25 142.60 Q 214.25 143.20 214.20 144.75 L 214.35 145.65 L 214.55 146.45" fill="rgb(63,81,125)" stroke="#0f172a" stroke-width="1.2" /><path d="M 226.45 160.45 L 227.70 160.85 L 229.00 161.05 L 230.65 160.95 Q 231.55 160.75 231.90 160.00 Q 232.25 159.20 231.80 158.35 L 230.75 157.00 L 229.35 155.60 L 227.95 154.20 Q 227.35 153.40 226.10 153.40 Q 224.90 153.45 224.25 154.30 Q 222.85 156.20 221.00 157.50 L 220.05 158.50 Q 219.85 158.85 220.05 159.05 L 221.25 160.30 Q 222.05 160.85 222.90 160.80 Q 224.20 160.70 225.05 161.35 L 225.65 161.75 L 226.35 161.70 Q 226.60 161.55 226.50 161.15 L 226.45 160.45" fill="rgb(63,81,125)" stroke="#0f172a" stroke-width="1.2" /><path d="M 241.35 169.05 Q 240.60 169.10 239.95 170.10 Q 239.35 171.15 239.55 172.05 Q 240.10 174.10 242.30 175.80 Q 244.45 177.45 246.60 177.40 Q 247.45 177.40 247.40 176.90 L 247.45 175.85 L 247.50 174.90 Q 246.90 172.45 244.95 171.50 L 243.05 170.15 L 242.35 169.40 Q 241.90 169.05 241.35 169.05" fill="rgb(63,81,125)" stroke="#0f172a" stroke-width="1.2" /><path d="M 242.55 183.40 Q 243.60 183.50 244.40 182.80 L 245.70 181.20 L 246.05 180.10 L 245.55 179.10 L 244.50 178.40 L 243.45 177.85 Q 242.85 177.25 241.85 176.85 L 240.05 176.30 L 238.90 176.40 Q 238.55 176.80 238.80 177.65 L 238.90 178.30 L 238.70 178.95 Q 238.50 179.20 238.55 179.60 Q 238.65 180.80 239.85 182.10 Q 241.20 183.50 242.55 183.40" fill="rgb(63,81,125)" stroke="#0f172a" stroke-width="1.2" /><path d="M 215.25 174.55 L 217.35 168.20 L 217.55 167.70 L 217.75 167.25 L 218.15 167.30 L 218.40 169.70 Q 218.55 171.15 218.30 172.15 L 217.40 175.10" fill="rgb(0,0,0)" stroke="#0f172a" stroke-width="1.2" /><path d="M 215.10 187.55 L 213.85 195.75" fill="rgb(0,0,0)" stroke="#0f172a" stroke-width="1.2" /><path d="M 180.35 199.90 L 181.20 201.00 L 182.65 202.55 Q 183.55 203.25 184.50 203.20 L 187.00 202.85 L 189.25 201.90 L 191.00 200.15 L 192.45 198.05 L 192.95 196.90 L 193.35 195.65 L 180.35 199.90" fill="rgb(63,81,125)" stroke="#0f172a" stroke-width="1.2" /><path d="M 223.45 202.15 Q 223.45 203.30 223.25 203.45 L 221.85 203.60 Q 221.30 203.60 221.00 204.05 Q 219.55 206.35 219.95 208.50 Q 220.70 213.05 224.70 216.30 L 225.65 216.95 Q 226.25 217.20 226.75 216.55 L 227.10 216.60 Q 227.75 217.15 228.50 217.35 L 230.10 217.45 L 231.35 217.05 Q 231.75 216.65 231.60 215.80 L 231.40 213.35 L 231.50 210.90 Q 231.55 209.40 231.90 208.45 Q 232.30 207.15 233.20 206.30 L 233.70 205.75 L 234.10 205.20 Q 235.15 203.95 234.35 202.40 L 232.90 200.55 L 231.05 199.00 Q 229.65 197.95 228.20 199.15 L 227.05 199.75 L 225.75 199.85 Q 224.45 199.75 223.95 200.30 Q 223.45 200.80 223.45 202.15" fill="rgb(63,81,125)" stroke="#0f172a" stroke-width="1.2" /><path d="M 243.25 216.55 L 246.25 216.70 Q 247.65 216.55 247.10 215.15 L 246.70 214.40 Q 244.40 211.35 241.40 210.30 L 240.40 209.65 Q 239.05 208.45 237.80 208.50 Q 236.60 208.60 235.40 210.00 Q 233.60 212.15 232.80 214.55 L 232.40 215.50 Q 232.20 216.10 232.30 216.55 Q 232.55 217.45 233.80 218.45 Q 235.05 219.40 236.00 219.40 L 239.60 219.55 Q 241.50 219.85 242.90 221.05 L 243.50 221.35 L 244.15 221.20 L 244.45 220.60 L 244.35 219.90 L 243.85 218.25 L 243.20 216.65 Q 243.10 216.45 243.25 216.55" fill="rgb(63,81,125)" stroke="#0f172a" stroke-width="1.2" /><path d="M 220.45 224.95 Q 221.80 224.95 223.45 224.05 L 226.25 222.55 L 226.40 222.45 L 226.45 222.25 L 226.25 220.85 Q 226.15 220.05 226.40 219.50 L 226.30 219.25 Q 225.10 217.10 223.45 216.70 L 221.20 215.95 L 219.00 215.00 L 217.80 214.85 Q 217.40 215.05 217.30 215.95 L 217.10 217.90 Q 216.90 219.00 216.25 219.70 L 216.10 220.10 L 216.05 220.55 Q 216.00 222.05 217.45 223.50 Q 218.90 225.00 220.45 224.95" fill="rgb(63,81,125)" stroke="#0f172a" stroke-width="1.2" /><path d="M 235.90 230.00 L 236.05 229.85 L 237.05 230.45 L 238.00 231.00 Q 239.20 231.60 240.30 231.45 Q 241.35 231.30 241.95 230.50 Q 243.00 229.05 241.25 226.90 Q 240.40 225.80 239.00 225.00 L 236.35 223.75 L 235.30 223.25 Q 234.75 222.90 234.55 222.35 L 233.70 221.05 L 232.65 219.95 Q 232.05 219.25 231.10 219.10 Q 230.75 219.00 230.60 219.30 L 230.30 219.80 L 229.95 219.85 L 229.40 219.90 L 229.00 220.20 Q 228.10 220.95 227.45 222.10 Q 226.95 223.00 226.55 224.25 Q 225.45 227.55 227.90 229.60 L 229.45 231.05 L 230.90 232.50 L 233.20 234.05 L 235.95 234.20 Q 236.95 233.95 237.15 233.50 Q 237.40 233.00 237.00 232.10 L 236.45 231.05 L 235.90 230.00" fill="rgb(63,81,125)" stroke="#0f172a" stroke-width="1.2" /><path d="M 292.00 197.75 L 286.65 203.90 L 286.80 203.20 L 287.05 202.30 L 288.15 199.50 L 289.35 196.70 Q 289.50 196.35 289.95 196.00 L 290.80 195.30 L 286.60 190.80 L 286.80 190.55 L 288.55 191.15 L 290.15 192.15 Q 290.85 192.85 292.45 193.50 L 293.15 193.55 L 293.85 193.35 Q 297.70 191.90 301.10 194.40 L 298.35 194.25 Q 297.00 194.45 295.60 195.25 L 296.80 195.70 L 297.85 196.05 Q 299.15 196.30 300.30 197.10 L 302.20 198.90 L 302.75 199.85 L 303.05 201.00 L 301.00 199.45 Q 299.85 198.80 298.65 198.50 L 296.40 197.55 Q 295.00 196.90 293.85 197.00 Q 295.50 198.55 295.90 200.85 L 296.00 205.05 L 295.45 211.70 L 294.40 204.70 Q 293.60 200.70 292.00 197.75" fill="rgb(0,0,0)" stroke="#0f172a" stroke-width="1.2" /><path d="M 247.25 180.10 Q 247.25 181.40 246.75 182.80 L 246.55 183.20 L 246.60 183.65 L 247.40 184.85 L 248.50 185.80 L 249.10 186.00 Q 249.45 185.95 249.60 185.65 Q 249.80 185.20 250.10 185.20 L 250.70 185.40 L 251.85 185.70 L 252.60 184.75 Q 253.00 184.10 253.50 184.05 Q 254.10 184.00 254.05 183.35 Q 254.00 182.65 253.20 181.65 Q 252.40 180.60 251.70 180.50 Q 250.40 180.25 249.00 179.25 L 248.35 178.85 L 247.55 178.90 Q 247.20 179.10 247.20 179.50 L 247.25 180.10" fill="rgb(63,81,125)" stroke="#0f172a" stroke-width="1.2" /><path d="M 272.40 212.40 L 272.10 212.25 L 271.20 213.55 L 270.35 214.85 Q 270.25 215.00 270.30 215.35 L 270.40 215.90 L 271.00 215.75 L 271.55 215.55 Q 272.75 214.35 272.40 212.40" fill="rgb(0,0,0)" stroke="#0f172a" stroke-width="1.2" /><path d="M 274.25 214.70 L 273.80 216.25 L 273.20 217.85 Q 272.70 218.75 271.80 218.85 Q 270.95 218.90 270.20 218.20 Q 268.15 216.20 268.70 213.05 Q 268.85 212.15 270.35 211.15 Q 271.90 210.15 272.85 210.30 L 273.25 210.50 L 273.50 210.90 L 273.90 212.70 L 274.25 214.70" fill="rgb(63,81,125)" stroke="#0f172a" stroke-width="1.2" /><path d="M 271.10 231.45 L 271.90 232.00 Q 272.60 232.35 273.40 232.00 L 274.10 232.05 L 274.25 232.10 L 275.25 232.15 Q 275.45 232.05 275.45 231.25 Q 275.40 229.50 274.30 227.85 Q 273.20 226.20 271.55 225.50 L 270.65 225.20 Q 270.10 225.20 269.80 225.60 Q 269.50 226.05 269.10 226.05 L 268.30 225.85 L 267.60 225.70 Q 266.65 225.60 266.15 226.25 Q 265.95 226.55 266.05 226.95 L 266.40 227.60 Q 267.50 229.30 268.90 229.85 L 270.35 230.85 L 270.75 231.15 L 271.10 231.45 L 270.75 231.15 L 270.35 230.85" fill="rgb(63,81,125)" stroke="#0f172a" stroke-width="1.2" /><path d="M 267.55 240.35 Q 268.80 240.35 269.80 239.50 Q 270.80 238.65 271.35 237.10 L 271.50 236.45 L 271.25 235.90 Q 270.80 235.45 271.40 235.10 L 271.80 234.75 L 271.90 234.20 Q 271.80 233.50 270.65 232.40 Q 269.50 231.25 268.80 231.20 L 268.20 231.25 L 266.10 232.45 L 264.20 234.00 Q 263.60 234.65 263.70 235.25 Q 263.80 235.85 264.55 236.35 Q 265.55 236.95 265.40 238.00 Q 265.20 239.15 265.75 239.75 Q 266.30 240.35 267.55 240.35" fill="rgb(63,81,125)" stroke="#0f172a" stroke-width="1.2" /><path d="M 273.95 234.45 Q 273.50 234.40 273.35 234.80 L 273.15 235.40 L 273.00 236.05 L 273.05 238.30 L 272.85 240.55 L 272.85 240.90 L 272.95 241.20 L 274.55 243.10 Q 275.55 244.00 276.65 244.40 L 277.55 244.35 L 277.85 243.55 L 277.80 240.65 Q 277.75 240.05 277.95 239.70 L 278.75 239.10 L 279.95 238.25 Q 280.30 237.70 280.00 237.10 Q 278.50 234.35 275.50 233.85 Q 274.85 233.75 274.75 234.05 L 274.50 234.60 L 273.95 234.45" fill="rgb(63,81,125)" stroke="#0f172a" stroke-width="1.2" /><path d="M 279.10 231.80 Q 278.65 230.80 278.60 229.65 L 278.45 225.30" fill="rgb(0,0,0)" stroke="#0f172a" stroke-width="1.2" /><path d="M 306.35 216.70 L 307.40 220.40 L 307.70 221.15 L 308.50 221.25 L 309.25 220.65 Q 309.55 220.25 309.30 219.60 Q 309.00 218.75 308.10 218.00 L 306.35 216.70" fill="rgb(188,78,37)" stroke="#0f172a" stroke-width="1.2" /><path d="M 310.15 250.05 L 310.00 249.20 Q 310.05 248.50 310.60 247.80 L 310.95 247.05 L 311.25 246.25 Q 312.40 242.95 310.10 240.00 Q 309.40 239.05 308.75 239.65 Q 308.20 240.20 307.65 240.10 Q 307.25 240.05 306.65 239.50 Q 305.90 238.85 304.90 239.10 Q 303.90 239.35 303.50 240.25 Q 302.80 241.75 302.40 243.60 L 301.80 247.10 Q 301.70 248.20 302.10 249.25 L 302.80 250.55" fill="rgb(63,81,125)" stroke="#0f172a" stroke-width="1.2" /><path d="M 211.30 248.45 L 211.30 249.65 L 211.75 263.15 L 212.30 276.60 Q 212.50 280.85 213.40 287.95 Q 214.30 295.45 215.50 303.15 L 218.70 322.65 L 219.25 324.00 L 221.75 327.95 L 224.15 331.90 L 224.40 333.00 L 224.25 334.15 L 223.60 335.95 L 222.85 337.70 Q 222.45 338.60 222.55 338.90 Q 222.65 339.20 223.50 339.60 L 225.90 340.50 L 228.35 341.15 L 239.45 342.30 L 244.05 342.55 L 248.70 342.45 L 254.20 341.65 L 259.60 340.55 Q 260.40 340.35 261.50 339.75 L 263.30 338.70 Q 264.60 338.05 263.60 336.75 L 261.55 333.95 L 259.50 331.15 Q 258.95 330.45 258.90 329.85 Q 258.80 329.20 259.20 328.50 L 260.50 326.35 L 261.75 324.20 Q 262.85 322.45 262.50 320.40 Q 262.00 317.55 261.80 315.15 Q 261.55 311.65 261.55 307.95 L 261.40 298.90 Q 261.35 293.60 261.55 289.85 L 262.00 281.65 Q 262.30 276.75 262.20 273.40 Q 262.20 272.25 262.55 272.00 Q 262.95 271.80 264.05 272.30 L 264.80 272.75 L 266.45 274.45 L 267.50 276.55 Q 274.30 294.40 283.95 313.90 L 288.35 323.15 Q 289.25 325.10 289.35 327.35 Q 289.45 329.30 288.95 331.65 Q 288.85 332.20 289.00 332.50 L 289.60 333.15 L 294.30 336.85 Q 296.05 338.30 295.30 340.75 L 294.40 343.75 L 294.75 343.90 L 295.05 343.95 L 297.55 344.20 L 300.05 344.35 Q 307.75 344.50 315.20 342.25 L 322.95 339.85 L 330.65 337.40 Q 331.90 337.05 333.10 336.30 L 335.25 334.75 L 335.80 333.85 Q 335.80 333.40 335.30 332.90 L 332.70 330.35 L 330.15 327.75 Q 329.25 326.90 329.05 326.10 Q 328.80 325.15 329.20 324.00 L 330.25 320.95 L 331.15 317.80 L 331.25 316.90 L 331.05 316.10 L 329.70 314.30 Q 328.85 313.40 327.80 313.00 Q 326.95 312.70 326.70 312.00 Q 326.45 311.35 326.75 310.45 L 328.25 306.00 L 328.50 303.85 L 327.50 297.30 L 326.60 290.70 Q 325.50 281.40 324.85 272.95 L 324.35 264.50 L 324.00 256.05 L 323.75 252.05 L 321.65 252.30 L 319.60 252.50 L 307.20 253.35 L 294.75 254.15 L 273.85 255.10 Q 262.45 255.45 252.90 255.25 Q 240.40 255.00 231.30 253.60 L 222.55 252.00 L 214.00 249.60 L 212.65 249.05 L 211.30 248.45" fill="rgb(0,0,0)" stroke="#0f172a" stroke-width="1.2" /><path d="M 209.55 354.45 L 209.65 354.80 L 210.80 355.00 L 211.90 355.30 Q 216.10 356.95 219.25 358.75 Q 222.95 360.90 225.80 363.55 L 226.85 365.00 L 227.45 366.75 L 225.45 366.95 L 223.55 367.25 Q 214.85 368.65 206.90 365.80 Q 205.15 365.15 204.00 364.50 L 200.80 362.75 Q 199.10 361.60 197.95 360.25 L 197.75 361.25 L 197.60 362.20 Q 197.50 363.40 198.15 364.30 L 199.85 365.75 Q 211.90 373.30 226.95 370.85 L 234.25 369.55 L 241.50 368.35 Q 249.90 367.20 258.00 364.95 L 259.25 364.55 Q 260.50 363.80 261.05 362.35 Q 261.55 360.85 261.15 359.05 L 255.70 360.60 L 250.20 362.05 L 243.25 363.55 L 236.35 365.00 L 235.70 365.00 L 235.20 364.40 L 233.70 361.70 Q 232.70 360.30 231.45 359.50 L 229.55 358.25 L 227.60 357.05 Q 222.55 354.50 218.95 352.95 L 217.05 352.40 L 215.05 352.25 Q 214.25 352.35 213.15 352.80 L 211.25 353.60 L 210.40 354.00 L 209.55 354.45" fill="rgb(55,47,41)" stroke="#0f172a" stroke-width="1.2" /><path d="M 226.70 343.80 Q 227.30 345.10 227.00 346.60 Q 226.70 348.05 225.65 348.90 L 222.00 351.75 L 222.95 352.20 Q 227.35 354.40 229.70 355.90 Q 233.25 358.20 235.55 360.85 Q 236.60 362.05 237.65 362.40 Q 238.65 362.70 240.20 362.40 Q 247.40 360.95 254.35 358.60 Q 255.80 358.15 256.60 357.25 Q 257.45 356.35 257.65 354.90 L 258.65 348.40 L 258.75 346.55 L 258.80 344.95 L 257.70 345.20 L 254.95 345.75 L 254.90 345.65 L 254.65 345.70 L 254.40 345.65 L 254.35 345.60 L 254.20 345.65 L 252.05 346.00 Q 248.80 346.15 244.95 345.90 L 231.65 344.85 L 229.20 344.40 L 226.70 343.80" fill="rgb(215,179,157)" stroke="#0f172a" stroke-width="1.2" /><path d="M 223.85 364.70 L 223.95 364.35 L 223.00 363.55 Q 220.55 361.65 217.00 360.05 L 210.55 357.35 Q 208.15 356.35 205.40 356.70 Q 203.50 356.95 200.40 358.00 Q 199.70 358.25 199.55 358.85 Q 199.45 359.40 200.00 359.90 Q 201.30 361.10 202.60 361.70 Q 207.70 364.05 212.75 364.25 L 223.85 364.70" fill="rgb(215,179,157)" stroke="#0f172a" stroke-width="1.2" /><path d="M 209.35 384.50 L 208.75 383.15 Q 207.60 380.45 206.60 379.25 Q 205.05 377.45 202.70 377.15 L 202.40 377.05 L 199.15 375.95 L 195.85 375.05 L 189.05 373.60 Q 185.40 372.70 182.50 371.45 L 181.70 370.90 L 181.20 370.10 L 175.30 352.60 L 173.25 346.75 Q 172.00 343.25 171.30 340.80 Q 170.65 338.40 169.55 336.85 Q 168.30 335.05 166.30 334.10 L 166.15 333.95 Q 165.80 333.65 165.45 333.65 L 164.70 333.95 L 163.50 334.60 L 162.20 335.10 Q 157.30 336.15 152.90 335.15 Q 152.25 335.00 151.45 335.15 Q 150.60 335.30 150.40 335.70 L 148.65 338.15 Q 147.80 339.65 148.25 341.15 L 148.25 341.40 L 148.20 341.70 L 144.25 373.45 Q 144.15 374.30 143.85 374.50 L 141.70 376.25 L 139.45 377.80 L 136.20 379.70 Q 134.05 380.85 133.00 381.55 Q 131.05 382.80 128.45 384.55 L 124.00 387.65 Q 123.60 387.90 123.50 388.40 L 121.75 395.05 L 122.15 395.15 Q 126.45 396.25 131.30 396.80 L 140.60 397.35 L 156.20 396.90 L 171.70 395.80 Q 182.35 394.95 191.50 391.55 L 200.05 388.30 Q 202.90 387.15 208.65 384.95 L 209.00 384.75 L 209.35 384.50" fill="rgb(153,153,153)" stroke="#0f172a" stroke-width="1.2" /><path d="M 328.50 342.80 L 322.40 344.60 L 316.35 346.40 L 310.10 347.55 L 303.70 347.95 L 304.35 350.90 L 305.00 353.75 Q 305.40 355.80 306.00 357.10 Q 306.75 358.75 308.15 359.80 L 314.40 364.35 L 321.00 368.35 L 321.65 368.50 L 322.20 368.15 L 325.75 365.50 Q 329.25 363.20 333.55 361.40 Q 337.30 359.85 341.90 358.60 L 343.80 358.10 L 334.55 353.95 Q 332.00 352.85 331.00 349.90 L 329.80 346.35 L 328.50 342.80" fill="rgb(215,179,157)" stroke="#0f172a" stroke-width="1.2" /><path d="M 329.95 374.70 L 329.65 374.25 L 330.90 372.00 Q 331.65 370.70 332.40 370.10 Q 339.75 363.95 349.10 361.80 L 353.00 360.80 L 357.05 360.40 L 358.05 360.35 L 359.10 360.15 L 357.75 359.50 L 356.45 358.95 Q 355.40 358.40 354.15 358.35 L 351.80 358.55 L 345.50 360.15 L 338.25 362.40 L 331.00 364.90 Q 328.10 365.95 325.95 367.50 Q 323.45 369.25 321.80 371.70 L 319.10 370.05 L 316.40 368.40 L 312.25 365.65 L 308.25 362.65 L 304.90 359.90 Q 303.15 358.15 302.50 356.15 Q 301.95 357.15 301.90 357.85 L 302.10 361.05 L 302.25 362.25 L 302.65 363.30 Q 303.85 364.95 305.55 366.45 Q 313.20 373.15 321.50 376.60 L 326.10 378.20 L 330.95 378.95 Q 337.60 379.15 342.90 378.95 L 350.60 377.95 Q 354.00 377.20 358.10 375.60 L 365.30 372.50 L 365.50 372.35 L 365.60 372.05 L 365.45 369.10 Q 365.30 368.05 364.80 367.80 Q 364.25 367.60 363.40 368.25 Q 361.05 370.05 358.15 371.40 L 352.35 373.50 Q 348.10 374.70 343.00 375.05 Q 339.05 375.30 333.45 375.10 L 331.70 374.95 L 329.95 374.70" fill="rgb(55,47,41)" stroke="#0f172a" stroke-width="1.2" /><path d="M 319.70 249.30 L 318.70 247.90 Q 318.00 247.30 316.80 246.85 L 316.05 246.90 Q 314.05 247.75 312.55 248.00 Q 312.00 248.10 311.90 248.40 Q 311.80 248.70 312.00 249.20 L 312.45 249.85 L 312.50 249.90" fill="rgb(63,81,125)" stroke="#0f172a" stroke-width="1.2" /><path d="M 355.85 340.30 L 354.15 340.05 L 352.55 339.75 Q 351.30 339.40 350.65 338.45 Q 350.00 337.55 350.05 336.25 L 349.80 335.45 L 349.10 335.00 L 347.40 334.30 L 345.65 333.70 Q 344.00 333.25 343.70 331.45 Q 343.55 330.70 344.00 329.80 Q 344.50 328.85 345.20 328.55 Q 347.50 327.65 349.55 327.25 L 351.85 326.95 L 354.15 326.75 L 354.45 326.60 L 354.70 326.25 Q 356.50 321.35 361.95 319.25 Q 363.00 318.85 364.60 318.60 L 367.40 318.20 Q 369.70 317.85 371.55 319.10 L 372.30 319.35 L 373.10 319.35 Q 378.10 319.50 381.00 323.00 L 383.90 326.40 L 384.55 326.80 L 391.10 327.05 L 396.15 327.15 L 401.20 327.25 L 402.20 327.45 Q 402.70 327.65 402.80 328.25 Q 402.90 328.85 402.55 329.25 L 401.70 329.85 L 400.45 330.40 L 399.20 330.90 L 398.85 331.10 L 398.65 331.45 L 398.80 331.75 L 399.15 332.00 L 400.15 332.35 L 401.15 332.80 Q 402.30 333.45 403.00 334.30 Q 403.45 334.80 403.40 335.25 Q 403.30 335.70 402.70 336.00 L 401.30 336.60 L 399.90 336.90 L 385.20 337.75 L 370.45 338.60 L 368.10 339.00 L 365.75 339.45 L 360.80 339.90 L 355.85 340.30" fill="rgb(0,0,0)" stroke="#0f172a" stroke-width="1.2" /><path d="M 382.35 330.60 L 381.75 328.55 L 381.30 326.95 L 380.75 325.40 L 379.85 323.85 Q 379.20 323.15 378.35 322.90 L 375.20 322.40 Q 373.50 322.40 371.85 321.35 Q 370.70 320.65 369.75 320.60 Q 366.40 320.40 364.10 321.15 Q 361.25 322.05 359.45 324.45 L 357.35 327.20 L 356.80 328.10 Q 356.60 328.60 356.85 329.10 L 357.70 329.80 L 358.75 329.95 L 359.55 329.90 L 362.70 329.70 L 365.80 330.15 L 366.50 330.40 L 367.20 330.55 L 382.35 330.60" fill="rgb(188,77,36)" stroke="#0f172a" stroke-width="1.2" /><path d="M 385.45 328.35 L 385.50 330.00 L 385.45 331.50 L 385.10 332.40 Q 384.75 332.80 384.05 332.80 L 375.45 332.75 L 366.85 332.75 L 366.25 332.70 L 365.60 332.55 L 364.75 332.30 L 363.90 332.10 L 355.80 331.95 L 354.40 331.70 Q 354.05 331.45 353.75 330.50 L 353.55 329.60 L 353.20 329.00 L 352.40 328.90 L 351.45 329.00 L 351.15 329.00 L 348.60 329.35 Q 347.20 329.60 346.20 330.25 L 345.50 330.85 L 344.80 331.60 L 348.90 333.20 Q 350.35 333.80 351.05 334.65 Q 351.85 335.65 351.70 337.20 L 355.40 337.75 L 359.05 337.65 L 362.35 337.40 L 365.55 336.55 Q 366.75 336.10 368.75 336.00 L 370.95 336.05 L 373.20 336.10 L 382.90 335.60 L 392.65 335.00 L 400.55 334.55 L 400.15 334.30 L 399.70 334.15 L 397.75 333.65 L 395.90 332.95 L 395.05 332.20 Q 394.65 331.65 394.60 331.15 Q 394.55 330.60 395.15 330.35 L 396.25 330.00 L 397.70 329.55 L 400.35 328.70 L 400.30 328.45 L 392.85 328.05 L 385.45 328.35" fill="rgb(188,78,37)" stroke="#0f172a" stroke-width="1.2" /><path d="M 362.25 366.50 L 361.90 365.90 L 361.65 365.55 L 359.50 363.60 Q 358.15 362.75 356.75 362.90 Q 343.95 364.25 334.40 372.00 L 333.10 373.05 L 333.20 373.35 Q 341.55 373.45 348.15 372.00 Q 355.85 370.35 362.25 366.50" fill="rgb(215,179,157)" stroke="#0f172a" stroke-width="1.2" /><path d="M 405.30 379.35 L 403.80 379.35 L 402.30 379.40 Q 401.55 379.45 401.05 379.05 Q 400.55 378.70 400.30 378.05 Q 400.05 377.45 400.25 376.85 Q 400.45 376.25 401.05 375.80 Q 404.95 372.85 410.30 374.25 Q 412.15 374.75 413.20 375.40 L 413.90 376.20 L 414.20 377.15 L 413.70 377.90 L 412.80 378.45 L 409.45 379.25 L 406.00 379.30 L 405.30 379.30 L 405.30 379.35" fill="none" stroke="#0f172a" stroke-width="1.8" stroke-linecap="round" /><path d="M 402.15 377.75 Q 403.90 377.65 407.35 377.70 Q 410.30 377.55 412.35 376.50 Q 409.70 375.30 406.85 375.55 Q 403.75 375.80 402.15 377.75" fill="rgb(188,78,37)" stroke="#0f172a" stroke-width="1.2" /><path d="M 177.45 89.85 Q 178.50 89.85 179.45 90.65 Q 180.40 91.45 180.55 92.45 Q 179.70 92.75 178.60 91.85 Q 177.55 90.95 177.45 89.85" fill="rgb(153,153,153)" stroke="#0f172a" stroke-width="1.2" /><path d="M 163.35 92.50 Q 162.45 92.65 161.50 91.85 Q 160.55 91.05 160.45 90.05 Q 161.40 90.00 162.30 90.75 Q 163.20 91.50 163.35 92.50" fill="rgb(153,153,153)" stroke="#0f172a" stroke-width="1.2" /><path d="M 157.70 103.10 L 158.10 102.95 L 158.40 102.90 L 160.75 104.95 L 160.70 105.30 L 160.50 105.65 Q 159.90 105.80 158.80 104.80 Q 157.65 103.75 157.70 103.10" fill="rgb(153,153,153)" stroke="#0f172a" stroke-width="1.2" /><path d="M 155.70 104.90 Q 154.70 105.10 153.45 104.40 Q 152.15 103.65 151.85 102.70 L 152.00 102.30 L 152.25 102.05 Q 153.15 101.90 154.40 102.95 Q 155.60 103.95 155.70 104.90" fill="rgb(153,153,153)" stroke="#0f172a" stroke-width="1.2" /><path d="M 150.50 110.65 L 150.30 109.05 L 150.00 107.50 Q 149.80 106.55 149.05 105.95 Q 148.30 105.40 147.05 105.25 Q 146.15 105.10 145.35 105.55 Q 144.55 105.95 144.20 106.80 Q 142.95 109.80 142.55 111.50 Q 142.10 113.45 142.60 114.80 Q 143.15 116.15 144.75 117.15 Q 145.80 117.80 146.55 117.70 Q 147.30 117.60 148.20 116.75 Q 149.40 115.60 150.00 113.95 Q 150.45 112.60 150.50 110.65" fill="rgb(153,153,153)" stroke="#0f172a" stroke-width="1.2" /><path d="M 156.50 112.95 Q 155.60 113.05 154.70 112.30 Q 153.80 111.55 153.60 110.60 Q 154.45 110.40 155.40 111.20 Q 156.40 112.00 156.50 112.95" fill="rgb(153,153,153)" stroke="#0f172a" stroke-width="1.2" /><path d="M 158.80 109.20 Q 159.95 109.45 160.90 110.30 Q 161.80 111.15 161.85 112.10 Q 160.80 112.25 159.65 111.20 Q 158.55 110.15 158.80 109.20" fill="rgb(153,153,153)" stroke="#0f172a" stroke-width="1.2" /><path d="M 158.05 116.20 Q 158.90 116.20 160.15 117.35 Q 161.35 118.55 161.35 119.25 L 161.05 119.95 L 160.30 119.90 L 157.45 117.65 L 157.20 117.20 L 157.15 116.75 L 157.60 116.40 L 158.05 116.20" fill="rgb(153,153,153)" stroke="#0f172a" stroke-width="1.2" /><path d="M 176.20 101.70 Q 175.15 101.85 173.95 101.10 Q 172.70 100.40 172.35 99.50 Q 172.05 98.75 172.85 98.75 Q 173.75 98.75 174.85 99.75 Q 175.95 100.75 176.20 101.70" fill="rgb(153,153,153)" stroke="#0f172a" stroke-width="1.2" /><path d="M 168.70 104.65 Q 167.55 104.65 166.25 103.50 Q 164.95 102.35 164.90 101.30 Q 165.95 101.20 167.25 102.35 Q 168.55 103.50 168.70 104.65" fill="rgb(153,153,153)" stroke="#0f172a" stroke-width="1.2" /><path d="M 168.95 110.95 L 168.25 110.95 L 167.75 110.85 L 165.30 108.65 L 165.20 108.25 L 165.30 107.85 L 165.65 107.75 L 166.10 107.80 L 167.80 109.00 Q 168.60 109.80 168.95 110.95" fill="rgb(153,153,153)" stroke="#0f172a" stroke-width="1.2" /><path d="M 173.05 115.80 L 172.85 116.60 L 172.05 116.50 Q 170.15 115.50 169.60 113.90 Q 169.40 113.35 169.65 113.10 L 170.40 112.95 Q 171.20 113.00 172.15 114.00 Q 173.05 115.00 173.05 115.80" fill="rgb(153,153,153)" stroke="#0f172a" stroke-width="1.2" /><path d="M 167.10 117.55 Q 165.90 117.65 164.65 116.50 Q 163.40 115.40 163.35 114.15 Q 164.25 113.90 165.60 115.05 Q 166.90 116.25 167.10 117.55" fill="rgb(153,153,153)" stroke="#0f172a" stroke-width="1.2" /><path d="M 175.00 111.85 L 176.10 111.65 L 176.85 111.65 Q 178.10 112.50 179.00 113.80 Q 179.30 114.20 178.95 114.50 L 178.10 114.70 Q 177.05 114.45 176.30 113.75 Q 175.60 113.10 175.00 111.85" fill="rgb(153,153,153)" stroke="#0f172a" stroke-width="1.2" /><path d="M 171.15 106.35 Q 172.30 106.20 173.55 107.35 Q 174.85 108.45 174.85 109.55 Q 173.80 109.75 172.50 108.60 Q 171.15 107.45 171.15 106.35" fill="rgb(153,153,153)" stroke="#0f172a" stroke-width="1.2" /><path d="M 112.45 99.60 L 112.35 99.85 L 113.30 100.25 L 114.20 100.60 L 117.45 101.55 Q 119.10 102.30 120.15 103.60 L 122.75 107.35 Q 123.95 109.40 124.60 111.50 L 125.80 116.30 Q 126.25 118.85 126.20 121.20 Q 126.15 124.05 125.60 126.15 Q 124.95 128.65 123.40 130.60 Q 123.05 131.00 122.80 131.85 L 122.30 133.40 L 123.50 133.10 L 124.45 132.85 L 125.10 132.55 L 125.30 131.85 Q 125.30 129.85 125.55 128.65 Q 127.25 120.30 134.30 114.90 L 136.75 113.20 L 139.20 111.45 Q 139.70 111.10 140.00 110.25 L 140.85 107.90 L 141.75 105.55 L 142.35 104.60 L 143.20 103.85 Q 143.90 103.50 143.95 103.00 Q 144.05 102.65 143.75 101.95 Q 142.80 99.30 140.60 97.55 Q 138.80 96.10 135.85 95.05 L 134.70 94.80 L 133.55 94.90 L 126.80 96.35 L 120.10 97.85 L 112.45 99.60" fill="rgb(127,78,65)" stroke="#0f172a" stroke-width="1.2" /><path d="M 82.90 122.00 L 82.90 123.80 Q 83.30 132.25 90.40 135.85 Q 93.30 137.35 96.10 137.70 Q 99.05 138.05 102.05 137.10 L 108.20 135.20 L 114.40 133.40 Q 118.05 132.25 120.35 129.70 Q 122.60 127.20 123.40 123.50 Q 124.30 119.30 123.55 115.20 Q 122.75 111.25 120.45 107.50 Q 119.40 105.85 117.60 104.60 L 115.85 103.60 L 113.95 102.85 Q 110.55 101.60 107.35 102.40 L 101.20 104.10 L 95.05 105.75 Q 91.40 106.60 88.95 108.45 Q 86.30 110.45 84.90 113.75 L 83.40 117.75 Q 82.70 120.05 82.90 122.00" fill="rgb(127,78,65)" stroke="#0f172a" stroke-width="1.2" /><path d="M 117.85 141.40 L 122.75 141.70 L 127.50 141.95 L 129.35 142.00 L 131.15 141.80 L 135.40 140.50 L 139.65 139.15 L 140.80 138.25 Q 141.10 137.75 141.00 136.80 L 140.40 126.35 Q 140.30 124.65 140.95 122.95 L 142.10 120.35 L 143.35 117.85 L 140.05 113.90 L 139.35 114.35 Q 133.70 118.50 130.40 124.15 Q 129.50 125.65 129.05 127.25 Q 127.95 131.15 128.40 135.95 L 128.50 137.60 L 128.55 139.35 L 125.65 139.35 L 125.35 137.10 L 121.60 138.00 Q 119.45 138.35 117.85 137.15 L 117.85 141.40" fill="rgb(153,153,153)" stroke="#0f172a" stroke-width="1.2" /><path d="M 147.25 119.95 Q 146.75 119.55 146.40 119.65 L 145.80 120.20 L 144.90 121.50 L 144.00 122.85 Q 143.30 123.80 143.30 125.15 L 143.60 127.55 Q 144.15 127.25 145.50 124.40 Q 146.85 121.60 147.25 119.95" fill="rgb(128,80,67)" stroke="#0f172a" stroke-width="1.2" /><path d="M 131.70 176.25 Q 134.05 176.95 135.90 178.00 L 136.80 178.20 L 137.60 177.90 L 143.05 174.60 L 139.10 143.20 L 132.90 145.10 L 126.40 145.55 L 130.60 175.95 L 131.70 176.25" fill="rgb(153,153,153)" stroke="#0f172a" stroke-width="1.2" /><path d="M 151.85 118.15 L 153.05 118.75 L 154.00 119.40 L 155.65 121.20 L 155.65 121.60 L 155.40 121.95 Q 154.35 122.10 153.10 120.80 Q 151.85 119.45 151.85 118.15" fill="rgb(153,153,153)" stroke="#0f172a" stroke-width="1.2" /><path d="M 124.90 166.75 L 122.35 168.65 Q 117.35 173.05 115.95 178.95 Q 115.25 181.85 116.10 185.20 Q 116.70 187.55 118.90 188.80 Q 123.35 191.50 128.00 191.80 L 133.80 191.90 Q 133.00 190.50 133.10 188.65 L 133.45 185.45 Q 133.75 182.25 135.90 179.45 L 132.45 178.20 Q 130.55 177.60 128.85 177.50 Q 127.85 177.45 126.95 176.85 Q 126.05 176.20 125.70 175.25 L 126.55 175.20 L 126.90 175.20 L 126.80 174.80 L 125.60 166.25 L 124.90 166.75" fill="rgb(215,179,157)" stroke="#0f172a" stroke-width="1.2" /><path d="M 118.50 192.10 Q 118.10 193.70 118.30 195.05 Q 118.45 196.45 119.30 197.70 Q 121.15 200.65 124.45 201.90 Q 129.05 203.70 134.30 203.90 L 139.75 203.60 L 143.00 202.80 L 145.65 201.90 Q 147.05 201.25 147.80 200.15 Q 149.35 197.85 148.85 194.45 L 146.75 194.90 L 144.70 195.25 L 141.35 195.50 Q 139.55 195.45 138.10 194.80 Q 136.80 194.25 135.90 194.25 L 133.40 194.45 L 130.90 194.65 Q 124.80 195.10 120.10 192.85 L 118.50 192.10" fill="rgb(215,179,157)" stroke="#0f172a" stroke-width="1.2" /><path d="M 122.85 204.50 L 122.95 205.40 L 123.15 206.25 Q 124.10 209.15 126.35 210.90 Q 128.40 212.50 131.55 213.20 Q 135.95 214.15 141.25 213.10 Q 143.35 212.70 144.85 211.90 Q 146.85 210.75 147.25 208.35 L 147.25 208.10 L 147.00 205.80 L 145.85 204.40 L 145.50 204.60 L 145.05 204.75 L 141.70 205.90 L 138.30 206.65 L 133.60 206.55 L 128.85 205.95 L 125.90 205.35 L 122.85 204.50" fill="rgb(215,179,157)" stroke="#0f172a" stroke-width="1.2" /><path d="M 147.85 214.25 Q 147.40 215.30 146.25 215.55 Q 140.95 216.75 136.45 216.35 L 136.45 216.60 L 137.90 228.55 L 138.35 231.75 L 139.15 230.75 L 143.30 225.25 L 147.55 219.80 Q 148.10 219.05 148.30 218.20 L 148.30 216.50 L 148.00 213.95 L 147.85 214.25" fill="rgb(153,153,153)" stroke="#0f172a" stroke-width="1.2" /><path d="M 149.20 223.25 L 148.40 224.10 L 142.40 231.85 L 141.05 233.75 L 139.65 235.65 Q 139.25 236.05 139.10 236.55 L 139.10 237.50 L 144.90 279.40 L 148.45 304.70 L 152.00 330.55 Q 152.15 331.60 152.40 331.80 L 153.70 332.00 Q 158.25 332.15 162.65 330.40 L 149.20 223.25" fill="rgb(127,78,65)" stroke="#0f172a" stroke-width="1.2" /><path d="M 140.05 347.95 L 140.75 351.90 L 140.85 352.60 Q 140.90 354.00 140.40 354.65 Q 139.90 355.25 138.55 355.55 L 130.20 357.30 Q 125.20 358.30 119.80 357.55 L 105.05 355.55 L 101.15 355.35 L 97.30 355.20 Q 93.90 355.00 90.90 352.80 L 89.95 351.95 Q 89.00 350.75 89.85 349.75 L 90.15 349.35 L 90.40 348.85 L 89.60 348.80 L 85.45 348.65 L 81.25 348.60 L 79.75 348.85 L 78.25 349.30 L 78.30 349.70 L 79.35 350.10 L 80.20 350.35 L 80.90 350.75 Q 81.70 351.75 81.90 352.90 L 81.35 353.35 L 80.35 353.80 L 78.10 354.30 L 75.85 354.75 Q 74.90 355.00 74.75 355.70 Q 74.55 356.40 75.30 357.05 L 76.65 357.75 L 84.80 358.75 L 89.65 359.20 L 111.30 360.75 L 113.25 360.55 L 115.15 359.90 Q 116.20 359.40 116.90 359.50 L 120.25 359.90 L 123.60 360.35 L 127.45 360.45 L 135.75 359.80 L 140.00 359.40 L 142.65 358.80 L 143.35 352.50 L 143.85 347.95 L 140.05 347.95" fill="rgb(188,77,36)" stroke="#0f172a" stroke-width="1.2" /><path d="M 110.80 337.20 Q 108.85 338.25 106.55 340.15 L 105.40 340.85 L 104.15 341.05 Q 102.80 340.95 101.55 341.50 Q 100.50 341.95 99.35 342.90 Q 97.50 344.50 95.85 346.70 Q 94.60 348.40 93.10 351.05 Q 92.70 351.75 92.80 352.05 Q 92.90 352.30 93.70 352.45 L 98.70 352.95 L 101.95 353.10 L 105.25 353.35 L 116.65 354.90 Q 124.60 356.35 131.70 354.15 L 134.05 353.55 L 136.50 353.15 L 138.20 352.80 L 138.95 352.40 L 139.05 351.55 L 138.85 349.95 L 138.85 349.75 Q 138.10 346.40 137.55 345.05 Q 136.55 342.55 134.65 341.15 Q 130.65 338.20 127.60 336.50 Q 125.30 335.20 122.85 334.65 L 122.25 335.05 L 122.30 335.40 L 124.85 336.20 L 127.55 337.10 Q 129.10 337.65 130.00 338.30 L 132.95 340.55 Q 134.55 341.95 135.35 343.40 L 136.20 344.65 L 137.20 346.00 L 135.50 345.50 L 134.25 344.55 Q 131.05 341.25 127.35 340.15 L 124.95 339.25 L 122.40 338.90 L 120.60 339.10 L 118.75 339.25 L 118.15 339.70 Q 115.95 342.05 114.75 344.50 Q 113.35 347.25 113.15 350.20 L 113.00 350.60 L 112.80 350.95 L 112.50 350.60 L 112.30 350.20 L 111.10 343.35 Q 111.05 343.10 111.15 342.80 L 111.40 342.30 L 114.95 337.40 L 115.80 336.30 L 113.65 335.90 Q 112.20 336.40 110.80 337.20" fill="rgb(188,77,36)" stroke="#0f172a" stroke-width="1.2" /><path d="M 87.15 365.70 Q 91.05 365.85 93.60 366.65 Q 96.55 367.55 98.65 369.55 L 99.30 370.45 L 99.85 371.50 L 98.85 372.00 L 97.90 372.40 L 96.15 372.65 L 94.45 372.70 L 87.65 372.15 L 80.90 371.55 Q 79.15 371.35 78.45 369.80 Q 77.95 368.65 78.95 368.20 L 80.60 367.45 L 82.25 366.85 L 85.05 366.20 L 87.15 365.70" fill="none" stroke="#0f172a" stroke-width="1.8" stroke-linecap="round" /><path d="M 96.40 370.10 Q 94.10 368.35 89.80 368.15 Q 85.45 368.00 82.85 369.60 L 84.40 369.75 L 94.40 370.75 L 95.50 370.80 L 96.40 370.10" fill="rgb(188,78,37)" stroke="#0f172a" stroke-width="1.2" />
  </g>
</svg>