<svg xmlns="http://www.w3.org/2000/svg" viewBox="162.65 83.75 234 233" width="100%" height="100%">
  <g>
    <path d="M 341.90 86.05 Q 349.85 89.15 351.80 90.15 Q 359.25 93.80 358.70 96.60 L 358.70 96.70 Q 353.85 97.35 345.00 100.15 Q 335.75 103.10 331.25 103.80 L 312.40 105.25 L 316.75 101.55 Q 319.30 99.25 320.15 97.50 L 325.30 86.95 Q 329.20 88.00 333.65 87.00 L 338.30 86.00 Q 340.70 85.55 341.90 86.05" fill="rgb(255,255,255)" stroke="#0f172a" stroke-width="1.2" /><path d="M 329.50 89.45 L 329.35 89.40 Q 327.80 90.95 327.25 91.00 L 324.40 91.15 Q 324.25 91.15 324.25 91.50 L 324.30 91.90 L 324.55 93.90 L 322.95 96.35 Q 322.85 96.50 322.90 97.00 Q 322.90 97.55 323.10 97.50 L 326.85 96.60 Q 327.25 96.50 327.90 97.50 L 328.80 99.05 L 329.00 99.00 L 330.35 95.20 Q 330.50 94.80 331.70 94.35 L 333.50 93.75 L 333.65 93.25 Q 333.65 92.65 333.45 92.60 L 333.45 92.55 L 330.50 91.40 L 329.95 91.15 L 329.60 89.65 L 329.50 89.45" fill="rgb(255,255,255)" stroke="#0f172a" stroke-width="1.2" /><path d="M 329.55 91.50 Q 329.70 92.25 330.05 92.40 L 331.90 93.15 L 330.65 93.65 Q 330.20 93.80 330.00 94.30 L 329.70 95.25 L 329.15 96.70 Q 328.75 97.75 328.85 97.95 L 327.15 95.40 L 327.10 95.35 L 324.20 96.05 L 324.95 94.80 Q 325.20 94.20 324.75 92.30 L 327.40 92.15 L 327.90 91.85 L 328.35 91.45 L 329.10 90.95 L 329.35 90.35 L 329.55 91.50" fill="rgb(255,255,255)" stroke="#0f172a" stroke-width="1.2" /><path d="M 367.90 98.95 Q 371.45 100.90 374.40 105.25 Q 376.90 108.85 378.60 113.45 Q 381.20 120.45 375.30 128.35 Q 369.95 135.45 362.40 138.05 Q 360.70 128.50 350.50 122.30 Q 346.30 119.80 331.40 114.15 Q 324.85 111.65 321.30 111.15 Q 315.25 110.25 311.30 113.05 Q 309.80 114.15 308.55 115.70 L 308.35 115.90 L 308.25 116.05 Q 304.85 120.25 303.40 126.00 L 297.30 120.35 Q 294.05 117.00 292.40 113.70 Q 289.55 108.15 290.25 103.70 Q 290.85 100.35 293.65 101.85 Q 296.20 103.15 297.00 105.55 L 297.75 106.00 Q 324.10 108.60 349.90 100.30 Q 356.45 98.25 358.95 97.85 Q 364.40 97.00 367.90 98.95" fill="rgb(255,255,255)" stroke="#0f172a" stroke-width="1.2" /><path d="M 347.00 122.40 Q 347.60 133.60 342.15 144.35 Q 336.35 155.85 326.65 160.45 Q 321.50 162.85 316.15 159.30 Q 311.85 156.45 308.80 150.95 Q 305.85 145.65 305.35 138.65 Q 304.90 132.60 306.30 125.80 Q 307.50 121.80 309.50 117.55 L 310.75 115.85 Q 312.05 114.30 313.75 113.35 Q 316.05 114.00 317.35 115.90 Q 318.65 117.75 318.55 120.15 Q 318.10 118.95 316.65 118.35 Q 314.85 117.55 313.00 118.65 L 311.55 119.90 Q 315.75 118.85 318.35 121.80 Q 317.85 123.75 314.00 125.25 Q 310.30 126.65 310.00 128.75 Q 309.75 130.70 312.75 132.90 Q 315.25 134.80 317.50 135.30 Q 322.65 136.70 327.25 133.25 Q 328.00 132.70 327.20 132.70 Q 326.40 132.75 325.95 133.05 Q 323.75 134.70 321.05 134.60 Q 318.50 134.50 316.10 132.95 Q 312.55 130.60 312.10 128.80 Q 311.75 127.20 315.30 125.70 Q 319.30 124.00 319.80 122.75 Q 321.05 119.60 320.00 116.70 Q 318.90 113.70 315.95 112.55 Q 319.85 111.65 325.80 113.50 L 335.00 117.15 L 341.05 119.60 L 347.00 122.30 L 347.00 122.40" fill="rgb(255,255,255)" stroke="#0f172a" stroke-width="1.2" /><path d="M 333.20 118.95 Q 335.25 119.65 336.75 120.60 Q 333.05 115.75 329.00 116.65 Q 327.70 116.90 326.55 117.75 L 325.65 118.50 Q 329.15 117.60 333.20 118.95" fill="rgb(255,255,255)" stroke="#0f172a" stroke-width="1.2" /><path d="M 326.60 122.45 L 325.95 123.85 Q 329.25 123.75 332.60 124.90 L 335.50 126.10 L 333.95 124.15 Q 332.05 122.25 329.90 121.70 Q 327.70 121.15 326.60 122.45" fill="rgb(255,255,255)" stroke="#0f172a" stroke-width="1.2" /><path d="M 331.85 141.05 L 331.10 142.35 L 329.15 142.75 L 324.85 142.95 Q 320.45 143.10 320.00 142.90 L 312.95 140.95 L 313.95 140.35 Q 315.20 139.75 316.15 139.80 L 321.65 140.80 L 326.05 142.00 L 326.55 141.95 L 326.55 141.75 L 324.90 141.00 Q 323.15 140.10 320.05 139.35 L 315.60 138.60 Q 314.60 138.60 313.10 139.55 Q 312.25 140.20 311.45 138.90 Q 310.80 137.85 309.65 138.70 Q 308.35 139.70 310.00 140.80 Q 310.30 141.00 309.60 143.10 L 308.75 145.65 Q 308.55 147.00 309.65 148.55 Q 310.75 150.10 312.45 150.85 Q 321.45 154.85 326.25 150.45 Q 326.50 150.25 325.85 150.05 Q 325.20 149.85 325.00 150.05 Q 322.65 152.25 318.75 152.10 Q 314.95 152.00 311.90 149.80 Q 310.20 148.60 310.10 146.75 Q 310.00 144.85 311.85 144.05 Q 312.50 145.45 313.35 146.30 Q 314.75 147.70 317.70 148.45 L 322.65 148.95 Q 324.35 148.80 328.20 145.95 L 331.65 143.10 L 333.30 142.95 Q 334.75 142.50 333.75 141.30 Q 332.75 140.05 331.85 141.05" fill="rgb(255,255,255)" stroke="#0f172a" stroke-width="1.2" /><path d="M 327.10 145.55 Q 324.25 147.25 323.30 147.35 Q 322.45 147.45 316.05 145.55 Q 315.55 145.45 315.15 145.15 L 314.85 144.85 L 314.65 142.15 L 317.50 142.95 L 322.50 143.75 L 329.35 143.40 Q 330.00 143.80 327.10 145.55" fill="rgb(255,255,255)" stroke="#0f172a" stroke-width="1.2" /><path d="M 353.55 146.75 Q 357.55 140.00 358.00 131.65 Q 360.05 135.20 360.60 139.05 Q 360.35 145.50 355.50 151.60 Q 351.45 156.65 344.85 160.80 Q 343.15 160.40 341.40 160.80 L 346.20 157.10 L 348.50 154.70 Q 348.90 154.10 348.50 152.55 Q 348.10 150.95 347.85 151.25 Q 346.40 153.40 343.40 155.65 L 338.10 159.15 L 336.95 159.80 L 340.80 156.05 Q 346.50 150.45 349.75 142.35 Q 352.85 134.60 353.10 126.20 Q 355.30 128.00 356.85 130.05 Q 356.75 133.40 355.60 137.05 Q 354.55 140.60 352.70 143.70 Q 352.40 144.30 352.75 145.85 Q 353.15 147.45 353.55 146.75" fill="rgb(255,255,255)" stroke="#0f172a" stroke-width="1.2" /><path d="M 347.55 142.35 Q 345.10 147.65 340.75 152.10 L 336.70 156.05 Q 335.40 157.25 334.35 158.70 Q 333.60 159.60 333.45 160.80 Q 333.30 161.95 333.75 163.05 Q 334.20 164.20 335.50 164.00 Q 332.60 166.85 331.65 171.95 Q 328.50 175.00 325.25 175.90 Q 321.25 176.95 318.50 174.05 Q 318.25 171.35 317.65 169.10 Q 321.40 170.20 324.10 169.65 Q 327.50 168.90 328.40 165.50 Q 328.55 164.75 327.10 165.00 Q 318.10 166.50 311.90 160.35 Q 306.55 155.05 304.75 145.95 Q 306.00 150.10 308.15 153.60 Q 310.80 157.85 314.75 160.35 Q 319.25 163.20 323.75 162.70 Q 329.75 162.00 336.10 155.40 L 340.25 150.40 Q 344.60 144.60 346.90 137.65 Q 349.20 130.60 349.00 123.45 L 351.90 125.30 Q 351.70 133.20 347.55 142.35" fill="rgb(255,255,255)" stroke="#0f172a" stroke-width="1.2" /><path d="M 358.20 160.55 Q 358.20 164.65 358.60 166.50 Q 359.15 169.10 361.00 171.50 Q 356.70 171.60 353.30 168.00 Q 348.10 162.40 347.00 161.70 L 346.50 161.45 Q 353.10 157.20 357.25 152.10 Q 358.20 155.05 358.20 160.55" fill="rgb(255,255,255)" stroke="#0f172a" stroke-width="1.2" /><path d="M 350.75 168.50 Q 355.20 173.35 362.35 172.40 Q 363.90 172.10 363.40 171.55 Q 360.75 168.40 360.30 163.90 L 359.95 155.35 Q 363.15 156.60 366.30 160.15 Q 368.20 162.30 371.05 166.55 Q 379.25 178.85 375.10 181.25 Q 374.75 181.50 375.00 182.35 Q 375.20 183.10 375.50 183.45 Q 375.25 183.20 375.40 183.65 L 375.65 184.35 L 376.85 191.20 L 377.25 194.10 L 377.80 196.95 Q 372.00 195.50 366.55 197.35 Q 361.00 199.25 357.25 204.10 L 356.25 201.95 Q 355.80 197.25 357.20 192.45 Q 358.60 187.70 361.45 183.85 Q 361.75 183.45 360.85 183.55 Q 359.95 183.65 359.70 183.95 Q 356.70 187.90 355.30 192.70 Q 353.85 197.55 354.30 202.40 Q 350.30 206.00 344.40 207.75 Q 339.10 209.25 332.95 209.15 Q 331.85 195.45 332.60 181.40 Q 332.95 175.25 333.20 173.45 Q 333.90 169.05 335.75 165.95 Q 337.55 163.00 340.60 162.10 Q 343.90 161.15 346.40 163.45 L 348.60 165.90 L 350.75 168.50" fill="rgb(255,255,255)" stroke="#0f172a" stroke-width="1.2" /><path d="M 331.35 173.70 L 331.10 175.90 Q 329.60 191.65 330.95 209.10 L 324.90 208.35 Q 324.60 204.25 321.85 203.15 L 317.25 201.80 L 318.50 180.70 L 318.55 175.10 Q 321.20 177.95 325.05 177.15 Q 328.20 176.50 331.35 173.70" fill="rgb(255,255,255)" stroke="#0f172a" stroke-width="1.2" /><path d="M 388.00 218.85 L 384.60 218.10 Q 382.40 217.55 381.50 218.35 Q 378.70 220.85 376.00 220.55 Q 375.75 220.50 375.95 221.65 Q 376.15 222.80 376.65 222.85 Q 378.20 223.10 379.85 222.25 Q 381.00 221.65 382.55 220.30 Q 382.85 220.00 383.95 220.30 L 385.45 220.70 L 386.25 220.85 L 390.10 224.20 L 393.80 227.75 Q 396.65 230.45 397.20 232.75 Q 397.45 233.90 397.30 235.10 Q 396.95 237.70 394.15 238.30 Q 392.40 238.65 390.85 235.85 Q 389.40 232.50 388.70 231.60 Q 386.10 228.15 383.05 227.75 Q 382.75 227.70 383.00 228.75 Q 383.25 229.75 383.45 229.95 L 387.55 233.70 L 389.40 235.75 Q 390.30 237.05 390.30 238.25 Q 390.35 241.00 388.35 243.70 Q 387.60 244.70 386.50 245.10 L 384.15 245.15 Q 383.30 244.80 383.05 243.55 Q 382.70 242.20 383.25 238.55 Q 383.65 234.60 381.90 232.65 L 380.50 231.55 Q 379.30 230.95 379.10 231.80 Q 378.85 232.80 379.35 234.55 L 380.20 237.20 Q 381.00 240.25 379.40 242.95 Q 377.65 245.90 374.45 245.05 Q 372.10 244.35 373.55 241.65 L 376.25 237.55 Q 377.35 235.20 374.85 232.20 L 370.60 228.00 Q 368.85 226.25 368.20 224.55 Q 367.45 222.60 367.90 220.30 Q 368.25 218.45 369.35 216.30 Q 370.50 214.00 373.30 213.25 Q 375.85 212.60 378.25 213.55 Q 381.05 214.75 382.55 214.85 Q 384.60 215.00 386.65 213.65 Q 387.95 212.80 389.90 212.65 Q 391.80 212.50 393.20 213.15 L 393.60 213.70 Q 393.75 214.40 393.00 215.85 L 391.80 217.55 Q 390.70 218.85 388.00 218.85" fill="rgb(255,255,255)" stroke="#0f172a" stroke-width="1.2" /><path d="M 378.50 198.65 L 378.60 198.65 L 380.40 199.35 L 380.55 201.00 L 380.75 212.50 L 376.90 211.10 L 372.75 210.90 Q 369.35 211.85 367.85 215.60 Q 367.00 217.95 366.85 220.00 Q 362.80 218.25 360.25 214.50 Q 359.90 214.00 359.15 214.30 Q 359.50 210.40 357.75 205.55 L 358.40 205.20 Q 361.90 200.40 367.25 198.55 Q 372.70 196.70 378.25 198.55 L 378.50 198.65" fill="rgb(255,255,255)" stroke="#0f172a" stroke-width="1.2" /><path d="M 356.90 205.45 Q 359.65 212.60 356.55 217.50 L 355.15 219.00 L 353.50 220.25 Q 345.85 225.95 334.85 226.75 L 334.00 226.80 L 325.25 226.55 L 325.15 223.85 L 325.05 221.65 L 325.00 210.60 Q 333.60 212.30 341.50 210.85 Q 350.70 209.20 356.10 203.60 L 356.70 204.90 Q 356.55 205.30 356.90 205.45" fill="rgb(255,255,255)" stroke="#0f172a" stroke-width="1.2" /><path d="M 356.80 209.05 L 356.85 213.70 L 355.75 214.75 Q 354.95 215.30 354.95 216.00 L 354.90 212.40 Q 354.90 209.65 355.30 207.95 L 355.75 206.40 Q 356.15 205.65 356.50 206.90 L 356.80 209.05" fill="rgb(255,255,255)" stroke="#0f172a" stroke-width="1.2" /><path d="M 356.45 205.20 Q 355.55 203.35 354.85 205.65 Q 354.35 207.30 354.25 209.50 L 354.20 213.30 L 354.20 214.70 L 354.50 216.00 Q 355.00 217.05 356.10 216.60 Q 357.15 216.15 357.50 215.15 L 357.55 214.95 L 357.60 211.70 L 357.40 208.50 Q 357.15 206.60 356.45 205.20" fill="rgb(255,255,255)" stroke="#0f172a" stroke-width="1.2" /><path d="M 351.10 208.80 Q 350.50 210.50 350.40 212.80 L 350.40 216.85 Q 350.40 218.65 350.75 219.40 Q 351.20 220.35 352.45 219.65 Q 353.55 219.05 353.95 218.20 L 354.00 217.95 L 354.05 214.70 L 353.85 211.50 Q 353.60 209.60 352.85 208.25 Q 351.90 206.45 351.10 208.80" fill="rgb(255,255,255)" stroke="#0f172a" stroke-width="1.2" /><path d="M 351.40 211.50 Q 352.25 207.65 352.95 209.95 L 353.25 212.05 L 353.30 216.70 Q 352.95 217.60 351.40 218.10 L 351.10 218.85 L 351.10 216.00 Q 351.10 213.05 351.40 211.50" fill="rgb(255,255,255)" stroke="#0f172a" stroke-width="1.2" /><path d="M 344.90 215.90 L 344.95 220.55 Q 344.50 221.65 342.50 221.35 L 342.45 218.65 Q 342.45 216.20 342.95 214.30 Q 343.25 213.05 343.70 212.75 Q 344.20 212.45 344.60 213.90 L 344.90 215.90" fill="rgb(255,255,255)" stroke="#0f172a" stroke-width="1.2" /><path d="M 346.20 214.70 L 346.25 218.75 Q 346.25 220.55 346.60 221.30 Q 347.05 222.25 348.30 221.65 Q 349.45 221.05 349.85 220.15 L 349.90 219.95 L 349.95 216.70 L 349.75 213.50 Q 349.50 211.60 348.70 210.20 Q 347.70 208.35 346.90 210.70 Q 346.30 212.40 346.20 214.70" fill="rgb(255,255,255)" stroke="#0f172a" stroke-width="1.2" /><path d="M 344.40 211.80 Q 343.30 209.80 342.50 212.05 Q 341.90 213.80 341.80 215.95 L 341.75 219.95 Q 341.85 221.90 342.15 222.55 Q 342.60 223.45 343.90 223.20 Q 345.15 222.90 345.60 222.00 L 345.65 221.80 L 345.65 221.70 L 345.70 218.40 L 345.50 215.10 Q 345.10 213.15 344.40 211.80" fill="rgb(255,255,255)" stroke="#0f172a" stroke-width="1.2" /><path d="M 348.85 211.95 L 349.15 214.05 L 349.20 218.70 Q 348.90 219.55 347.25 220.00 Q 346.95 220.10 346.95 220.65 L 346.90 217.85 Q 346.90 214.95 347.25 213.40 Q 348.10 209.55 348.85 211.95" fill="rgb(255,255,255)" stroke="#0f172a" stroke-width="1.2" /><path d="M 357.45 219.40 Q 358.65 226.05 361.35 233.90 Q 363.20 239.30 366.70 247.95 L 371.10 258.20 L 371.50 259.25 L 368.55 260.90 Q 360.20 265.15 350.50 265.45 Q 343.25 265.45 343.05 264.75 L 342.35 261.80 Q 338.95 247.95 335.60 229.05 Q 347.80 228.05 355.85 221.20 L 357.45 219.40" fill="rgb(255,255,255)" stroke="#0f172a" stroke-width="1.2" /><path d="M 324.10 208.90 Q 324.10 209.55 324.35 210.10 L 324.35 221.55 L 324.40 225.65 Q 324.15 228.10 322.65 229.00 L 318.95 228.80 L 315.15 227.60 Q 313.35 227.15 313.05 224.60 L 313.00 220.55 L 313.00 210.85 L 312.95 206.80 Q 313.15 204.35 314.65 203.45 L 318.35 203.65 L 322.15 204.85 Q 324.10 205.70 324.30 208.25 Q 324.05 208.20 324.10 208.90" fill="rgb(255,255,255)" stroke="#0f172a" stroke-width="1.2" /><path d="M 330.70 216.15 L 331.00 218.15 L 331.00 222.80 Q 330.75 223.40 329.95 223.60 L 328.60 223.60 L 328.55 220.95 Q 328.55 218.25 329.00 216.55 Q 329.35 215.30 329.80 215.05 Q 330.30 214.70 330.70 216.15" fill="rgb(255,255,255)" stroke="#0f172a" stroke-width="1.2" /><path d="M 327.85 222.25 Q 327.85 223.95 328.25 224.80 Q 328.70 225.70 330.00 225.45 Q 331.25 225.15 331.65 224.30 L 331.75 224.05 L 331.75 224.00 L 331.80 220.65 L 331.55 217.35 Q 331.25 215.55 330.45 214.05 Q 329.35 212.05 328.60 214.35 Q 328.00 216.10 327.90 218.25 L 327.85 222.25" fill="rgb(255,255,255)" stroke="#0f172a" stroke-width="1.2" /><path d="M 332.40 221.80 Q 332.40 223.60 332.75 224.35 Q 333.20 225.30 334.50 225.00 Q 335.75 224.75 336.20 223.85 L 336.25 223.60 L 336.25 223.55 L 336.35 220.25 L 336.10 216.95 Q 335.70 215.00 335.00 213.65 Q 333.90 211.70 333.10 213.95 Q 332.50 215.65 332.40 217.80 L 332.40 221.80" fill="rgb(255,255,255)" stroke="#0f172a" stroke-width="1.2" /><path d="M 333.55 216.15 Q 333.85 214.90 334.30 214.65 Q 334.80 214.30 335.25 215.75 L 335.50 217.75 L 335.55 222.40 Q 335.10 223.45 333.10 223.20 L 333.10 220.50 Q 333.00 218.15 333.55 216.15" fill="rgb(255,255,255)" stroke="#0f172a" stroke-width="1.2" /><path d="M 339.70 212.95 Q 338.65 210.95 337.85 213.20 Q 337.25 214.95 337.15 217.10 L 337.10 221.10 Q 337.10 222.80 337.50 223.65 Q 337.95 224.60 339.25 224.30 Q 340.50 224.05 340.90 223.15 L 341.00 222.90 L 341.00 222.85 L 341.05 219.55 L 340.80 216.25 Q 340.50 214.45 339.70 212.95" fill="rgb(255,255,255)" stroke="#0f172a" stroke-width="1.2" /><path d="M 339.05 213.90 Q 339.55 213.60 339.95 215.05 L 340.25 217.05 L 340.30 221.70 Q 339.80 222.80 337.85 222.50 L 337.80 219.80 Q 337.80 217.15 338.25 215.45 Q 338.60 214.20 339.05 213.90" fill="rgb(255,255,255)" stroke="#0f172a" stroke-width="1.2" /><path d="M 325.05 228.75 L 333.60 229.15 Q 337.45 251.10 341.20 265.55 L 341.80 266.00 Q 350.70 267.75 359.75 265.60 L 360.40 269.90 Q 360.35 274.35 351.25 274.50 Q 342.25 274.65 339.90 271.00 L 339.70 270.10 L 336.00 261.60 L 333.40 256.05 Q 331.75 252.60 330.15 250.25 L 330.10 250.10 Q 327.05 245.65 323.85 244.05 L 322.55 244.25 Q 321.75 244.75 322.35 245.05 Q 325.25 246.55 328.00 250.85 Q 323.60 258.00 324.20 266.00 Q 323.10 271.05 313.95 271.50 Q 305.00 271.90 301.65 267.80 L 302.30 261.90 L 307.60 263.90 L 308.60 263.85 L 309.35 263.35 Q 312.50 249.15 314.75 228.95 L 315.50 229.30 Q 317.95 230.35 320.05 230.65 Q 323.05 231.10 324.30 229.80 L 324.90 228.70 L 325.05 228.75" fill="rgb(255,255,255)" stroke="#0f172a" stroke-width="1.2" /><path d="M 337.60 282.75 L 339.55 273.50 Q 343.60 276.65 354.65 274.95 Q 356.75 274.60 358.60 273.80 Q 361.10 272.75 361.95 271.20 Q 363.70 272.75 365.15 275.60 L 367.35 280.60 L 368.10 282.90 L 365.85 284.25 Q 359.45 287.35 352.40 287.25 Q 348.15 287.20 343.50 285.50 L 343.15 285.00 L 342.95 285.30 Q 340.00 284.15 337.60 282.75" fill="rgb(255,255,255)" stroke="#0f172a" stroke-width="1.2" /><path d="M 328.65 284.30 L 324.25 284.95 Q 324.00 284.65 323.95 285.00 L 318.20 285.60 Q 312.70 286.00 308.00 285.80 L 303.05 285.40 Q 299.35 284.80 298.90 283.60 Q 297.75 280.65 297.65 275.45 L 297.80 269.55 L 300.20 268.85 Q 302.45 271.00 307.50 271.70 Q 311.30 272.25 315.30 271.85 Q 324.00 271.00 325.80 266.55 Q 327.85 267.45 328.45 274.90 L 328.65 284.30" fill="rgb(255,255,255)" stroke="#0f172a" stroke-width="1.2" /><path d="M 346.20 293.20 L 344.05 287.10 Q 353.25 289.55 362.85 286.45 L 362.85 286.85 L 364.60 299.20 L 364.80 300.95 Q 365.00 302.10 365.45 302.60 L 367.70 304.35 L 370.10 306.00 L 374.45 309.85 L 377.75 313.35 L 378.10 313.75 L 378.20 314.00 L 377.75 314.35 Q 374.45 317.20 369.80 317.20 Q 365.20 317.15 360.70 313.70 Q 356.50 310.45 354.85 306.30 L 354.45 305.70 Q 354.15 305.40 354.15 306.00 L 354.15 307.50 L 354.00 308.65 L 352.65 308.40 Q 350.85 308.00 347.45 305.45 L 346.15 304.40 L 345.60 302.20 L 345.60 301.40 L 347.70 298.50 Q 348.10 297.90 347.30 295.80 L 346.20 293.20" fill="rgb(255,255,255)" stroke="#0f172a" stroke-width="1.2" /><path d="M 324.85 302.10 Q 324.50 303.65 323.35 304.25 L 320.65 305.00 L 319.15 305.20 Q 318.15 305.30 317.85 304.90 L 316.90 303.55 L 316.55 303.30 Q 310.85 305.85 304.45 306.35 Q 297.45 306.90 292.15 304.75 L 290.40 303.75 L 290.75 303.45 L 293.25 302.05 Q 299.45 298.90 306.95 297.20 Q 307.35 297.10 307.05 296.25 L 305.85 287.05 L 306.15 287.05 L 323.80 286.40 L 323.40 291.40 L 323.20 293.50 Q 323.15 294.65 323.40 295.50 L 325.20 299.95 L 324.85 302.10" fill="rgb(255,255,255)" stroke="#0f172a" stroke-width="1.2" /><path d="M 178.25 90.45 Q 179.80 89.95 182.35 88.40 L 183.65 87.25 L 184.75 85.95 Q 186.55 84.10 188.00 83.80 L 188.30 83.75 Q 189.10 83.70 190.50 84.90 L 192.85 87.10 L 195.10 89.10 Q 195.75 89.55 196.50 89.40 L 198.35 88.55 Q 199.60 87.80 200.60 87.55 L 201.80 87.45 Q 203.60 87.55 209.05 91.65 Q 211.20 93.30 213.70 92.80 Q 215.40 92.40 216.60 91.05 Q 217.55 89.80 217.00 88.00 Q 218.60 89.05 219.50 90.50 Q 220.75 92.45 220.65 95.30 Q 220.60 98.25 219.15 100.35 Q 218.40 101.45 217.05 101.75 Q 215.20 102.15 212.75 100.85 L 209.75 98.40 Q 206.90 96.10 205.80 95.75 L 203.40 95.50 Q 202.80 95.60 202.20 96.00 L 201.00 96.95 L 199.80 97.90 L 199.25 98.15 L 197.60 97.95 L 195.30 97.10 L 191.55 95.80 L 190.70 95.80 Q 189.00 96.15 186.80 99.80 L 184.20 103.80 L 183.90 103.90 L 180.70 103.55 L 177.05 103.05 L 175.95 103.20 Q 173.35 103.75 172.30 105.95 Q 171.50 107.50 171.60 109.50 Q 171.70 110.95 173.60 112.50 L 176.80 114.45 L 173.60 118.40 Q 171.25 122.05 171.25 126.25 Q 169.75 123.85 168.40 120.45 Q 165.75 113.70 166.75 109.00 Q 167.35 106.25 168.35 103.85 Q 169.80 100.40 171.55 99.20 L 173.70 95.05 Q 175.45 91.45 178.25 90.45" fill="rgb(255,255,255)" stroke="#0f172a" stroke-width="1.2" /><path d="M 202.10 97.90 Q 203.20 97.05 204.10 96.85 L 205.10 96.90 Q 205.95 97.15 208.80 99.50 L 211.85 102.05 Q 214.25 103.30 216.15 103.20 Q 221.40 108.85 223.90 114.75 Q 228.05 124.45 225.90 134.85 Q 223.65 145.75 215.45 151.55 Q 210.95 154.80 206.85 155.70 L 204.75 156.00 L 203.60 156.05 L 203.40 156.20 Q 203.35 156.60 205.70 156.85 Q 208.00 157.05 209.05 156.85 L 209.30 156.75 Q 208.45 157.70 206.50 158.10 Q 202.40 159.00 197.50 157.15 Q 192.25 155.20 191.05 151.65 Q 194.20 153.00 196.20 152.55 L 196.80 152.15 Q 196.80 151.85 196.05 151.60 Q 188.65 148.65 182.75 141.80 L 182.00 142.00 Q 177.80 142.90 175.35 139.30 Q 172.80 135.70 175.75 132.30 L 175.80 131.55 L 174.20 132.45 Q 174.30 131.95 174.00 131.35 Q 175.70 126.70 177.40 124.05 Q 178.15 122.90 179.45 121.70 Q 180.00 121.20 179.90 120.60 Q 179.75 120.05 179.30 120.15 L 179.10 120.25 Q 177.80 121.05 176.35 123.30 Q 174.45 126.20 173.50 130.40 L 173.05 129.30 L 174.05 125.85 Q 174.95 123.15 176.25 121.30 L 178.25 118.45 L 179.30 117.20 Q 179.65 116.85 179.45 116.50 Q 179.25 116.15 178.75 116.25 L 178.40 116.35 Q 177.55 116.85 175.20 120.70 Q 173.35 124.10 172.65 127.95 Q 171.65 123.25 174.70 118.80 Q 176.05 116.90 178.65 114.55 Q 179.20 114.05 178.85 113.60 Q 178.55 113.25 178.30 113.25 Q 173.90 111.90 174.25 108.60 Q 174.55 105.50 177.20 104.95 L 177.55 104.90 Q 180.60 104.70 182.00 104.90 L 184.75 104.95 Q 186.05 104.70 186.75 103.50 Q 188.85 99.70 192.25 98.95 L 194.75 99.05 Q 197.45 99.90 199.20 99.55 L 201.00 98.80 L 202.10 97.90" fill="rgb(255,255,255)" stroke="#0f172a" stroke-width="1.2" /><path d="M 220.75 100.35 Q 221.45 100.20 222.05 101.25 Q 222.65 102.35 222.70 103.95 Q 222.75 105.00 221.95 107.60 L 218.00 102.75 Q 219.05 102.25 220.05 100.95 L 220.75 100.35" fill="rgb(255,255,255)" stroke="#0f172a" stroke-width="1.2" /><path d="M 216.35 106.20 L 215.85 105.85 L 211.65 104.25 L 211.10 104.20 Q 210.50 104.40 210.55 105.05 L 210.60 106.05 Q 210.60 106.55 211.00 106.90 Q 211.35 107.20 211.85 107.10 L 215.80 106.50 L 215.90 106.45 Q 216.35 106.40 216.35 106.20" fill="rgb(255,255,255)" stroke="#0f172a" stroke-width="1.2" /><path d="M 204.40 115.10 L 205.25 116.60 L 207.35 119.70 L 210.25 123.15 L 210.60 123.95 L 210.45 124.80 L 209.15 127.60 Q 208.95 127.95 209.15 128.25 L 209.75 128.60 L 210.10 128.65 L 210.85 128.60 Q 211.65 128.50 212.00 127.75 L 213.55 124.10 Q 213.95 123.15 213.15 122.55 L 208.25 118.20 L 206.40 115.90 L 205.50 114.65 Q 204.95 113.90 204.45 114.05 L 204.40 114.05 Q 203.95 114.25 204.40 115.10" fill="rgb(255,255,255)" stroke="#0f172a" stroke-width="1.2" /><path d="M 215.05 111.75 L 215.00 111.75 Q 214.30 111.90 214.00 113.00 Q 213.70 114.10 214.00 115.45 Q 214.35 116.80 215.10 117.65 Q 215.85 118.50 216.55 118.35 L 216.60 118.35 Q 217.35 118.15 217.65 117.10 Q 217.90 116.00 217.60 114.60 Q 217.25 113.25 216.55 112.45 Q 215.80 111.60 215.05 111.75" fill="rgb(255,255,255)" stroke="#0f172a" stroke-width="1.2" /><path d="M 220.45 129.30 L 220.65 130.05 L 220.55 130.80 L 219.95 131.30 Q 215.75 133.20 212.45 133.85 L 211.10 134.05 L 204.55 133.75 L 200.50 133.25 L 199.70 132.85 Q 199.30 132.50 199.35 132.10 L 199.60 130.45 Q 199.75 129.85 199.40 129.95 L 199.05 130.15 L 194.90 134.60 Q 194.15 135.35 194.50 136.25 L 196.35 140.50 Q 196.50 140.95 196.75 140.85 L 197.10 140.50 L 196.65 138.25 Q 196.85 137.70 197.60 137.50 L 198.00 137.50 L 202.90 139.45 Q 208.40 141.30 211.40 140.65 L 211.50 140.65 Q 214.50 140.05 217.85 137.45 L 220.55 135.00 L 220.80 134.90 Q 221.45 134.75 221.60 135.50 L 221.70 136.00 L 221.95 136.45 L 222.25 136.05 L 223.65 132.40 Q 224.00 131.45 223.25 130.80 L 221.00 129.00 L 220.55 128.80 L 220.45 129.30" fill="rgb(255,255,255)" stroke="#0f172a" stroke-width="1.2" /><path d="M 220.35 132.20 Q 221.40 132.00 221.35 132.85 Q 221.30 133.85 220.60 134.10 L 215.00 137.45 Q 213.95 138.05 211.95 138.45 L 206.95 138.80 L 202.05 137.65 L 198.80 136.75 L 197.85 136.20 Q 197.40 135.70 197.90 135.05 Q 198.30 134.55 199.10 134.35 L 200.30 134.35 L 204.10 134.90 L 210.85 135.10 L 212.20 134.85 Q 215.90 134.10 220.20 132.25 L 220.35 132.20" fill="rgb(255,255,255)" stroke="#0f172a" stroke-width="1.2" /><path d="M 210.90 142.05 L 210.65 142.10 Q 209.70 142.30 209.80 143.05 Q 209.80 143.45 210.15 143.75 Q 210.45 144.05 210.90 144.05 L 211.40 144.10 L 212.60 144.00 L 213.85 143.50 L 215.35 142.30 L 215.60 141.85 L 215.10 141.75 L 211.80 142.05 L 210.90 142.05" fill="rgb(255,255,255)" stroke="#0f172a" stroke-width="1.2" /><path d="M 222.15 147.65 L 223.75 145.60 L 222.95 147.05 Q 228.05 148.65 231.15 150.80 Q 236.55 154.60 241.50 162.45 L 242.90 164.80 Q 241.55 165.90 241.40 167.30 Q 237.85 167.05 236.50 169.30 Q 235.80 170.45 236.10 171.90 Q 236.20 172.65 236.45 173.20 Q 234.40 173.70 233.60 175.05 Q 232.85 176.25 233.25 177.95 L 233.90 179.70 L 233.75 179.50 L 232.10 179.75 L 232.15 179.70 L 231.15 174.20 L 230.25 173.60 L 231.45 179.95 Q 229.50 180.70 229.10 182.55 Q 228.90 182.65 228.85 183.55 Q 228.80 184.40 229.00 184.80 Q 228.10 184.10 227.70 184.15 L 219.80 184.65 Q 217.85 177.05 214.95 167.55 L 220.00 164.20 Q 222.50 162.05 223.40 159.20 Q 224.90 154.40 222.40 148.20 L 222.15 147.65" fill="rgb(255,255,255)" stroke="#0f172a" stroke-width="1.2" /><path d="M 194.10 109.45 Q 194.30 108.95 192.50 107.50 Q 192.15 107.05 191.60 107.15 Q 191.30 107.25 191.15 107.45 L 189.45 109.95 Q 187.85 112.65 188.40 113.80 L 188.45 113.80 L 189.75 112.85 L 191.60 111.20 L 193.30 110.05 L 194.10 109.45" fill="rgb(255,255,255)" stroke="#0f172a" stroke-width="1.2" /><path d="M 193.25 117.15 Q 192.95 118.20 193.30 119.60 Q 193.65 120.95 194.35 121.80 Q 195.10 122.65 195.85 122.50 Q 196.60 122.30 196.90 121.20 Q 197.20 120.10 196.85 118.75 Q 196.55 117.40 195.80 116.55 Q 195.05 115.70 194.35 115.85 L 194.30 115.85 Q 193.55 116.05 193.25 117.15" fill="rgb(255,255,255)" stroke="#0f172a" stroke-width="1.2" /><path d="M 180.00 124.05 L 179.85 124.10 Q 178.60 125.00 177.75 126.30 L 176.90 128.20 Q 176.50 129.30 176.70 129.65 L 176.90 129.80 L 177.75 128.70 L 178.75 126.95 L 180.40 125.30 Q 180.90 124.80 180.65 124.35 Q 180.40 123.95 180.00 124.05" fill="rgb(255,255,255)" stroke="#0f172a" stroke-width="1.2" /><path d="M 181.20 127.95 Q 180.95 127.75 180.70 127.80 L 180.40 127.95 Q 179.85 128.40 179.45 129.15 Q 178.95 130.00 179.00 130.80 Q 179.15 131.55 179.75 131.45 Q 180.25 131.25 180.20 130.80 Q 180.15 130.35 180.65 129.55 L 181.25 128.85 L 181.40 128.45 L 181.20 127.95" fill="rgb(255,255,255)" stroke="#0f172a" stroke-width="1.2" /><path d="M 197.30 168.10 L 201.25 169.15 L 203.95 182.50 Q 199.75 180.90 197.35 178.00 Q 196.80 177.40 195.75 177.15 Q 194.65 176.95 195.50 177.95 Q 200.65 184.05 211.35 185.90 Q 219.25 187.20 229.40 186.15 Q 229.75 186.15 229.75 185.95 Q 230.60 187.30 232.20 188.40 Q 235.10 190.30 238.65 190.15 Q 238.45 191.80 238.65 192.80 Q 239.35 197.65 242.30 199.95 Q 234.45 203.30 225.35 204.30 Q 216.70 205.20 207.65 203.85 L 207.55 203.85 Q 193.30 201.70 181.25 194.80 Q 172.70 189.90 167.95 183.30 Q 162.35 175.50 163.50 166.80 Q 164.25 161.00 169.45 155.90 Q 174.20 151.20 180.70 148.80 Q 180.85 152.50 181.90 155.25 Q 183.20 158.60 186.60 162.40 Q 188.45 164.50 193.45 166.85 Q 194.85 167.55 197.30 168.10" fill="rgb(255,255,255)" stroke="#0f172a" stroke-width="1.2" /><path d="M 199.85 166.65 Q 196.75 166.20 193.05 164.55 Q 188.75 162.70 185.35 158.45 Q 181.65 153.80 181.60 149.30 L 181.40 148.50 L 185.00 147.55 L 187.80 149.55 Q 188.85 155.50 195.20 158.60 Q 201.15 161.50 207.40 160.20 Q 210.60 159.55 212.80 157.75 Q 215.15 155.80 215.90 152.85 Q 219.25 150.85 221.75 148.10 L 221.85 149.00 Q 224.15 154.65 221.55 159.25 Q 220.45 161.25 218.20 162.85 L 213.95 165.40 Q 213.70 165.55 213.90 166.70 Q 217.70 178.95 219.15 184.70 Q 210.65 184.80 204.80 182.80 Q 203.35 174.80 201.75 168.00 Q 201.60 167.30 201.10 167.00 L 199.85 166.65" fill="rgb(255,255,255)" stroke="#0f172a" stroke-width="1.2" /><path d="M 239.60 170.05 Q 241.80 169.75 243.25 170.05 Q 245.00 170.35 247.45 171.75 Q 250.50 173.40 251.00 175.05 L 251.05 175.30 L 251.00 176.05 Q 249.00 179.20 243.95 177.35 Q 239.60 175.75 237.40 172.85 Q 237.00 172.30 236.90 171.80 Q 236.75 170.40 239.60 170.05" fill="rgb(255,255,255)" stroke="#0f172a" stroke-width="1.2" /><path d="M 233.95 177.80 Q 233.80 176.80 235.30 176.10 Q 236.40 175.55 237.70 175.40 L 237.75 175.40 L 239.05 176.85 Q 240.55 178.30 243.15 179.35 Q 246.05 180.50 248.30 180.20 L 248.35 180.40 Q 248.55 182.05 244.95 182.65 Q 242.60 183.10 238.75 181.70 Q 236.35 180.80 234.55 178.85 L 233.95 177.80" fill="rgb(255,255,255)" stroke="#0f172a" stroke-width="1.2" /><path d="M 237.10 183.15 Q 239.50 184.65 242.60 184.95 L 242.65 185.05 Q 243.70 186.85 239.80 187.65 Q 237.30 188.20 233.65 186.85 Q 232.15 186.30 231.05 185.35 Q 229.55 184.00 230.65 182.90 Q 231.95 181.65 235.55 181.90 L 237.10 183.15" fill="rgb(255,255,255)" stroke="#0f172a" stroke-width="1.2" /><path d="M 242.75 188.95 Q 244.50 187.80 243.60 185.00 Q 246.20 185.00 247.70 183.90 Q 249.40 182.65 249.10 180.30 L 249.05 180.05 Q 250.80 179.65 251.55 178.25 L 251.60 178.25 L 251.65 178.10 Q 252.15 176.65 251.75 175.15 L 251.75 175.00 L 251.55 174.35 L 254.75 174.00 L 255.70 174.15 L 256.60 174.15 Q 258.95 172.75 261.05 172.05 L 261.20 172.00 L 262.35 171.65 L 265.90 171.80 Q 267.80 172.70 264.60 176.30 L 263.85 177.10 L 261.95 178.80 L 261.80 178.95 L 260.20 180.10 Q 259.85 180.35 260.10 181.50 Q 260.35 182.60 260.70 182.35 L 261.85 181.55 L 262.25 181.25 L 263.25 180.40 L 266.85 176.80 L 267.55 178.70 L 267.65 179.05 L 267.80 180.80 L 267.85 180.75 L 267.35 182.75 Q 264.95 186.35 262.15 187.75 Q 261.75 187.95 261.95 189.10 Q 262.15 190.25 262.45 190.10 Q 266.00 188.60 267.50 185.50 L 267.55 185.45 L 267.85 185.60 L 267.75 186.75 Q 267.05 191.00 261.30 195.20 Q 254.35 200.20 245.05 200.30 Q 242.85 198.90 241.40 197.10 Q 239.65 194.95 239.40 192.75 Q 239.30 191.60 239.60 190.55 L 239.60 190.05 Q 241.45 189.80 242.75 188.95" fill="rgb(255,255,255)" stroke="#0f172a" stroke-width="1.2" /><path d="M 252.10 165.60 Q 251.75 164.60 251.65 165.35 Q 251.20 169.20 248.20 170.05 Q 245.75 168.20 242.70 167.55 L 243.65 166.85 L 246.30 165.10 Q 247.85 164.10 249.10 163.55 Q 252.45 162.10 255.55 164.40 Q 257.95 166.15 259.95 169.90 Q 258.75 170.40 257.35 171.15 L 256.40 171.70 L 255.40 171.75 Q 252.15 171.15 250.50 172.40 L 250.00 171.75 L 251.15 170.45 L 251.25 170.50 L 254.20 170.45 Q 254.60 170.20 254.35 169.10 Q 254.10 167.95 253.85 168.05 Q 253.20 168.45 252.10 168.35 L 252.40 167.00 Q 252.50 166.55 252.10 165.60" fill="rgb(255,255,255)" stroke="#0f172a" stroke-width="1.2" /><path d="M 262.10 196.85 Q 268.85 192.10 268.65 185.60 L 268.65 185.55 L 268.75 185.55 L 274.65 183.25 Q 277.90 181.75 280.00 179.95 Q 283.35 184.25 283.65 190.20 Q 283.95 195.45 281.90 201.05 L 281.50 202.05 Q 281.25 202.70 280.95 204.30 Q 280.60 205.55 279.75 205.75 L 279.45 205.80 L 274.85 205.25 Q 267.90 203.75 262.35 197.00 L 262.10 196.85" fill="rgb(255,255,255)" stroke="#0f172a" stroke-width="1.2" /><path d="M 311.75 163.05 Q 309.40 163.75 306.85 167.15 Q 304.05 170.85 302.10 171.85 Q 301.85 169.80 300.80 165.95 Q 299.60 161.70 299.30 159.85 Q 298.10 152.65 302.85 148.05 Q 304.05 152.75 306.85 156.70 Q 309.60 160.60 313.50 163.05 Q 312.75 162.75 311.75 163.05" fill="rgb(255,255,255)" stroke="#0f172a" stroke-width="1.2" /><path d="M 313.60 165.20 Q 314.80 166.35 315.55 168.70 L 316.45 172.60 Q 316.85 174.75 316.80 177.80 L 316.50 183.00 L 315.35 201.70 Q 313.85 201.80 313.00 202.65 Q 312.70 203.00 312.45 203.70 L 312.35 203.60 Q 305.05 201.75 300.85 198.75 L 300.95 198.55 Q 302.70 191.10 304.45 180.45 Q 304.55 179.75 303.60 179.85 Q 302.65 179.95 302.50 180.60 L 300.95 189.25 Q 297.40 194.05 293.65 197.00 Q 288.75 200.85 284.10 201.10 Q 285.65 196.65 285.75 190.50 Q 285.75 185.65 283.15 181.25 Q 285.60 179.10 290.40 172.10 Q 294.60 165.90 298.20 163.60 L 298.25 163.55 L 299.45 168.40 L 300.25 173.00 Q 300.30 173.50 301.35 173.25 Q 305.65 171.80 308.60 168.05 L 310.55 165.25 L 313.60 165.20" fill="rgb(255,255,255)" stroke="#0f172a" stroke-width="1.2" /><path d="M 317.25 167.75 Q 316.20 164.95 314.75 163.80 Q 320.25 166.65 326.20 166.05 Q 325.20 168.50 322.40 168.70 Q 320.20 168.90 317.25 167.75" fill="rgb(255,255,255)" stroke="#0f172a" stroke-width="1.2" /><path d="M 314.85 204.85 Q 314.60 205.95 314.65 207.65 L 314.80 210.45 L 314.85 221.05 L 314.80 223.50 Q 314.85 225.10 315.50 225.75 Q 316.35 226.65 318.70 227.15 L 322.25 227.75 L 322.45 227.60 Q 322.95 226.15 322.80 223.45 L 322.55 219.20 L 322.55 219.15 L 323.45 218.25 L 323.60 216.80 Q 323.35 215.50 322.75 215.15 L 322.55 215.05 L 322.75 211.35 Q 322.80 209.15 322.30 207.80 Q 321.75 206.20 319.25 205.50 L 315.05 204.70 L 314.85 204.85" fill="rgb(255,255,255)" stroke="#0f172a" stroke-width="1.2" /><path d="M 315.55 206.90 L 316.85 206.80 L 320.50 207.70 L 321.50 207.80 Q 321.75 207.80 321.75 208.40 L 321.80 214.85 L 320.95 214.65 L 319.40 214.20 Q 318.85 214.30 318.85 215.75 Q 319.05 218.05 321.65 219.05 L 321.85 219.10 L 321.85 224.05 Q 321.95 226.05 321.75 226.00 L 315.85 224.55 Q 315.70 224.50 315.60 224.75 L 315.55 224.65 L 315.50 208.45 Q 315.45 207.05 315.55 206.90" fill="rgb(255,255,255)" stroke="#0f172a" stroke-width="1.2" /><path d="M 304.95 209.45 L 304.55 212.40 L 304.40 215.35 L 304.40 215.95 Q 304.60 216.90 305.10 217.60 Q 305.80 218.50 306.65 218.35 Q 307.30 218.30 307.45 217.60 L 307.50 216.35 Q 307.90 211.60 307.50 209.20 Q 307.20 207.00 306.45 206.60 Q 305.95 206.35 305.45 207.75 L 304.95 209.45" fill="rgb(255,255,255)" stroke="#0f172a" stroke-width="1.2" /><path d="M 306.95 210.10 L 307.00 212.35 L 306.70 216.30 Q 306.65 216.75 306.00 216.65 L 305.10 216.30 L 305.40 212.45 Q 305.70 209.00 306.70 208.30 L 306.95 210.10" fill="rgb(255,255,255)" stroke="#0f172a" stroke-width="1.2" /><path d="M 309.80 208.75 Q 309.20 208.85 308.75 210.15 L 308.25 211.95 L 307.85 214.95 L 307.70 218.00 L 307.70 218.20 L 307.80 218.60 Q 308.30 220.70 310.40 220.30 Q 310.85 220.25 311.00 219.40 L 311.05 218.20 L 311.30 214.60 Q 311.30 212.60 310.95 210.95 L 310.60 209.65 Q 310.25 208.70 309.80 208.75" fill="rgb(255,255,255)" stroke="#0f172a" stroke-width="1.2" /><path d="M 312.10 205.70 Q 312.00 207.55 312.25 210.80 L 312.35 223.45 L 312.15 223.25 Q 305.00 220.30 300.65 215.90 Q 296.10 211.25 298.75 202.15 L 299.55 200.00 Q 299.70 199.60 299.95 199.85 L 300.50 200.45 Q 302.00 201.65 305.25 203.25 Q 308.20 204.60 312.10 205.70" fill="rgb(255,255,255)" stroke="#0f172a" stroke-width="1.2" /><path d="M 310.50 214.90 L 310.25 218.40 L 309.50 218.65 L 308.45 218.50 L 308.75 214.90 Q 309.00 211.35 310.10 210.50 Q 310.50 210.25 310.50 214.90" fill="rgb(255,255,255)" stroke="#0f172a" stroke-width="1.2" /><path d="M 304.35 213.85 Q 304.75 209.10 304.35 206.70 Q 304.00 204.35 303.35 204.05 Q 302.85 203.80 302.35 205.15 L 301.85 206.85 L 301.45 209.80 L 301.30 212.75 L 301.30 213.30 Q 301.50 214.25 302.00 215.00 Q 302.65 215.95 303.50 215.85 Q 304.15 215.80 304.30 215.10 L 304.35 213.85" fill="rgb(255,255,255)" stroke="#0f172a" stroke-width="1.2" /><path d="M 322.05 216.50 L 322.85 216.75 L 322.60 217.15 Q 322.30 217.50 321.50 217.40 L 320.60 217.00 L 320.00 216.60 L 319.75 216.35 L 319.60 216.30 Q 319.75 215.80 320.35 215.95 L 321.25 216.35 L 322.05 216.50" fill="rgb(255,255,255)" stroke="#0f172a" stroke-width="1.2" /><path d="M 298.90 203.80 L 298.50 206.85 L 298.35 209.85 L 298.35 210.05 L 298.45 210.50 Q 298.65 211.25 299.45 212.20 Q 300.40 213.35 300.85 212.55 L 301.20 211.30 L 301.25 209.95 Q 301.60 205.60 301.20 203.10 Q 300.95 200.95 300.20 200.90 Q 299.70 200.90 299.30 202.15 L 298.90 203.80" fill="rgb(255,255,255)" stroke="#0f172a" stroke-width="1.2" /><path d="M 303.60 205.75 L 303.85 209.85 L 303.55 213.80 Q 303.50 214.25 302.85 214.10 Q 302.30 214.00 302.00 213.75 L 302.35 209.85 Q 302.50 206.50 303.60 205.75" fill="rgb(255,255,255)" stroke="#0f172a" stroke-width="1.2" /><path d="M 300.55 202.65 Q 300.40 202.75 300.75 206.70 L 300.40 210.60 Q 300.35 211.00 299.85 210.95 L 299.10 210.55 L 299.40 206.80 Q 299.70 203.35 300.55 202.65" fill="rgb(255,255,255)" stroke="#0f172a" stroke-width="1.2" /><path d="M 312.95 228.55 Q 310.65 248.85 307.70 262.55 L 292.00 256.65 L 290.70 256.30 Q 290.30 256.15 290.40 255.70 Q 294.75 237.60 300.10 217.30 Q 304.00 221.95 312.55 225.55 L 312.60 225.55 Q 312.90 227.10 313.75 228.05 Q 312.95 228.25 312.95 228.55" fill="rgb(255,255,255)" stroke="#0f172a" stroke-width="1.2" /><path d="M 253.40 208.10 Q 251.10 211.30 248.05 211.90 Q 243.45 212.85 241.65 211.95 L 238.20 204.15 Q 241.80 203.10 245.10 201.60 L 245.30 201.35 L 245.80 201.40 Q 249.85 202.00 255.00 200.35 Q 255.45 203.20 255.35 204.10 Q 254.95 205.85 253.40 208.10" fill="rgb(255,255,255)" stroke="#0f172a" stroke-width="1.2" /><path d="M 244.70 218.45 Q 245.05 219.70 245.85 220.30 L 244.05 224.15 Q 242.65 226.85 242.20 228.20 Q 241.55 230.35 242.45 231.45 L 242.55 231.55 Q 240.90 232.55 240.05 232.80 L 239.55 223.30 L 242.45 220.80 Q 242.00 219.90 241.70 218.55 Q 241.40 217.05 241.50 215.95 L 241.75 214.25 L 244.70 214.50 Q 244.20 216.80 244.70 218.45" fill="rgb(255,255,255)" stroke="#0f172a" stroke-width="1.2" /><path d="M 246.70 218.05 Q 245.90 216.50 246.50 214.30 L 248.15 214.05 Q 253.05 213.10 256.20 207.70 Q 258.60 217.20 257.15 222.55 Q 256.10 226.40 252.85 230.15 Q 250.70 232.60 248.00 234.60 L 246.90 235.35 L 245.75 235.90 Q 242.10 237.45 240.90 236.20 Q 240.50 235.80 240.55 235.10 Q 240.65 234.45 241.00 234.10 L 242.70 232.25 L 242.95 231.90 Q 244.25 232.65 246.55 231.95 Q 250.95 230.75 253.70 224.70 Q 255.80 219.95 255.50 218.20 Q 255.40 217.50 254.60 217.30 Q 253.75 217.10 253.55 217.85 L 251.85 223.75 Q 249.60 229.05 246.00 230.05 L 244.40 230.30 L 244.00 230.20 Q 243.70 229.80 244.50 227.80 L 245.80 225.05 L 248.35 219.60 L 247.60 219.15 L 246.70 218.05" fill="rgb(255,255,255)" stroke="#0f172a" stroke-width="1.2" /><path d="M 227.20 206.30 Q 231.65 205.85 236.15 204.70 L 237.55 212.75 Q 233.15 218.75 224.70 222.85 Q 217.75 226.20 209.05 227.85 Q 200.80 229.40 192.70 228.20 Q 183.45 226.85 177.45 222.25 Q 177.85 218.75 178.25 208.25 Q 186.10 213.35 196.90 214.00 L 204.90 213.75 L 207.25 213.25 Q 207.80 212.85 208.10 211.30 Q 208.30 210.20 208.15 208.55 L 207.85 205.80 L 222.70 206.65 Q 223.00 208.00 223.85 208.10 Q 224.55 208.25 227.20 206.30" fill="rgb(255,255,255)" stroke="#0f172a" stroke-width="1.2" /><path d="M 203.25 211.80 L 198.15 211.75 Q 193.50 211.75 188.15 210.45 Q 182.65 209.00 178.30 206.30 Q 178.50 198.35 178.25 194.40 Q 191.05 203.00 207.25 205.70 Q 207.40 208.20 207.10 209.85 Q 206.80 211.55 203.25 211.80" fill="rgb(255,255,255)" stroke="#0f172a" stroke-width="1.2" /><path d="M 205.25 246.00 Q 203.60 249.80 200.75 257.70 Q 199.35 261.70 196.85 269.80 Q 194.50 277.05 192.35 281.65 Q 189.60 287.70 186.85 290.70 Q 183.80 294.10 175.10 293.50 Q 171.00 293.20 166.75 290.90 L 164.40 289.40 L 163.65 288.75 L 163.60 287.50 Q 163.60 282.95 165.50 276.40 L 168.85 265.60 Q 172.25 253.35 174.60 240.50 Q 176.30 231.20 177.20 224.05 Q 182.95 228.65 191.75 230.20 Q 199.35 231.60 207.60 230.50 Q 216.40 229.35 224.20 225.75 Q 233.15 221.65 237.95 215.45 Q 239.10 224.90 239.00 236.95 Q 238.90 246.15 237.20 256.85 Q 235.95 264.65 233.25 276.50 L 231.25 284.90 L 230.85 286.70 Q 230.60 287.45 229.90 287.85 Q 227.50 289.20 224.05 289.45 L 217.95 289.20 Q 212.20 288.60 207.60 287.60 L 208.45 267.65 Q 208.65 256.10 207.00 247.80 L 206.75 246.65 Q 209.35 240.95 212.00 237.25 Q 212.30 236.85 211.85 235.80 Q 211.40 234.75 211.25 235.05 Q 208.05 239.50 205.25 246.00" fill="rgb(255,255,255)" stroke="#0f172a" stroke-width="1.2" /><path d="M 165.40 292.10 L 166.25 292.70 Q 169.40 294.70 173.55 295.55 Q 177.95 296.45 181.75 295.70 Q 179.80 301.25 170.65 304.15 Q 165.60 305.75 163.40 300.60 Q 161.25 295.45 165.30 292.25 L 165.40 292.10" fill="rgb(255,255,255)" stroke="#0f172a" stroke-width="1.2" /><path d="M 209.00 292.45 Q 208.80 291.95 208.95 290.10 Q 219.15 292.35 225.65 291.65 Q 229.85 291.25 231.15 289.55 L 231.40 289.80 Q 239.20 292.75 243.35 296.70 L 242.55 297.20 Q 241.35 297.95 238.40 298.45 Q 233.15 299.25 227.05 297.75 Q 221.25 296.35 216.50 293.30 L 216.30 293.35 L 215.20 294.55 Q 214.40 295.45 210.70 293.85 Q 209.30 293.25 209.00 292.45" fill="rgb(255,255,255)" stroke="#0f172a" stroke-width="1.2" />
  </g>
</svg>