<svg xmlns="http://www.w3.org/2000/svg" viewBox="152.35 68.70 253 262" width="100%" height="100%">
  <g>
    <path d="M 332.95 147.85 Q 334.65 151.90 336.50 159.40 Q 338.25 166.35 338.50 169.25 Q 337.90 169.60 332.35 174.00 Q 327.05 178.15 326.60 178.30 L 322.30 174.75 L 318.20 164.75 Q 316.70 160.85 316.15 157.60 L 315.45 153.50 Q 315.15 152.30 315.45 151.65 Q 315.75 151.00 316.85 150.45 Q 321.15 148.10 325.65 141.80 Q 333.00 131.55 331.20 119.70 Q 340.40 120.05 348.60 126.80 Q 353.40 130.80 358.45 137.85 Q 363.50 145.00 366.55 159.80 Q 370.30 177.80 363.50 184.30 Q 354.25 193.25 345.95 197.70 Q 341.00 200.35 334.30 201.85 Q 327.30 203.40 325.20 202.00 Q 327.85 200.50 329.65 197.85 Q 331.50 195.10 331.80 192.15 Q 332.00 190.00 330.35 185.00 L 328.70 180.40 L 330.90 178.15 Q 333.70 175.55 336.40 173.75 Q 340.80 170.80 348.15 167.55 L 346.05 166.55 L 340.60 167.70 L 336.30 147.60 L 333.60 145.20 Q 331.20 143.60 332.95 147.85" fill="#ffe4c4" stroke="#0f172a" stroke-width="1.2" /><path d="M 324.30 140.15 Q 320.00 146.55 315.75 148.80 Q 314.00 149.75 313.45 150.95 Q 312.85 152.20 313.30 154.00 L 313.45 154.75 L 313.15 154.50 L 312.80 154.40 L 299.45 157.05 L 298.85 152.30 Q 298.65 149.95 296.55 149.10 L 295.75 148.85 L 295.70 148.80 Q 293.30 147.90 290.50 145.20 Q 287.55 142.35 285.85 139.00 Q 293.05 142.10 300.70 140.85 Q 304.35 143.40 308.90 142.15 Q 313.10 141.05 316.55 137.30 Q 320.00 133.60 321.10 129.05 Q 322.25 124.15 319.95 120.20 L 320.40 118.25 L 323.85 118.30 Q 326.30 118.40 328.35 119.05 Q 331.05 130.20 324.30 140.15" fill="#ffe4c4" stroke="#0f172a" stroke-width="1.2" /><path d="M 328.25 186.20 Q 328.65 189.15 328.40 191.80 Q 327.95 196.75 322.25 200.40 Q 320.40 201.55 317.70 201.40 L 313.80 200.60 L 313.65 200.55 Q 315.05 200.45 315.25 199.55 Q 315.30 199.30 314.40 198.90 Q 313.40 198.40 312.20 198.35 L 308.10 197.40 L 304.40 196.25 Q 303.55 195.85 302.00 193.60 L 303.65 193.75 L 309.65 194.60 L 313.55 194.50 Q 313.80 194.15 312.55 193.60 Q 311.10 192.90 308.65 192.75 L 302.45 191.90 L 297.05 190.95 Q 296.65 190.75 295.75 188.95 L 294.95 187.05 L 302.30 186.85 Q 310.00 186.45 311.80 185.50 Q 314.05 184.25 314.30 182.15 Q 314.45 181.25 313.95 179.10 L 312.40 178.90 L 314.45 175.75 L 314.90 174.95 L 317.75 175.35 Q 319.45 175.75 321.60 177.00 Q 324.90 178.95 326.60 180.75 Q 327.80 182.55 328.25 186.20" fill="#ffe4c4" stroke="#0f172a" stroke-width="1.2" /><path d="M 406.20 217.40 L 322.75 257.45 L 317.35 256.55 L 316.75 253.50 L 315.50 249.00 L 322.75 250.25 L 323.25 250.20 L 406.20 210.30 L 406.20 217.40" fill="#ffe4c4" stroke="#0f172a" stroke-width="1.2" /><path d="M 379.65 231.95 L 379.65 294.20 L 374.55 291.15 L 374.55 234.40 L 379.65 231.95" fill="#ffe4c4" stroke="#0f172a" stroke-width="1.2" /><path d="M 386.80 228.50 L 386.80 291.15 L 381.65 294.20 L 381.65 231.00 L 386.80 228.50" fill="#ffe4c4" stroke="#0f172a" stroke-width="1.2" /><path d="M 353.75 215.65 L 345.45 220.05 L 331.15 220.05 L 325.50 215.70 L 325.50 212.75 L 330.90 216.90 L 345.65 216.95 L 353.75 212.60 L 353.75 215.65" fill="#ffe4c4" stroke="#0f172a" stroke-width="1.2" /><path d="M 346.75 210.70 Q 346.25 210.00 345.00 209.55 Q 344.10 209.20 343.00 209.00 L 342.20 208.90 L 341.35 208.85 L 340.35 208.85 L 335.70 209.45 Q 333.25 210.10 332.50 211.20 Q 331.95 211.95 332.35 212.75 L 332.45 212.90 L 332.55 213.10 L 334.25 214.20 L 335.30 214.55 L 336.50 214.75 L 337.90 214.85 L 338.90 214.90 L 343.55 214.30 Q 346.00 213.65 346.75 212.50 Q 347.30 211.75 346.90 210.95 L 346.80 210.80 L 346.75 210.70" fill="#ffe4c4" stroke="#0f172a" stroke-width="1.2" /><path d="M 345.95 211.95 Q 345.45 212.70 343.55 213.30 L 338.90 213.90 L 337.95 213.85 Q 336.00 213.75 334.65 213.25 Q 333.50 212.85 333.25 212.30 Q 333.10 212.15 333.30 211.75 Q 333.80 211.00 335.75 210.45 L 340.35 209.85 L 341.30 209.85 L 344.60 210.45 Q 345.75 210.85 346.00 211.40 L 345.95 211.95" fill="#ffe4c4" stroke="#0f172a" stroke-width="1.2" /><path d="M 345.40 215.95 L 331.25 215.90 L 326.10 211.95 L 333.85 207.80 L 348.00 207.80 L 353.15 211.80 L 345.40 215.95" fill="#ffe4c4" stroke="#0f172a" stroke-width="1.2" /><path d="M 354.75 212.05 L 348.35 206.80 L 333.60 206.80 L 324.70 211.90 L 324.55 212.00 L 324.50 212.00 L 324.50 216.20 L 329.90 220.40 Q 327.90 219.60 324.55 219.35 Q 320.40 219.15 316.70 220.10 Q 313.10 221.05 312.00 222.65 L 311.65 223.50 L 311.55 223.80 L 311.55 228.40 Q 311.40 229.20 312.05 229.95 Q 312.90 230.95 314.85 231.60 Q 316.90 232.25 319.55 232.35 L 322.00 232.40 L 322.00 232.65 Q 322.00 233.00 322.35 233.10 L 325.95 235.95 L 326.30 236.05 L 335.40 236.05 L 335.45 236.00 L 335.55 236.05 Q 335.85 236.05 335.95 235.80 L 341.25 233.10 L 341.50 232.70 L 341.50 228.00 L 341.35 227.65 L 337.25 224.45 L 332.05 224.45 L 332.20 224.25 Q 332.85 223.25 332.40 222.25 L 331.25 221.05 L 345.70 221.05 L 354.75 216.25 L 354.75 212.05" fill="#ffe4c4" stroke="#0f172a" stroke-width="1.2" /><path d="M 325.35 206.75 Q 322.75 210.65 318.55 211.80 L 314.15 213.05 L 291.65 217.50 L 284.35 211.65 Q 285.00 210.15 285.10 209.00 Q 285.65 205.10 283.30 201.95 Q 280.90 198.80 277.05 198.25 Q 273.15 197.75 270.00 200.10 Q 266.90 202.45 266.35 206.35 Q 265.80 210.20 268.15 213.35 Q 270.55 216.50 274.40 217.05 Q 276.90 217.40 279.30 216.45 L 282.70 219.25 L 256.25 224.45 Q 257.80 223.15 258.95 221.40 Q 261.45 217.70 262.25 212.55 Q 263.05 207.40 262.00 202.00 Q 260.90 196.60 258.20 192.15 Q 255.50 187.65 251.80 185.20 Q 249.85 183.90 248.15 183.35 L 259.15 181.20 L 260.55 181.95 L 262.55 183.45 L 262.55 183.50 L 262.45 183.55 L 262.40 183.60 L 262.45 185.30 L 262.65 185.60 L 268.65 189.55 L 268.70 189.60 Q 272.25 191.70 276.60 190.40 L 292.75 187.10 Q 292.30 188.10 293.30 190.45 L 294.55 192.00 Q 295.80 192.80 299.40 193.50 Q 299.80 194.75 301.35 196.45 L 303.30 198.25 L 305.95 199.05 L 308.80 199.70 Q 309.00 200.40 310.15 201.30 Q 311.45 202.35 312.80 202.75 L 313.15 202.80 L 322.40 203.15 Q 324.00 204.60 326.40 204.90 L 325.35 206.75" fill="#ffe4c4" stroke="#0f172a" stroke-width="1.2" /><path d="M 328.15 205.05 Q 334.95 205.15 345.85 199.65 L 404.40 209.40 L 322.75 248.60 L 314.85 247.25 L 313.10 242.95 L 310.50 238.05 L 307.50 233.40 L 304.05 229.10 L 300.30 225.10 L 296.35 221.40 L 293.30 218.80 L 320.75 213.10 L 324.05 210.75 L 324.00 210.75 Q 325.55 209.45 326.70 207.70 L 328.15 205.05" fill="#ffe4c4" stroke="#0f172a" stroke-width="1.2" /><path d="M 331.50 222.70 Q 331.75 223.15 331.35 223.70 L 330.40 224.55 L 328.95 225.45 L 336.90 225.45 L 339.85 227.75 L 335.25 230.20 L 326.50 230.20 L 323.55 227.90 L 324.65 227.30 L 324.40 226.35 L 319.65 226.50 Q 316.75 226.35 314.85 225.65 Q 313.10 225.05 312.70 224.20 Q 312.45 223.75 312.85 223.20 Q 313.75 221.90 317.20 221.05 Q 320.70 220.15 324.55 220.35 Q 327.40 220.50 329.40 221.25 Q 331.10 221.85 331.50 222.70" fill="#ffe4c4" stroke="#0f172a" stroke-width="1.2" /><path d="M 335.50 227.75 Q 335.20 228.25 333.80 228.60 L 330.65 228.90 L 328.65 228.55 Q 328.00 228.30 327.85 228.05 L 327.90 227.90 Q 328.20 227.45 329.35 227.10 L 332.15 226.75 L 332.75 226.75 L 334.75 227.10 Q 335.40 227.35 335.55 227.60 L 335.50 227.75" fill="#ffe4c4" stroke="#0f172a" stroke-width="1.2" /><path d="M 336.45 227.15 Q 335.80 225.90 332.80 225.75 L 332.15 225.75 L 329.15 226.15 Q 327.60 226.55 327.05 227.30 Q 326.65 227.90 326.95 228.50 Q 327.60 229.75 330.60 229.90 L 331.25 229.90 L 334.25 229.50 Q 335.80 229.10 336.30 228.35 Q 336.70 227.75 336.45 227.15" fill="#ffe4c4" stroke="#0f172a" stroke-width="1.2" /><path d="M 336.05 230.90 L 340.50 228.50 L 340.50 232.35 L 336.05 234.65 L 336.05 230.90" fill="#ffe4c4" stroke="#0f172a" stroke-width="1.2" /><path d="M 335.05 235.05 L 327.00 235.05 L 327.00 231.20 L 335.05 231.20 L 335.05 235.05" fill="#ffe4c4" stroke="#0f172a" stroke-width="1.2" /><path d="M 327.70 224.00 Q 328.15 223.30 327.85 222.70 Q 327.15 221.25 323.45 221.00 L 322.65 221.00 L 319.00 221.45 Q 317.10 222.00 316.45 222.90 Q 316.05 223.55 316.35 224.20 Q 317.10 225.70 320.75 225.85 L 321.55 225.90 L 325.20 225.45 Q 327.10 224.90 327.70 224.00" fill="#ffe4c4" stroke="#0f172a" stroke-width="1.2" /><path d="M 326.90 223.45 L 325.05 224.45 L 321.55 224.90 L 320.80 224.85 L 318.25 224.40 L 317.25 223.75 L 317.30 223.45 Q 317.70 222.90 319.15 222.45 L 322.65 222.00 L 323.40 222.00 Q 326.50 222.20 326.95 223.15 L 326.90 223.45" fill="#ffe4c4" stroke="#0f172a" stroke-width="1.2" /><path d="M 326.00 234.70 L 323.05 232.40 L 323.00 232.05 L 323.00 228.75 L 326.00 231.05 L 326.00 234.70" fill="#ffe4c4" stroke="#0f172a" stroke-width="1.2" /><path d="M 349.70 255.05 L 347.15 247.55 L 371.35 235.95 Q 371.80 243.55 371.70 253.35 Q 371.65 262.10 371.35 262.85 Q 371.10 263.35 368.85 263.90 L 364.55 264.55 Q 362.25 264.70 358.60 264.45 Q 354.15 264.10 352.80 263.35 Q 352.45 263.00 349.70 255.05" fill="#ffe4c4" stroke="#0f172a" stroke-width="1.2" /><path d="M 359.65 266.30 Q 365.65 266.30 372.15 265.00 Q 371.20 267.70 369.85 268.55 L 368.05 267.30 L 361.60 273.95 Q 358.15 276.85 352.90 278.40 Q 347.35 280.05 345.80 278.20 Q 344.80 276.95 349.10 272.00 L 354.35 266.05 L 359.65 266.30" fill="#ffe4c4" stroke="#0f172a" stroke-width="1.2" /><path d="M 334.30 253.75 L 334.30 315.90 L 330.05 318.40 L 329.15 314.45 L 329.15 310.85 Q 331.20 309.35 331.90 307.50 Q 332.90 304.85 330.90 302.00 L 329.15 300.80 L 329.15 256.20 L 334.30 253.75" fill="#ffe4c4" stroke="#0f172a" stroke-width="1.2" /><path d="M 348.65 198.20 Q 356.35 193.85 362.40 188.65 Q 364.55 195.20 366.05 201.20 L 348.65 198.20" fill="#ffe4c4" stroke="#0f172a" stroke-width="1.2" /><path d="M 328.80 302.35 Q 330.15 303.15 329.60 306.10 Q 329.05 309.10 326.85 309.00 L 325.65 307.25 Q 326.90 305.85 326.95 303.75 Q 326.95 302.05 326.15 300.75 Q 327.65 301.60 328.80 302.35" fill="#ffe4c4" stroke="#0f172a" stroke-width="1.2" /><path d="M 325.90 301.40 Q 326.40 302.45 326.35 303.70 Q 326.35 305.55 325.35 306.80 Q 323.70 304.55 321.25 302.75 L 319.80 301.75 L 319.75 300.05 Q 319.45 298.35 318.40 297.25 L 322.70 299.00 L 324.60 299.90 Q 325.40 300.35 325.90 301.40" fill="#ffe4c4" stroke="#0f172a" stroke-width="1.2" /><path d="M 326.90 312.50 Q 327.25 313.35 326.90 314.50 Q 326.55 315.55 325.65 316.45 Q 324.45 317.55 323.00 317.85 Q 321.65 318.10 320.95 317.50 L 320.65 317.20 Q 320.15 315.40 319.40 314.10 L 318.65 312.80 Q 319.75 312.85 320.95 312.10 Q 322.30 311.20 322.95 309.75 Q 323.70 308.10 323.30 306.65 Q 324.75 308.30 326.00 310.55 L 326.90 312.50" fill="#ffe4c4" stroke="#0f172a" stroke-width="1.2" /><path d="M 327.85 318.70 Q 327.30 320.85 325.70 321.20 Q 324.15 321.55 322.50 320.65 L 321.15 319.65 L 320.85 318.05 L 323.25 318.25 Q 324.80 317.95 326.05 316.85 Q 327.10 315.85 327.55 314.20 L 328.05 316.00 Q 328.30 317.10 327.85 318.70" fill="#ffe4c4" stroke="#0f172a" stroke-width="1.2" /><path d="M 327.15 299.60 L 323.35 297.65 L 322.05 297.05 L 322.05 259.00 L 322.75 259.15 L 323.25 259.05 L 327.15 257.20 L 327.15 299.60" fill="#ffe4c4" stroke="#0f172a" stroke-width="1.2" /><path d="M 281.10 69.90 L 282.80 70.15 L 284.55 70.20 L 288.95 69.10 Q 291.75 68.05 295.40 69.65 L 299.70 71.45 Q 301.80 71.20 305.15 72.90 L 309.70 75.75 Q 313.50 78.70 315.80 85.55 Q 317.00 88.95 317.40 91.80 Q 314.70 88.55 310.55 87.35 L 305.60 86.40 Q 306.45 84.60 306.75 82.80 Q 307.20 80.45 306.35 79.30 Q 305.00 77.50 303.20 76.85 Q 300.65 76.00 298.05 77.90 Q 297.20 78.50 295.40 80.85 Q 293.85 82.90 293.10 83.10 L 287.95 81.55 Q 283.50 80.15 282.30 81.75 L 280.30 85.20 L 278.85 87.65 Q 278.20 88.65 277.40 88.70 L 275.90 88.75 L 273.50 89.00 Q 272.40 89.40 271.45 90.95 Q 270.85 91.90 270.20 95.50 L 269.50 99.30 Q 268.70 101.30 267.45 102.30 Q 266.00 103.50 264.30 103.05 Q 261.85 102.40 259.90 100.20 Q 258.00 98.10 257.65 95.80 Q 257.40 94.05 257.95 92.30 Q 258.70 94.05 260.25 94.30 Q 262.35 94.70 264.10 93.45 Q 265.85 92.20 266.35 89.90 Q 267.95 83.15 269.15 82.05 Q 270.25 81.05 272.85 80.55 Q 274.95 80.20 275.30 79.00 L 275.70 76.00 Q 276.10 71.20 277.00 70.50 Q 278.20 69.60 281.10 69.90" fill="#ffe4c4" stroke="#0f172a" stroke-width="1.2" /><path d="M 272.70 91.40 Q 273.65 89.90 277.05 90.15 Q 278.65 90.00 279.90 88.90 L 282.00 86.30 Q 283.15 84.50 285.50 84.00 Q 288.05 83.40 290.95 84.50 Q 293.10 85.30 295.45 82.50 Q 296.55 81.30 298.85 79.60 Q 301.10 77.95 303.60 80.10 Q 306.25 82.40 303.70 86.45 L 303.50 87.05 Q 303.50 87.60 304.25 87.65 L 310.00 88.35 Q 315.25 89.80 317.45 93.95 Q 314.35 91.45 310.85 90.10 Q 306.70 88.70 305.60 88.90 Q 304.90 89.00 304.85 89.55 Q 304.85 90.05 305.45 90.05 L 307.05 90.35 L 310.45 91.25 Q 313.45 92.05 317.70 95.05 L 317.90 96.00 Q 314.60 93.70 311.65 92.80 Q 309.20 92.10 307.55 92.30 Q 306.95 92.40 307.15 92.95 Q 307.40 93.55 308.30 93.60 L 311.35 94.05 L 315.15 95.60 L 318.05 97.10 L 318.15 97.55 L 317.55 98.15 Q 317.10 98.80 317.95 99.25 Q 322.60 99.95 322.80 104.65 Q 323.00 109.30 318.75 111.00 Q 318.65 120.25 314.95 127.05 Q 313.95 128.85 315.70 127.70 Q 317.45 126.55 318.80 123.85 Q 320.55 128.20 316.25 134.15 Q 312.10 139.90 308.25 139.55 Q 309.00 139.30 310.85 137.45 Q 312.75 135.60 312.40 135.30 L 309.70 137.00 Q 306.00 139.10 300.20 139.60 Q 294.45 140.10 288.85 137.85 Q 283.50 135.80 279.10 131.60 Q 276.05 128.75 273.75 125.10 L 273.80 125.10 L 273.55 124.75 Q 275.70 124.70 277.55 123.85 Q 281.05 122.20 282.40 118.75 L 290.10 120.05 L 285.05 116.35 L 283.30 105.65 L 284.20 105.30 L 285.35 107.80 Q 287.45 111.40 291.40 113.10 Q 295.30 114.80 299.10 113.90 L 301.05 113.25 Q 305.15 111.40 306.30 107.15 Q 307.50 102.95 305.05 98.85 Q 302.60 94.75 298.00 93.20 Q 293.40 91.60 289.35 93.45 Q 285.05 95.40 284.00 99.85 Q 281.15 100.40 278.50 101.75 Q 276.00 103.00 275.40 104.15 Q 271.35 102.50 268.70 103.05 Q 270.10 101.85 270.90 99.65 L 271.60 95.75 Q 272.25 92.15 272.70 91.40" fill="#ffe4c4" stroke="#0f172a" stroke-width="1.2" /><path d="M 297.50 94.30 Q 301.45 95.65 303.50 99.15 Q 305.60 102.65 304.60 106.25 Q 303.60 109.90 300.10 111.45 Q 296.60 113.05 292.65 111.70 Q 288.70 110.35 286.60 106.85 Q 284.50 103.35 285.50 99.70 Q 286.50 96.10 290.00 94.50 L 297.50 94.30" fill="#ffe4c4" stroke="#0f172a" stroke-width="1.2" /><path d="M 309.90 96.95 L 312.20 97.15 Q 312.60 97.20 314.45 97.95 L 315.50 97.90 Q 315.40 97.50 314.40 96.90 L 312.50 96.00 L 309.55 95.70 Q 309.05 95.75 309.05 96.30 Q 309.10 96.90 309.90 96.95" fill="#ffe4c4" stroke="#0f172a" stroke-width="1.2" /><path d="M 220.40 147.35 Q 219.90 147.90 220.00 148.65 Q 220.05 149.40 220.60 149.85 Q 221.15 150.35 221.90 150.30 Q 222.60 150.20 223.10 149.65 Q 223.60 149.10 223.55 148.35 Q 223.45 147.65 222.90 147.15 Q 222.35 146.65 221.60 146.75 Q 220.90 146.80 220.40 147.35" fill="#ffe4c4" stroke="#0f172a" stroke-width="1.2" /><path d="M 214.45 131.95 Q 218.35 128.50 223.55 128.80 Q 228.75 129.05 232.20 132.95 L 233.30 134.30 Q 232.40 136.05 230.75 137.95 Q 229.95 138.85 228.40 139.60 L 225.10 140.75 Q 221.40 141.95 219.10 143.15 Q 214.90 145.40 214.00 150.25 L 213.50 149.75 Q 210.00 145.85 210.30 140.65 Q 210.60 135.45 214.45 131.95" fill="#ffe4c4" stroke="#0f172a" stroke-width="1.2" /><path d="M 229.45 141.30 Q 231.25 140.45 232.30 139.25 L 234.40 136.40 Q 235.55 139.10 235.40 142.00 Q 235.25 144.90 233.80 147.45 L 233.95 147.65 L 233.90 147.70 L 248.65 165.50 L 248.45 166.35 L 229.45 152.20 L 229.35 152.30 L 229.15 152.20 Q 226.05 154.05 222.40 153.90 Q 218.80 153.80 215.80 151.75 Q 216.15 146.95 220.05 144.90 Q 222.20 143.75 225.70 142.70 L 229.45 141.30" fill="#ffe4c4" stroke="#0f172a" stroke-width="1.2" /><path d="M 235.30 170.05 L 238.70 173.20 Q 242.65 175.90 246.65 174.60 L 246.50 175.10 Q 245.70 175.90 243.75 176.05 Q 241.10 176.20 238.50 174.45 Q 234.95 172.10 233.85 167.85 Q 232.75 163.70 234.10 158.20 L 241.55 163.90 L 242.30 165.00 L 243.30 165.70 Q 244.50 166.40 245.35 166.35 Q 246.50 166.30 247.85 166.80 Q 249.35 167.35 249.40 168.10 Q 249.50 168.90 246.95 169.35 L 243.75 169.55 Q 240.40 168.60 237.15 163.45 L 236.30 162.45 Q 235.85 162.10 235.55 162.25 Q 234.65 162.60 235.75 164.50 Q 237.40 167.30 239.60 169.00 Q 242.50 171.30 245.95 171.25 L 247.95 171.15 L 248.55 171.20 Q 248.35 172.45 247.35 173.00 Q 245.60 174.05 243.30 173.55 Q 239.90 172.85 236.50 168.90 L 235.40 168.95 Q 234.85 169.50 235.30 170.05" fill="#ffe4c4" stroke="#0f172a" stroke-width="1.2" /><path d="M 242.30 182.85 L 241.95 182.90 L 241.95 182.95 Q 237.60 183.80 234.55 187.65 L 233.70 188.75 L 233.10 189.70 L 232.95 190.10 L 232.55 190.70 L 231.80 192.40 L 230.65 196.20 L 230.45 197.35 L 230.45 197.40 L 230.30 198.55 Q 228.80 198.40 226.90 198.50 L 221.10 199.50 Q 218.50 200.20 215.70 201.50 Q 213.35 202.60 210.75 204.25 L 206.25 207.65 Q 203.90 209.65 202.25 211.45 L 198.60 215.50 L 195.35 219.85 L 192.40 224.45 L 191.40 226.20 L 154.20 219.85 L 235.80 180.65 L 245.30 182.25 L 242.40 182.85 L 242.30 182.85" fill="#ffe4c4" stroke="#0f172a" stroke-width="1.2" /><path d="M 242.55 184.50 L 242.65 184.45 L 242.70 184.45 Q 246.85 183.85 250.90 186.55 Q 254.35 188.90 256.85 193.05 Q 259.40 197.20 260.40 202.30 Q 261.40 207.40 260.65 212.20 Q 259.90 217.05 257.60 220.50 Q 254.85 224.55 250.80 225.55 L 250.65 225.55 L 250.40 225.65 Q 247.20 226.25 243.90 224.80 Q 243.15 224.50 241.75 223.60 L 240.20 222.45 L 238.40 220.70 L 237.50 219.55 L 237.30 219.35 L 236.90 218.80 L 236.90 218.75 Q 235.35 216.65 234.05 213.70 L 234.45 213.40 L 235.50 214.60 Q 238.30 217.40 242.25 217.35 Q 246.15 217.30 248.90 214.50 Q 251.65 211.75 251.65 207.80 Q 251.65 203.90 248.85 201.10 Q 246.10 198.35 242.15 198.40 Q 238.20 198.45 235.45 201.20 Q 234.55 202.05 233.85 203.45 Q 233.15 204.90 233.00 206.30 L 232.10 206.75 Q 231.30 202.15 232.10 197.45 L 232.10 197.40 L 232.30 196.40 L 232.30 196.25 L 232.55 195.40 L 232.60 195.15 L 233.80 191.90 L 235.05 189.65 Q 237.90 185.45 242.25 184.50 L 242.55 184.50" fill="#ffe4c4" stroke="#0f172a" stroke-width="1.2" /><path d="M 242.55 146.55 L 246.80 146.35 Q 250.05 146.75 251.95 148.55 Q 254.85 151.85 256.25 154.95 Q 257.95 158.65 256.35 160.00 Q 254.70 161.40 253.65 163.60 L 252.35 166.35 L 251.85 167.25 Q 251.20 168.00 250.60 167.10 Q 250.00 166.25 249.90 165.00 L 249.95 163.95 L 251.30 160.70 Q 251.95 158.55 249.50 156.15 L 248.40 156.05 Q 247.80 156.45 248.15 157.05 L 249.05 158.25 Q 249.65 159.10 249.25 159.65 Q 247.75 158.95 246.35 160.20 L 237.95 149.60 Q 239.95 147.30 242.55 146.55" fill="#ffe4c4" stroke="#0f172a" stroke-width="1.2" /><path d="M 314.45 100.20 Q 314.05 99.60 313.05 99.25 L 311.55 99.00 Q 311.00 99.00 311.00 99.60 Q 311.00 100.15 311.55 100.20 L 312.40 100.35 Q 313.30 100.65 313.55 101.00 Q 313.90 101.50 314.40 101.15 Q 314.90 100.85 314.45 100.20" fill="#ffe4c4" stroke="#0f172a" stroke-width="1.2" /><path d="M 306.80 122.75 L 307.35 122.85 L 307.45 122.35 L 306.75 117.75 L 306.35 117.05 L 305.60 116.60 L 299.70 115.00 L 299.35 115.00 Q 298.85 115.00 299.40 115.55 L 300.50 116.80 Q 300.80 117.10 300.60 117.60 L 300.05 118.40 Q 294.55 123.15 291.50 124.70 Q 289.60 125.65 285.90 126.40 L 282.55 126.95 L 281.75 126.85 L 281.25 126.25 L 281.05 125.55 L 280.75 125.15 Q 280.55 125.15 280.45 125.55 L 279.45 128.30 Q 279.15 129.25 279.95 129.85 L 283.10 132.20 Q 283.80 132.75 283.55 131.90 L 283.35 131.45 Q 283.20 131.05 283.35 130.75 Q 283.55 130.45 283.95 130.40 L 287.60 131.05 Q 291.80 131.50 294.65 130.45 Q 297.55 129.40 301.30 124.95 L 304.45 120.70 L 306.00 120.60 L 306.80 122.75" fill="#ffe4c4" stroke="#0f172a" stroke-width="1.2" /><path d="M 296.40 104.35 Q 297.45 103.95 297.55 103.20 Q 297.65 102.45 296.80 101.80 Q 295.90 101.15 294.50 100.90 L 292.05 101.05 Q 290.95 101.45 290.85 102.20 Q 290.75 102.95 291.65 103.65 Q 292.55 104.30 293.95 104.50 L 296.40 104.35" fill="#ffe4c4" stroke="#0f172a" stroke-width="1.2" /><path d="M 301.75 118.65 L 303.25 118.55 Q 304.00 118.80 303.90 119.50 L 303.40 120.45 L 297.55 126.50 Q 296.20 127.55 293.85 128.50 Q 291.40 129.55 289.95 129.60 L 283.45 129.70 Q 282.70 129.85 282.15 129.00 Q 281.60 128.25 282.80 127.90 L 286.20 127.25 Q 290.05 126.45 292.30 125.40 Q 295.90 123.75 300.85 119.20 L 301.75 118.65" fill="#ffe4c4" stroke="#0f172a" stroke-width="1.2" /><path d="M 296.75 131.20 L 295.90 131.35 L 292.15 133.25 Q 291.25 133.75 292.20 133.90 L 294.10 134.15 Q 295.55 134.20 296.95 133.05 L 297.45 132.35 L 297.35 131.60 Q 297.15 131.25 296.75 131.20" fill="#ffe4c4" stroke="#0f172a" stroke-width="1.2" /><path d="M 273.85 109.15 Q 272.75 109.55 272.65 110.30 Q 272.55 111.05 273.45 111.70 Q 274.35 112.35 275.75 112.60 L 278.20 112.45 Q 279.25 112.05 279.35 111.30 Q 279.50 110.55 278.60 109.85 Q 277.70 109.20 276.30 109.00 L 273.85 109.15" fill="#ffe4c4" stroke="#0f172a" stroke-width="1.2" /><path d="M 281.50 109.45 L 279.80 107.20 L 281.75 106.25 L 281.85 110.05 L 281.50 109.45" fill="#ffe4c4" stroke="#0f172a" stroke-width="1.2" /><path d="M 280.20 110.05 Q 282.35 113.60 281.35 117.30 Q 280.30 120.95 276.75 122.55 Q 275.00 123.40 272.70 123.40 Q 270.90 120.15 270.00 117.05 Q 268.25 111.25 268.40 104.75 Q 271.70 104.00 275.00 105.45 Q 278.40 106.95 280.20 110.05" fill="#ffe4c4" stroke="#0f172a" stroke-width="1.2" /><path d="M 264.35 104.60 L 262.85 106.10 Q 262.50 105.05 262.75 104.45 Q 263.05 103.85 264.00 104.05 L 265.40 104.25 L 264.70 104.65 L 264.35 104.60" fill="#ffe4c4" stroke="#0f172a" stroke-width="1.2" /><path d="M 264.40 106.75 Q 265.30 105.90 266.70 105.35 Q 266.70 108.75 266.85 110.35 Q 264.75 109.10 263.95 108.05 L 263.60 107.60 L 264.40 106.75" fill="#ffe4c4" stroke="#0f172a" stroke-width="1.2" /><path d="M 267.80 116.50 Q 268.55 119.95 270.05 123.00 Q 265.45 121.85 263.10 117.85 Q 261.80 115.70 261.70 113.35 Q 261.60 111.10 262.60 109.15 L 263.25 109.75 Q 264.70 111.05 267.05 112.25 Q 267.35 114.55 267.80 116.50" fill="#ffe4c4" stroke="#0f172a" stroke-width="1.2" /><path d="M 258.70 144.25 L 265.00 144.40 Q 266.90 143.75 268.40 142.65 Q 269.05 142.35 268.75 141.60 L 266.05 141.95 Q 263.45 142.35 263.45 141.40 L 270.70 136.65 L 270.75 136.65 L 273.35 135.35 L 273.30 135.35 L 277.30 133.25 L 279.70 135.20 Q 282.00 137.00 283.30 137.70 Q 284.60 142.20 287.90 145.75 Q 291.10 149.30 295.00 150.60 L 295.20 150.65 L 295.75 150.85 L 296.35 151.60 L 296.65 152.55 L 297.25 157.50 L 284.80 159.95 L 284.65 159.95 L 283.15 160.25 Q 282.90 160.35 282.80 160.60 L 283.00 161.00 L 283.65 161.45 L 283.70 161.50 Q 285.95 163.25 286.90 166.55 L 280.25 159.15 L 280.00 161.45 L 281.40 163.20 Q 274.85 167.45 267.05 166.95 L 255.55 164.65 Q 257.40 162.50 258.00 161.05 Q 259.05 158.45 257.95 155.65 Q 255.40 149.05 251.40 146.35 Q 249.05 144.80 245.55 144.60 Q 244.90 144.60 246.20 144.10 Q 247.60 143.55 249.55 143.25 Q 255.30 142.30 258.70 144.25" fill="#ffe4c4" stroke="#0f172a" stroke-width="1.2" /><path d="M 252.70 169.65 L 260.50 177.40 L 260.65 179.25 L 260.15 179.30 L 251.20 170.35 L 251.45 169.80 L 252.70 169.65" fill="#ffe4c4" stroke="#0f172a" stroke-width="1.2" /><path d="M 261.80 180.65 L 269.20 179.20 L 270.45 179.90 L 272.35 181.30 L 264.40 183.00 L 261.80 180.90 L 261.80 180.65" fill="#ffe4c4" stroke="#0f172a" stroke-width="1.2" /><path d="M 281.95 179.25 L 274.25 180.90 L 271.55 178.75 L 278.95 177.25 L 280.25 178.00 L 281.95 179.25" fill="#ffe4c4" stroke="#0f172a" stroke-width="1.2" /><path d="M 269.45 187.70 L 265.10 184.80 L 284.60 180.80 Q 282.85 183.80 280.50 185.80 Q 278.15 187.85 275.60 188.50 Q 272.20 189.45 269.55 187.75 L 269.45 187.70" fill="#ffe4c4" stroke="#0f172a" stroke-width="1.2" /><path d="M 305.05 167.05 L 304.95 164.80 Q 307.65 163.55 307.65 161.70 Q 307.65 160.45 306.05 159.90 Q 304.40 159.40 302.00 159.90 Q 299.60 160.35 298.00 161.50 Q 296.40 162.65 296.40 163.95 Q 296.45 165.05 297.70 165.60 L 300.85 165.95 L 300.85 167.90 Q 300.90 170.05 301.35 171.55 Q 301.95 173.60 303.05 173.40 Q 304.15 173.15 304.70 170.90 Q 305.10 169.20 305.05 167.05" fill="#ffe4c4" stroke="#0f172a" stroke-width="1.2" /><path d="M 304.85 163.55 Q 304.45 161.25 302.85 161.55 Q 301.15 161.85 300.90 164.70 L 298.55 164.50 Q 297.65 164.20 297.65 163.70 Q 297.60 163.10 298.80 162.35 Q 300.10 161.55 302.00 161.15 Q 303.90 160.75 305.25 161.10 Q 306.45 161.35 306.45 161.95 Q 306.45 162.70 304.85 163.55" fill="#ffe4c4" stroke="#0f172a" stroke-width="1.2" /><path d="M 303.95 170.65 L 303.40 172.05 L 303.10 172.15 Q 302.55 171.95 302.45 167.55 Q 302.40 165.20 302.50 164.30 Q 302.65 162.85 303.25 162.70 Q 303.85 162.55 304.05 164.00 L 304.25 167.20 Q 304.30 169.15 303.95 170.65" fill="#ffe4c4" stroke="#0f172a" stroke-width="1.2" /><path d="M 316.60 170.45 L 317.05 168.15 L 318.30 171.40 Q 317.60 170.95 316.60 170.45" fill="#ffe4c4" stroke="#0f172a" stroke-width="1.2" /><path d="M 315.25 163.20 Q 315.90 168.90 312.75 174.70 Q 311.00 177.90 308.45 180.10 Q 305.90 182.25 303.20 182.90 L 303.15 182.90 L 281.95 187.30 Q 284.75 184.85 286.55 181.50 Q 289.40 176.25 289.40 170.65 Q 289.35 165.10 286.55 161.55 L 312.40 156.50 Q 313.45 157.55 314.10 158.95 Q 314.50 160.85 315.25 163.20" fill="#ffe4c4" stroke="#0f172a" stroke-width="1.2" /><path d="M 285.75 178.45 L 283.85 178.85 L 281.30 176.80 L 286.70 175.75 L 285.75 178.45" fill="#ffe4c4" stroke="#0f172a" stroke-width="1.2" /><path d="M 304.85 184.55 Q 308.00 183.45 310.75 180.75 L 312.05 181.10 Q 312.75 181.70 312.40 182.60 Q 312.10 183.40 311.30 184.00 L 304.85 184.55" fill="#ffe4c4" stroke="#0f172a" stroke-width="1.2" /><path d="M 152.35 221.20 L 190.60 227.70 L 189.80 229.25 L 187.65 234.25 L 187.60 234.40 L 152.35 228.40 L 152.35 221.20" fill="#ffe4c4" stroke="#0f172a" stroke-width="1.2" /><path d="M 285.10 215.65 Q 284.95 216.80 284.35 217.50 Q 283.75 218.20 283.05 218.10 L 282.70 218.00 L 279.20 215.10 Q 280.00 215.05 280.65 214.30 Q 281.25 213.55 281.50 212.40 Q 281.75 211.30 281.50 210.45 L 284.50 213.05 Q 285.40 213.95 285.10 215.65" fill="#ffe4c4" stroke="#0f172a" stroke-width="1.2" /><path d="M 285.30 213.70 L 288.55 216.25 Q 289.45 217.15 289.20 218.90 Q 289.05 220.00 288.45 220.75 Q 287.85 221.45 287.15 221.35 L 286.80 221.25 L 283.35 218.50 Q 284.10 218.45 284.75 217.65 Q 285.35 216.85 285.50 215.70 Q 285.65 214.65 285.30 213.70" fill="#ffe4c4" stroke="#0f172a" stroke-width="1.2" /><path d="M 289.55 218.95 Q 289.70 217.80 289.40 216.95 L 292.65 219.55 Q 293.55 220.45 293.25 222.20 Q 293.05 223.30 292.45 224.00 Q 291.85 224.70 291.15 224.60 L 290.80 224.50 L 287.40 221.75 Q 288.15 221.70 288.80 220.90 Q 289.40 220.10 289.55 218.95" fill="#ffe4c4" stroke="#0f172a" stroke-width="1.2" /><path d="M 293.50 220.25 L 296.65 223.00 Q 297.55 223.90 297.20 225.70 Q 296.95 226.80 296.25 227.50 Q 295.60 228.15 294.90 228.00 L 294.60 227.85 L 292.40 225.90 L 291.40 225.00 L 292.80 224.15 Q 293.45 223.40 293.65 222.25 Q 293.80 221.10 293.50 220.25" fill="#ffe4c4" stroke="#0f172a" stroke-width="1.2" /><path d="M 296.60 227.65 Q 297.30 226.90 297.55 225.80 Q 297.80 224.60 297.50 223.75 L 300.55 226.75 Q 301.40 227.75 300.90 229.45 Q 300.55 230.55 299.85 231.20 Q 299.15 231.80 298.45 231.60 L 298.15 231.45 L 295.15 228.40 Q 295.90 228.35 296.60 227.65" fill="#ffe4c4" stroke="#0f172a" stroke-width="1.2" /><path d="M 301.25 229.60 Q 301.55 228.50 301.30 227.55 L 304.15 230.75 Q 304.90 231.85 304.30 233.50 Q 303.85 234.55 303.10 235.15 Q 302.35 235.70 301.70 235.45 L 301.40 235.25 L 298.65 232.00 Q 299.40 232.05 300.15 231.35 Q 300.90 230.65 301.25 229.60" fill="#ffe4c4" stroke="#0f172a" stroke-width="1.2" /><path d="M 298.80 233.60 L 301.90 237.45 L 304.55 241.55 L 306.80 245.90 L 241.80 234.80 L 241.75 232.75 Q 241.70 229.35 238.45 226.65 Q 235.30 224.05 230.15 223.00 L 228.45 222.70 Q 228.90 220.90 229.95 218.60 Q 231.10 216.40 232.45 215.05 L 232.75 214.75 L 234.60 218.30 L 237.35 221.90 L 237.50 222.05 L 238.05 222.70 L 239.05 223.55 L 239.10 223.65 L 240.85 224.95 Q 245.75 228.25 250.70 227.25 L 251.05 227.15 L 251.15 227.15 L 284.40 220.55 L 291.80 226.60 L 295.45 230.00 L 298.80 233.60" fill="#ffe4c4" stroke="#0f172a" stroke-width="1.2" /><path d="M 303.40 235.35 Q 304.20 234.75 304.65 233.65 Q 305.05 232.60 304.90 231.65 L 307.45 235.10 Q 308.15 236.20 307.30 237.85 Q 306.80 238.85 306.00 239.35 L 304.55 239.50 L 304.30 239.30 L 301.85 235.85 Q 302.60 235.95 303.40 235.35" fill="#ffe4c4" stroke="#0f172a" stroke-width="1.2" /><path d="M 322.10 227.55 L 322.00 227.95 L 322.00 231.40 L 319.60 231.35 Q 314.30 231.10 312.80 229.30 Q 312.50 228.90 312.55 228.50 L 312.55 225.50 Q 314.55 227.25 319.65 227.50 L 322.10 227.55" fill="#ffe4c4" stroke="#0f172a" stroke-width="1.2" /><path d="M 307.65 238.05 Q 308.15 236.90 308.10 236.05 L 310.30 239.75 Q 310.90 240.95 309.90 242.45 L 308.45 243.80 L 307.05 243.85 L 306.75 243.60 L 305.40 241.05 L 304.65 239.95 Q 305.40 240.10 306.25 239.60 Q 307.15 239.05 307.65 238.05" fill="#ffe4c4" stroke="#0f172a" stroke-width="1.2" /><path d="M 308.70 244.10 Q 309.65 243.65 310.25 242.65 Q 310.85 241.75 310.85 240.75 L 312.75 244.60 Q 313.20 245.90 312.10 247.30 Q 311.40 248.20 310.50 248.50 L 309.05 248.40 L 308.85 248.15 L 307.10 244.30 L 308.70 244.10" fill="#ffe4c4" stroke="#0f172a" stroke-width="1.2" /><path d="M 278.30 206.95 L 279.90 208.90 L 280.75 209.75 Q 281.55 210.65 281.15 212.35 Q 280.90 213.45 280.30 214.15 Q 279.65 214.85 278.95 214.70 L 278.60 214.55 L 275.30 211.10 Q 276.05 211.25 276.80 210.55 Q 277.50 209.95 277.95 208.80 L 278.30 206.95" fill="#ffe4c4" stroke="#0f172a" stroke-width="1.2" /><path d="M 277.20 205.05 L 277.80 206.20 Q 278.30 207.00 277.60 208.70 Q 277.15 209.80 276.50 210.35 Q 275.75 210.95 275.05 210.65 L 274.70 210.45 L 273.10 207.95 Q 273.40 206.50 274.55 205.70 Q 275.75 204.85 277.20 205.05" fill="#ffe4c4" stroke="#0f172a" stroke-width="1.2" /><path d="M 281.65 209.20 L 281.55 209.15 Q 281.70 207.30 280.55 205.75 Q 279.35 204.15 277.55 203.95 Q 275.60 203.65 273.85 204.90 Q 272.05 206.20 271.80 208.10 Q 271.55 210.00 272.90 211.65 Q 274.20 213.20 276.15 213.50 L 276.30 213.65 L 274.05 213.70 Q 271.15 213.30 269.40 210.95 Q 267.70 208.65 268.05 205.75 Q 268.45 202.90 270.80 201.15 Q 273.10 199.40 276.00 199.75 Q 278.90 200.15 280.65 202.50 Q 282.40 204.80 282.00 207.70 L 281.65 209.20" fill="#ffe4c4" stroke="#0f172a" stroke-width="1.2" /><path d="M 243.50 209.10 Q 243.40 210.05 242.80 210.35 L 242.50 210.45 L 239.75 210.60 L 238.50 210.75 Q 238.90 210.15 238.75 209.20 Q 238.60 208.15 237.80 207.30 Q 237.05 206.55 235.90 206.30 L 239.15 205.65 L 240.65 205.50 Q 242.10 205.60 243.05 207.15 Q 243.60 208.15 243.50 209.10" fill="#ffe4c4" stroke="#0f172a" stroke-width="1.2" /><path d="M 244.15 204.45 Q 242.80 203.10 240.70 203.25 Q 238.65 203.35 237.25 204.70 L 237.05 204.75 Q 237.50 203.80 238.30 202.90 Q 240.35 200.85 243.30 200.85 Q 246.20 200.80 248.30 202.85 Q 250.35 204.85 250.35 207.80 Q 250.40 210.75 248.35 212.80 Q 246.30 214.85 243.40 214.90 Q 240.45 214.90 238.40 212.85 L 237.65 212.00 L 237.80 211.95 Q 239.25 212.95 241.05 212.85 Q 242.90 212.75 244.10 211.55 Q 245.45 210.15 245.50 208.00 Q 245.55 205.85 244.15 204.45" fill="#ffe4c4" stroke="#0f172a" stroke-width="1.2" /><path d="M 246.80 247.25 Q 248.30 249.10 248.30 251.75 Q 248.30 254.40 246.80 256.30 Q 245.30 258.15 243.15 258.15 Q 240.95 258.15 239.45 256.30 Q 237.90 254.40 237.90 251.75 Q 237.90 249.10 239.45 247.25 Q 241.00 245.35 243.15 245.35 Q 245.30 245.35 246.80 247.25" fill="#ffe4c4" stroke="#0f172a" stroke-width="1.2" /><path d="M 243.75 244.00 Q 242.80 243.20 241.90 243.00 L 241.80 236.45 L 307.60 247.70 L 308.65 250.40 L 310.00 255.00 L 310.05 255.30 L 254.45 245.80 L 252.55 247.15 L 251.50 247.75 Q 250.25 247.75 250.50 247.50 L 250.15 247.25 L 250.00 246.70 L 250.00 246.35 Q 250.00 245.95 250.85 245.20 L 243.75 244.00" fill="#ffe4c4" stroke="#0f172a" stroke-width="1.2" /><path d="M 266.25 249.50 Q 265.25 250.25 261.95 251.25 Q 257.40 252.60 254.95 252.60 L 253.70 252.45 L 253.15 252.00 L 253.00 251.25 Q 254.50 250.05 259.65 248.70 L 260.55 248.50 Q 265.10 247.40 266.40 248.00 L 266.55 248.05 L 266.65 248.85 L 266.25 249.50" fill="#ffe4c4" stroke="#0f172a" stroke-width="1.2" /><path d="M 268.50 262.50 Q 268.15 262.90 266.85 262.90 Q 261.75 262.90 257.20 260.00 Q 253.50 257.60 253.50 256.35 Q 253.50 253.45 258.70 256.00 L 268.85 261.05 L 269.10 261.60 L 268.50 262.50" fill="#ffe4c4" stroke="#0f172a" stroke-width="1.2" /><path d="M 315.05 250.80 L 315.80 253.70 L 316.05 255.05 Q 316.25 256.35 314.85 257.50 Q 314.00 258.25 313.05 258.35 Q 312.10 258.45 311.65 257.95 L 311.45 257.65 L 310.95 254.80 L 310.65 253.50 L 312.20 253.65 Q 313.20 253.40 314.05 252.60 Q 314.85 251.75 315.05 250.80" fill="#ffe4c4" stroke="#0f172a" stroke-width="1.2" /><path d="M 316.25 256.15 L 316.85 260.45 Q 316.85 261.80 315.35 262.80 Q 314.45 263.45 313.45 263.45 Q 312.55 263.45 312.15 262.90 L 312.00 262.55 L 311.75 259.70 L 311.60 258.35 Q 312.20 258.80 313.20 258.70 Q 314.20 258.55 315.10 257.80 Q 315.95 257.15 316.25 256.15" fill="#ffe4c4" stroke="#0f172a" stroke-width="1.2" /><path d="M 318.65 259.30 Q 318.65 261.10 317.95 262.00 L 317.70 259.50 L 318.65 259.30" fill="#ffe4c4" stroke="#0f172a" stroke-width="1.2" /><path d="M 312.40 247.50 Q 313.15 246.50 313.20 245.65 L 314.65 249.70 Q 315.00 251.05 313.80 252.30 Q 313.00 253.10 312.05 253.35 L 310.65 253.10 L 310.45 252.80 L 309.10 248.85 L 310.70 248.80 Q 311.65 248.40 312.40 247.50" fill="#ffe4c4" stroke="#0f172a" stroke-width="1.2" /><path d="M 310.55 258.10 L 304.85 257.45 Q 302.00 256.75 299.95 255.25 L 310.40 257.00 L 310.55 258.10" fill="#ffe4c4" stroke="#0f172a" stroke-width="1.2" /><path d="M 310.05 261.90 L 309.80 261.95 Q 309.25 262.55 308.05 263.15 Q 305.70 264.45 302.35 264.95 Q 297.10 265.55 292.40 265.20 L 286.45 264.35 L 285.80 264.20 Q 284.60 263.95 284.55 263.60 Q 284.55 262.80 286.90 261.50 Q 288.85 260.45 296.90 257.75 L 301.90 259.10 Q 306.95 260.25 310.85 260.40 L 311.05 263.10 L 310.15 262.05 L 310.05 261.90" fill="#ffe4c4" stroke="#0f172a" stroke-width="1.2" /><path d="M 313.60 263.80 Q 314.60 263.75 315.55 263.10 Q 316.50 262.45 316.90 261.60 L 317.05 264.55 L 317.05 265.90 Q 316.95 267.25 315.40 268.05 Q 314.40 268.60 313.45 268.55 Q 312.50 268.50 312.15 267.90 L 312.05 267.55 L 312.10 264.65 L 312.05 263.30 Q 312.60 263.85 313.60 263.80" fill="#ffe4c4" stroke="#0f172a" stroke-width="1.2" /><path d="M 313.55 268.90 Q 314.55 268.95 315.55 268.40 Q 316.50 267.90 317.05 267.00 L 316.80 271.30 Q 316.60 272.65 315.00 273.35 Q 313.95 273.80 313.05 273.65 Q 312.10 273.55 311.80 272.90 L 311.70 272.55 L 312.05 268.30 Q 312.55 268.85 313.55 268.90" fill="#ffe4c4" stroke="#0f172a" stroke-width="1.2" /><path d="M 316.70 272.40 L 316.40 275.30 L 316.20 276.65 Q 315.95 277.90 314.25 278.55 L 312.25 278.75 Q 311.35 278.55 311.10 277.95 L 311.00 277.55 L 311.45 274.65 L 311.65 273.30 Q 312.10 273.90 313.10 274.05 L 315.15 273.70 Q 316.30 273.20 316.70 272.40" fill="#ffe4c4" stroke="#0f172a" stroke-width="1.2" /><path d="M 315.50 280.60 L 315.25 281.90 Q 314.95 283.10 313.15 283.70 L 311.20 283.80 Q 310.30 283.55 310.05 282.90 L 310.00 282.55 L 310.90 278.30 Q 311.30 278.95 312.30 279.15 L 314.35 278.90 Q 315.50 278.50 316.00 277.75 L 315.50 280.60" fill="#ffe4c4" stroke="#0f172a" stroke-width="1.2" /><path d="M 313.30 284.05 Q 314.25 283.75 315.00 283.00 L 314.00 287.10 Q 313.55 288.30 311.85 288.80 Q 310.80 289.10 309.85 288.80 Q 308.95 288.50 308.75 287.85 L 308.75 287.50 L 309.85 283.30 Q 310.25 283.95 311.20 284.15 L 313.30 284.05" fill="#ffe4c4" stroke="#0f172a" stroke-width="1.2" /><path d="M 311.90 289.15 Q 312.95 288.85 313.70 288.20 L 312.50 292.25 Q 312.00 293.40 310.25 293.80 L 308.30 293.70 Q 307.40 293.40 307.25 292.70 L 307.25 292.35 L 308.55 288.20 Q 308.90 288.90 309.85 289.15 Q 310.80 289.45 311.90 289.15" fill="#ffe4c4" stroke="#0f172a" stroke-width="1.2" /><path d="M 305.10 295.45 Q 304.05 296.40 304.05 297.70 Q 304.05 299.05 305.25 300.05 Q 306.40 301.00 308.05 301.00 Q 309.75 301.00 310.90 300.05 Q 312.05 299.05 312.05 297.70 L 311.95 296.90 L 312.60 295.10 Q 314.65 296.15 314.80 298.40 Q 315.15 305.75 311.80 307.30 L 311.25 307.55 Q 308.40 308.95 306.95 309.20 Q 304.75 309.55 301.80 308.60 Q 300.05 308.00 298.65 306.70 Q 297.20 305.35 296.55 303.65 Q 295.40 300.90 296.65 298.40 L 298.95 295.75 Q 301.90 293.25 305.90 293.35 L 305.00 295.85 L 305.10 295.45" fill="#ffe4c4" stroke="#0f172a" stroke-width="1.2" /><path d="M 308.25 294.10 L 310.35 294.15 Q 311.45 293.90 312.15 293.30 L 310.80 297.25 Q 310.20 298.45 308.50 298.75 L 306.50 298.60 Q 305.60 298.20 305.50 297.50 L 305.50 297.20 L 307.00 293.05 Q 307.30 293.75 308.25 294.10" fill="#ffe4c4" stroke="#0f172a" stroke-width="1.2" /><path d="M 237.45 207.55 Q 238.25 208.40 238.40 209.35 Q 238.55 210.30 238.10 210.75 L 237.85 210.90 L 235.35 211.80 L 234.30 212.35 Q 234.40 211.65 234.00 210.85 Q 233.55 210.00 232.65 209.45 Q 231.15 208.85 230.30 209.05 L 231.60 208.10 L 233.25 207.30 L 234.65 206.70 L 236.05 206.75 Q 236.85 206.95 237.45 207.55" fill="#ffe4c4" stroke="#0f172a" stroke-width="1.2" /><path d="M 229.35 199.45 L 230.20 199.50 Q 230.00 201.70 230.15 204.30 Q 229.30 203.75 228.85 202.75 Q 228.30 201.70 228.30 200.85 Q 228.30 199.90 229.00 199.55 L 229.35 199.45" fill="#ffe4c4" stroke="#0f172a" stroke-width="1.2" /><path d="M 228.55 202.95 Q 229.10 203.95 229.75 204.45 L 227.25 204.45 L 226.10 204.50 Q 225.05 204.60 223.90 203.25 Q 223.15 202.40 222.95 201.50 Q 222.75 200.55 223.30 200.05 L 223.65 199.90 L 226.95 199.50 L 228.50 199.45 Q 227.90 199.95 227.95 201.00 Q 227.95 201.95 228.55 202.95" fill="#ffe4c4" stroke="#0f172a" stroke-width="1.2" /><path d="M 227.30 205.40 L 230.25 205.50 L 230.55 207.65 L 227.45 210.25 Q 225.35 212.50 223.80 215.50 Q 222.60 217.85 221.65 221.20 L 221.30 222.65 Q 216.85 223.15 213.35 224.85 Q 209.85 226.55 208.20 229.05 L 198.65 227.45 L 201.00 223.85 L 203.95 219.90 L 207.20 216.25 L 210.75 212.90 L 214.55 210.05 Q 216.75 208.60 218.60 207.75 Q 220.80 206.75 222.90 206.15 L 227.30 205.40" fill="#ffe4c4" stroke="#0f172a" stroke-width="1.2" /><path d="M 230.70 209.40 Q 231.80 209.30 232.95 210.15 Q 233.60 210.65 233.85 211.30 L 233.90 212.45 L 233.75 212.70 L 231.75 214.40 L 230.95 215.30 Q 230.85 214.55 230.10 213.95 Q 229.30 213.25 228.15 213.15 Q 227.15 213.00 226.05 213.55 L 228.15 210.95 L 229.30 209.90 Q 229.80 209.50 230.70 209.40" fill="#ffe4c4" stroke="#0f172a" stroke-width="1.2" /><path d="M 225.15 204.65 L 222.65 205.20 L 221.55 205.55 Q 220.45 205.80 219.05 204.70 Q 218.15 204.00 217.85 203.15 Q 217.50 202.30 217.95 201.70 L 218.25 201.45 L 221.35 200.40 L 222.80 200.05 Q 222.35 200.65 222.60 201.65 Q 222.80 202.60 223.60 203.50 L 225.15 204.65" fill="#ffe4c4" stroke="#0f172a" stroke-width="1.2" /><path d="M 230.55 215.85 L 229.10 218.20 L 228.60 219.35 Q 228.30 218.65 227.40 218.25 L 225.30 218.00 Q 224.10 218.25 223.40 218.90 L 224.70 215.95 L 225.40 214.65 Q 226.30 213.40 228.10 213.55 Q 229.20 213.60 229.95 214.25 Q 230.65 214.85 230.60 215.55 L 230.55 215.85" fill="#ffe4c4" stroke="#0f172a" stroke-width="1.2" /><path d="M 227.35 218.60 Q 228.20 219.00 228.30 219.65 L 228.30 220.00 L 227.40 222.70 L 227.10 224.00 Q 226.70 223.35 225.75 223.15 L 223.65 223.30 Q 222.60 223.65 221.95 224.50 L 222.65 221.45 L 223.05 220.05 Q 223.60 218.70 225.35 218.40 L 227.35 218.60" fill="#ffe4c4" stroke="#0f172a" stroke-width="1.2" /><path d="M 216.10 202.35 L 217.45 201.75 Q 217.10 202.45 217.55 203.40 Q 217.95 204.25 218.85 205.00 Q 219.80 205.70 220.60 205.85 L 217.15 207.40 Q 216.05 207.80 214.55 206.95 Q 213.55 206.40 213.10 205.60 Q 212.60 204.80 212.95 204.15 L 213.20 203.85 Q 214.70 203.00 216.10 202.35" fill="#ffe4c4" stroke="#0f172a" stroke-width="1.2" /><path d="M 214.40 207.25 Q 215.25 207.75 216.25 207.85 L 214.00 209.25 L 213.00 209.90 L 210.40 209.80 Q 209.35 209.40 208.75 208.65 Q 208.20 207.90 208.45 207.25 L 208.65 206.95 L 212.50 204.30 Q 212.30 205.05 212.85 205.85 Q 213.35 206.70 214.40 207.25" fill="#ffe4c4" stroke="#0f172a" stroke-width="1.2" /><path d="M 210.25 210.20 L 212.20 210.50 L 209.20 212.95 Q 208.15 213.65 206.55 213.20 Q 205.45 212.85 204.80 212.20 Q 204.15 211.50 204.35 210.85 L 204.55 210.50 L 208.00 207.45 Q 207.90 208.25 208.55 209.00 L 210.25 210.20" fill="#ffe4c4" stroke="#0f172a" stroke-width="1.2" /><path d="M 206.45 213.55 L 208.40 213.65 L 205.65 216.45 Q 204.80 217.20 203.05 216.90 Q 201.95 216.70 201.25 216.10 Q 200.55 215.45 200.65 214.75 L 200.80 214.40 L 203.95 211.05 Q 203.90 211.85 204.60 212.55 Q 205.35 213.25 206.45 213.55" fill="#ffe4c4" stroke="#0f172a" stroke-width="1.2" /><path d="M 204.95 217.20 L 202.45 220.25 Q 201.60 221.15 199.85 220.90 Q 198.75 220.80 198.00 220.25 Q 197.25 219.65 197.35 218.95 L 197.45 218.60 L 200.30 215.00 Q 200.30 215.80 201.10 216.45 Q 201.85 217.05 203.00 217.25 L 204.95 217.20" fill="#ffe4c4" stroke="#0f172a" stroke-width="1.2" /><path d="M 220.30 234.55 Q 221.75 235.35 223.75 235.35 Q 225.75 235.35 227.20 234.55 Q 228.65 233.75 228.65 232.60 Q 228.65 231.50 227.30 230.70 L 227.50 227.75 L 228.05 224.30 Q 233.25 225.00 236.65 227.35 Q 240.05 229.70 240.10 232.80 L 240.10 233.00 Q 239.95 236.70 235.40 239.15 Q 230.90 241.75 224.45 241.80 Q 220.20 241.85 216.50 240.65 Q 212.80 239.45 210.65 237.35 Q 208.60 235.40 208.60 233.10 Q 208.55 229.95 212.10 227.45 Q 215.60 225.00 221.00 224.30 L 220.60 227.00 L 220.40 230.60 Q 218.90 231.40 218.90 232.60 Q 218.90 233.75 220.30 234.55" fill="#ffe4c4" stroke="#0f172a" stroke-width="1.2" /><path d="M 221.35 231.40 Q 221.45 229.95 223.05 229.15 Q 224.05 228.60 225.00 228.70 Q 225.95 228.80 226.25 229.40 L 226.35 229.75 L 226.35 232.55 L 226.50 232.55 Q 225.80 233.65 223.75 233.65 Q 222.15 233.65 221.30 232.90 L 221.40 232.90 L 221.35 231.40" fill="#ffe4c4" stroke="#0f172a" stroke-width="1.2" /><path d="M 221.80 225.70 Q 222.05 224.25 223.80 223.70 L 225.75 223.55 Q 226.65 223.75 226.90 224.40 L 226.95 224.75 L 226.40 229.00 Q 225.95 228.40 224.95 228.30 Q 223.95 228.25 222.90 228.75 Q 221.85 229.40 221.40 230.20 L 221.60 227.10 L 221.80 225.70" fill="#ffe4c4" stroke="#0f172a" stroke-width="1.2" /><path d="M 206.95 233.10 L 207.10 237.75 L 194.60 235.60 L 197.80 228.95 L 207.45 230.55 Q 206.95 231.95 206.95 233.10" fill="#ffe4c4" stroke="#0f172a" stroke-width="1.2" /><path d="M 209.50 238.50 Q 211.90 240.85 215.85 242.20 Q 219.85 243.50 224.45 243.45 Q 229.70 243.40 233.95 241.65 Q 238.10 240.00 240.20 237.25 L 240.30 242.80 Q 237.80 243.05 236.10 245.75 Q 234.40 248.40 234.40 252.10 Q 234.40 255.75 236.10 258.45 Q 237.80 261.15 240.25 261.40 Q 239.45 266.20 236.40 269.30 Q 232.20 273.70 224.85 273.80 Q 218.65 273.90 214.00 269.30 Q 212.10 267.40 210.85 265.00 Q 213.20 266.85 216.50 267.90 Q 219.95 269.00 223.80 269.00 L 223.80 267.35 Q 218.60 267.35 214.55 265.40 Q 210.50 263.50 209.35 260.55 Q 209.05 259.20 209.05 257.75 Q 211.05 260.40 215.00 262.00 Q 219.00 263.65 223.80 263.65 L 223.80 262.00 Q 218.00 262.00 213.75 259.70 Q 209.55 257.40 209.00 254.00 L 209.00 252.35 Q 211.00 255.00 214.95 256.60 Q 219.00 258.25 223.80 258.25 L 223.80 256.65 Q 217.65 256.65 213.30 254.05 Q 208.95 251.45 208.95 247.80 L 208.90 246.85 Q 210.90 249.60 214.85 251.25 Q 218.90 252.90 223.80 252.90 L 223.80 251.25 Q 217.65 251.25 213.30 248.65 Q 208.95 246.10 208.95 242.45 L 208.80 242.45 L 208.70 237.65 L 209.50 238.50" fill="#ffe4c4" stroke="#0f172a" stroke-width="1.2" /><path d="M 199.85 221.25 L 201.80 221.05 L 199.45 224.25 Q 198.80 225.25 197.00 225.15 L 195.05 224.60 Q 194.25 224.10 194.30 223.40 L 194.40 223.00 L 196.95 219.25 Q 197.05 220.00 197.90 220.60 Q 198.70 221.20 199.85 221.25" fill="#ffe4c4" stroke="#0f172a" stroke-width="1.2" /><path d="M 180.90 234.90 L 180.90 270.05 Q 178.25 271.70 176.55 274.70 L 175.80 276.05 L 175.80 234.05 L 180.90 234.90" fill="#ffe4c4" stroke="#0f172a" stroke-width="1.2" /><path d="M 197.50 227.45 L 196.90 228.50 Q 196.15 229.45 194.45 229.60 Q 193.30 229.65 192.50 229.20 Q 191.70 228.75 191.65 228.05 L 191.70 227.70 L 193.20 224.95 L 193.95 223.70 Q 194.10 224.45 194.95 224.95 Q 195.80 225.45 196.95 225.50 L 198.90 225.15 L 197.50 227.45" fill="#ffe4c4" stroke="#0f172a" stroke-width="1.2" /><path d="M 196.40 229.40 L 194.65 232.95 Q 194.05 233.95 192.30 234.20 L 190.35 234.00 Q 189.50 233.65 189.40 232.90 L 189.40 232.55 L 191.30 228.40 Q 191.55 229.15 192.45 229.60 L 194.50 229.95 Q 195.60 229.85 196.40 229.40" fill="#ffe4c4" stroke="#0f172a" stroke-width="1.2" /><path d="M 189.10 233.30 Q 189.35 234.00 190.30 234.40 L 192.35 234.60 Q 193.40 234.45 194.20 233.90 L 192.75 237.55 Q 192.25 238.70 190.50 239.00 L 188.50 238.90 Q 187.60 238.60 187.50 237.90 L 187.50 237.55 L 188.55 234.65 L 189.10 233.30" fill="#ffe4c4" stroke="#0f172a" stroke-width="1.2" /><path d="M 190.60 239.40 Q 191.70 239.15 192.40 238.55 L 191.15 242.35 Q 190.70 243.50 189.05 243.95 Q 187.90 244.20 187.05 243.95 Q 186.15 243.70 185.95 243.00 L 185.90 242.65 L 186.80 239.65 L 187.20 238.30 Q 187.55 239.00 188.50 239.30 L 190.60 239.40" fill="#ffe4c4" stroke="#0f172a" stroke-width="1.2" /><path d="M 187.05 235.95 L 185.90 239.40 L 184.40 244.55 Q 183.95 246.30 183.25 249.80 L 182.90 251.75 L 182.90 235.25 L 187.05 235.95" fill="#ffe4c4" stroke="#0f172a" stroke-width="1.2" /><path d="M 187.05 244.35 L 189.15 244.25 Q 190.15 244.05 190.85 243.35 L 189.90 247.20 Q 189.50 248.35 187.80 248.90 L 185.85 249.10 Q 184.95 248.85 184.70 248.20 L 184.65 247.80 L 185.70 243.40 Q 186.10 244.10 187.05 244.35" fill="#ffe4c4" stroke="#0f172a" stroke-width="1.2" /><path d="M 199.80 243.05 Q 201.75 244.25 202.50 246.75 L 202.15 247.40 Q 201.80 247.75 201.00 247.75 Q 200.25 247.75 196.15 244.25 Q 197.55 241.60 199.80 243.05" fill="#ffe4c4" stroke="#0f172a" stroke-width="1.2" /><path d="M 195.75 246.30 Q 200.85 248.75 202.50 249.15 L 201.85 250.15 Q 201.50 250.65 200.75 250.65 Q 197.50 250.65 195.00 248.80 L 193.20 247.15 Q 193.20 245.05 195.75 246.30" fill="#ffe4c4" stroke="#0f172a" stroke-width="1.2" /><path d="M 201.40 253.50 L 201.50 254.25 Q 201.50 255.00 197.85 256.05 L 193.40 257.00 Q 191.25 257.00 190.80 256.40 L 190.75 255.65 Q 190.75 254.75 193.40 254.00 Q 196.45 253.20 201.25 253.35 L 201.40 253.50" fill="#ffe4c4" stroke="#0f172a" stroke-width="1.2" /><path d="M 188.85 252.15 Q 188.50 253.30 186.90 253.95 L 184.90 254.20 Q 183.95 254.05 183.70 253.40 L 183.65 253.00 L 184.45 248.60 Q 184.85 249.25 185.85 249.45 L 187.95 249.25 Q 188.80 249.00 189.65 248.25 L 188.85 252.15" fill="#ffe4c4" stroke="#0f172a" stroke-width="1.2" /><path d="M 187.00 254.30 Q 188.00 253.95 188.65 253.20 L 188.05 257.15 Q 187.80 258.35 186.15 259.05 L 184.20 259.40 Q 183.30 259.30 183.00 258.65 L 182.90 258.25 L 183.55 253.80 Q 183.95 254.45 184.95 254.60 L 187.00 254.30" fill="#ffe4c4" stroke="#0f172a" stroke-width="1.2" /><path d="M 184.25 259.75 L 186.30 259.40 Q 187.40 258.95 187.90 258.20 L 187.50 262.20 Q 187.35 263.40 185.70 264.20 Q 184.70 264.70 183.75 264.60 Q 182.80 264.55 182.50 263.90 L 182.40 263.55 L 182.80 259.05 Q 183.30 259.70 184.25 259.75" fill="#ffe4c4" stroke="#0f172a" stroke-width="1.2" /><path d="M 183.80 264.95 Q 184.80 265.00 185.85 264.50 L 187.40 263.25 L 187.15 267.30 Q 187.00 268.50 185.40 269.35 Q 184.40 269.90 183.50 269.85 Q 182.55 269.80 182.20 269.15 L 182.10 268.80 L 182.35 264.30 Q 182.85 264.90 183.80 264.95" fill="#ffe4c4" stroke="#0f172a" stroke-width="1.2" /><path d="M 185.60 269.65 L 187.10 268.35 L 186.95 272.40 Q 186.85 273.55 185.35 274.50 Q 184.35 275.05 183.45 275.05 Q 182.50 275.05 182.15 274.40 L 182.00 274.05 L 182.05 269.60 Q 182.60 270.15 183.60 270.20 Q 184.60 270.20 185.60 269.65" fill="#ffe4c4" stroke="#0f172a" stroke-width="1.2" /><path d="M 189.05 270.90 Q 191.40 271.60 192.40 274.10 Q 193.05 275.60 192.95 277.30 Q 192.90 279.00 192.15 280.45 Q 190.95 282.90 189.30 284.05 Q 188.30 284.75 185.60 285.70 L 185.10 285.85 Q 182.05 286.95 177.70 282.15 Q 176.65 281.00 176.80 279.65 Q 176.95 278.30 178.40 275.80 Q 179.55 273.80 181.05 272.60 L 181.05 275.80 Q 180.30 277.15 180.80 278.30 Q 181.30 279.60 182.85 280.10 L 186.05 279.90 Q 187.70 279.25 188.50 277.90 Q 189.35 276.50 188.85 275.25 Q 188.60 274.60 187.95 274.05 L 188.00 270.65 L 189.05 270.90" fill="#ffe4c4" stroke="#0f172a" stroke-width="1.2" /><path d="M 200.65 271.85 L 201.15 272.05 Q 201.95 272.65 201.75 273.90 Q 201.55 275.00 200.70 276.30 Q 199.45 278.20 198.50 278.40 L 197.35 278.50 L 194.90 279.20 L 194.95 278.80 L 195.50 277.00 Q 195.80 275.45 195.50 274.20 Q 195.20 272.90 194.30 272.45 L 196.25 272.00 L 200.65 271.85" fill="#ffe4c4" stroke="#0f172a" stroke-width="1.2" /><path d="M 182.00 274.85 Q 182.55 275.40 183.55 275.40 Q 184.55 275.40 185.55 274.80 L 186.95 273.45 L 187.00 276.90 Q 186.40 277.55 185.40 277.95 L 182.05 277.75 L 182.00 274.85" fill="#ffe4c4" stroke="#0f172a" stroke-width="1.2" /><path d="M 172.05 290.70 Q 172.30 291.95 173.40 293.05 Q 174.70 294.35 176.35 294.45 L 176.75 296.30 Q 175.40 297.70 173.20 296.15 Q 171.05 294.65 171.40 293.30 Q 171.55 292.35 172.05 290.70" fill="#ffe4c4" stroke="#0f172a" stroke-width="1.2" /><path d="M 179.90 287.45 Q 181.45 289.00 183.55 288.90 L 184.15 290.20 Q 184.00 291.50 184.15 292.85 L 184.00 293.20 Q 183.60 293.85 182.40 294.10 L 179.80 293.90 Q 178.80 293.50 178.10 292.65 Q 177.50 291.85 177.45 291.00 L 177.65 289.05 Q 177.85 287.50 178.40 285.80 L 179.15 286.40 L 179.90 287.45" fill="#ffe4c4" stroke="#0f172a" stroke-width="1.2" /><path d="M 176.35 288.90 Q 176.00 291.30 176.30 294.00 Q 174.95 293.85 173.75 292.70 Q 172.95 291.95 172.60 290.95 Q 172.25 289.95 172.50 289.20 L 173.10 287.45 L 174.70 283.70 Q 174.80 285.15 175.65 286.30 L 176.65 287.35 L 176.35 288.90" fill="#ffe4c4" stroke="#0f172a" stroke-width="1.2" /><path d="M 177.50 292.60 Q 178.15 293.80 179.65 294.35 L 182.35 294.55 Q 183.60 294.25 184.25 293.55 L 184.55 294.85 Q 185.05 296.45 185.70 297.55 L 185.75 297.95 Q 185.65 298.75 184.65 299.45 Q 183.55 300.15 182.10 300.20 L 180.10 299.75 Q 179.20 299.30 178.85 298.55 L 178.20 296.75 Q 177.55 294.30 177.50 292.60" fill="#ffe4c4" stroke="#0f172a" stroke-width="1.2" /><path d="M 201.00 276.60 Q 203.10 273.55 201.85 272.00 L 203.90 272.50 Q 205.95 273.15 207.95 274.55 L 208.30 275.00 Q 208.70 275.90 207.85 276.90 Q 207.15 277.75 205.75 278.45 Q 203.80 279.45 202.85 279.20 L 201.85 278.80 L 199.45 278.35 L 201.00 276.60" fill="#ffe4c4" stroke="#0f172a" stroke-width="1.2" /><path d="M 191.70 287.60 Q 192.50 289.05 193.65 290.35 L 193.75 290.75 Q 193.85 291.60 193.00 292.50 Q 192.10 293.40 190.65 293.65 L 188.55 293.55 Q 187.55 293.20 187.00 292.50 L 185.95 290.80 Q 185.30 289.80 184.70 288.20 L 185.85 287.90 L 185.95 287.85 L 186.70 288.05 L 189.45 287.70 Q 190.60 287.15 191.05 286.25 L 191.70 287.60" fill="#ffe4c4" stroke="#0f172a" stroke-width="1.2" /><path d="M 190.75 294.20 Q 192.20 293.90 193.20 292.90 Q 194.10 291.95 194.20 291.00 L 195.35 292.10 L 198.15 294.20 L 198.35 294.55 Q 198.75 295.35 198.15 296.40 Q 197.50 297.55 196.20 298.25 Q 195.25 298.75 194.15 298.75 Q 193.10 298.75 192.40 298.25 L 190.95 297.00 L 187.95 293.90 L 190.75 294.20" fill="#ffe4c4" stroke="#0f172a" stroke-width="1.2" /><path d="M 201.25 296.45 Q 202.05 297.65 201.40 299.00 Q 200.70 300.40 198.50 300.75 Q 196.75 301.05 196.20 300.75 L 193.75 299.20 Q 195.25 299.40 196.45 298.70 Q 197.80 298.00 198.45 296.80 Q 199.10 295.65 198.90 294.70 L 200.35 295.50 L 201.25 296.45" fill="#ffe4c4" stroke="#0f172a" stroke-width="1.2" /><path d="M 203.95 251.75 Q 203.95 249.75 204.85 248.10 Q 205.75 246.50 207.25 245.80 L 207.40 257.35 L 207.40 257.75 Q 205.90 257.10 204.95 255.50 Q 203.95 253.80 203.95 251.75" fill="#ffe4c4" stroke="#0f172a" stroke-width="1.2" /><path d="M 210.40 276.60 L 210.65 277.65 Q 210.70 278.95 209.55 280.15 Q 208.40 281.35 206.90 281.40 L 205.65 281.20 Q 204.50 280.15 203.65 279.65 L 205.85 278.85 Q 207.30 278.20 208.10 277.30 Q 209.05 276.30 208.90 275.25 L 210.40 276.60" fill="#ffe4c4" stroke="#0f172a" stroke-width="1.2" /><path d="M 218.70 293.30 L 217.65 297.15 Q 216.45 300.75 215.50 301.15 L 214.60 300.65 Q 214.25 300.25 214.25 299.40 Q 214.25 297.55 216.50 292.85 Q 218.70 288.10 218.70 293.30" fill="#ffe4c4" stroke="#0f172a" stroke-width="1.2" /><path d="M 226.20 275.40 L 226.20 284.20 Q 226.20 284.90 225.55 284.90 Q 224.85 284.90 224.85 284.20 L 224.85 275.45 L 226.20 275.40" fill="#ffe4c4" stroke="#0f172a" stroke-width="1.2" /><path d="M 223.20 284.20 Q 223.20 285.15 223.90 285.85 Q 224.55 286.50 225.55 286.50 Q 226.50 286.50 227.15 285.85 Q 227.80 285.20 227.85 284.25 L 227.85 281.30 Q 229.35 281.75 230.25 283.00 Q 231.20 284.25 231.20 285.80 Q 231.20 287.75 229.85 289.15 Q 228.45 290.50 226.50 290.50 Q 224.55 290.50 223.20 289.15 Q 221.80 287.75 221.80 285.80 Q 221.80 283.80 223.20 282.40 L 223.20 284.20" fill="#ffe4c4" stroke="#0f172a" stroke-width="1.2" /><path d="M 225.25 296.80 L 225.50 298.65 L 225.05 301.85 L 224.45 306.05 L 223.35 306.55 Q 222.15 305.40 222.15 304.05 Q 222.15 302.00 222.90 298.65 Q 223.65 295.15 224.35 294.75 Q 224.90 295.40 225.25 296.80" fill="#ffe4c4" stroke="#0f172a" stroke-width="1.2" /><path d="M 230.20 294.30 Q 231.60 296.75 232.50 300.10 Q 233.20 302.75 233.90 307.05 L 233.65 307.65 Q 233.45 308.00 232.65 308.00 Q 230.15 308.00 229.35 303.55 L 229.00 298.90 L 229.05 296.60 Q 229.30 294.85 230.20 294.30" fill="#ffe4c4" stroke="#0f172a" stroke-width="1.2" /><path d="M 232.90 293.35 Q 232.90 291.75 234.15 291.35 L 238.00 294.75 Q 240.75 297.40 240.75 298.10 L 240.65 299.25 L 240.50 299.45 L 239.50 299.65 Q 237.90 299.65 235.25 296.70 Q 232.90 294.05 232.90 293.35" fill="#ffe4c4" stroke="#0f172a" stroke-width="1.2" /><path d="M 185.05 303.25 Q 183.80 304.00 182.15 303.00 Q 180.85 302.30 180.30 301.40 L 179.50 299.95 Q 180.75 300.75 182.10 300.70 Q 183.60 300.65 184.75 299.85 Q 185.80 299.15 186.15 298.25 L 186.90 299.45 Q 186.90 302.05 185.05 303.25" fill="#ffe4c4" stroke="#0f172a" stroke-width="1.2" /><path d="M 317.15 301.95 Q 318.90 302.80 320.35 303.95 Q 321.25 304.55 322.00 305.30 Q 322.70 306.05 322.85 307.20 Q 322.95 308.35 322.45 309.50 Q 321.80 310.95 320.55 311.75 Q 319.40 312.50 318.50 312.30 L 318.15 312.15 L 316.00 310.00 L 315.45 308.50 Q 317.20 307.05 317.25 304.45 L 317.00 302.95 L 317.15 301.95" fill="#ffe4c4" stroke="#0f172a" stroke-width="1.2" /><path d="M 312.85 309.50 L 313.95 308.85 L 315.05 311.95 L 315.60 314.15 Q 315.70 315.15 315.20 316.20 Q 314.60 317.30 313.55 318.00 Q 312.25 318.95 310.75 318.90 Q 309.35 318.90 308.70 318.15 L 308.50 317.70 Q 308.45 316.15 307.90 314.00 L 307.30 312.35 L 309.75 312.25 Q 311.25 311.70 312.25 310.35 L 312.70 309.60 L 312.85 309.50" fill="#ffe4c4" stroke="#0f172a" stroke-width="1.2" /><path d="M 308.55 318.70 Q 309.40 319.45 310.85 319.45 Q 312.50 319.45 313.90 318.50 Q 315.40 317.40 315.90 316.00 Q 316.15 318.65 316.00 320.90 L 315.80 323.10 Q 315.65 324.00 314.80 324.85 L 312.75 326.10 L 309.75 326.20 Q 308.40 325.80 308.10 324.90 L 308.00 324.40 L 308.55 320.50 L 308.55 318.70" fill="#ffe4c4" stroke="#0f172a" stroke-width="1.2" /><path d="M 296.35 308.45 L 298.20 309.50 L 298.60 309.75 L 296.10 311.15 L 295.05 312.00 Q 294.20 312.60 291.65 312.00 Q 289.95 311.70 288.85 310.95 Q 287.65 310.10 287.85 309.00 L 288.10 308.45 Q 289.40 306.80 291.80 305.00 L 293.70 303.85 Q 293.30 304.90 294.15 306.25 Q 294.90 307.45 296.35 308.45" fill="#ffe4c4" stroke="#0f172a" stroke-width="1.2" /><path d="M 287.30 309.50 Q 287.45 311.85 291.65 312.50 L 294.25 312.75 Q 293.05 314.15 292.70 314.95 L 292.20 316.10 Q 291.65 317.05 289.25 317.80 L 286.35 318.25 Q 284.90 318.05 284.50 317.00 L 284.40 316.45 Q 284.90 313.60 286.05 311.50 L 287.30 309.50" fill="#ffe4c4" stroke="#0f172a" stroke-width="1.2" /><path d="M 284.10 320.00 L 284.20 317.75 Q 284.90 318.70 286.45 318.75 L 289.50 318.20 Q 291.30 317.55 291.90 317.10 Q 291.65 318.00 291.55 319.95 L 290.70 321.10 Q 289.50 322.25 287.60 322.20 Q 285.70 322.15 284.70 321.10 L 284.10 320.00" fill="#ffe4c4" stroke="#0f172a" stroke-width="1.2" /><path d="M 314.75 328.15 Q 314.50 328.85 312.85 330.00 Q 310.80 331.40 309.15 330.80 Q 307.55 330.25 307.25 328.70 L 307.25 327.20 L 307.75 325.40 Q 308.35 326.35 309.75 326.75 L 312.90 326.65 Q 314.40 326.25 315.50 324.90 L 314.75 328.15" fill="#ffe4c4" stroke="#0f172a" stroke-width="1.2" />
  </g>
</svg>