<svg xmlns="http://www.w3.org/2000/svg" viewBox="214.65 87.10 189 235" width="100%" height="100%">
  <g>
    <path d="M 341.25 167.50 Q 327.45 156.70 313.55 156.55 L 312.50 156.55 Q 303.45 156.30 294.80 160.75 Q 288.40 164.05 282.90 169.55 Q 278.70 169.35 268.00 169.60 L 258.15 169.95 L 256.45 164.45 Q 254.30 158.65 252.10 156.95 L 251.85 156.75 Q 246.30 152.45 243.40 154.45 Q 241.20 155.95 241.20 159.35 L 239.10 159.80 Q 237.85 158.15 238.20 153.80 Q 238.45 151.70 239.55 150.95 Q 240.70 150.20 242.80 150.65 Q 244.25 150.95 245.60 151.60 Q 253.20 156.35 254.75 156.25 Q 255.80 156.20 252.40 153.75 Q 249.60 151.70 247.45 150.45 Q 248.00 150.00 248.70 149.90 L 253.15 150.50 Q 255.00 152.40 257.30 154.00 Q 259.60 160.10 264.65 162.20 Q 269.20 164.05 275.25 162.45 Q 277.90 162.10 280.30 161.15 Q 283.20 160.00 285.05 158.25 Q 287.60 155.80 290.60 154.10 L 292.85 152.95 L 295.60 153.00 L 296.60 152.90 L 293.45 155.25 Q 291.35 156.90 289.05 159.20 Q 286.25 161.95 283.55 162.55 L 280.70 163.25 Q 280.25 163.70 280.85 164.10 Q 281.50 164.55 282.80 164.55 Q 286.35 164.40 290.15 160.70 Q 293.60 157.35 300.00 153.55 Q 305.50 150.30 307.40 149.85 Q 316.65 147.40 325.75 149.65 Q 349.90 155.65 360.55 189.90 Q 370.15 220.75 385.35 234.25 L 395.65 242.80 Q 400.35 247.25 402.45 253.45 Q 406.70 265.95 396.75 274.40 Q 391.10 279.15 378.45 283.65 Q 371.60 286.05 370.50 290.90 L 370.50 290.95 L 370.35 291.60 Q 359.05 275.35 364.75 262.05 Q 366.30 258.40 371.15 251.65 Q 375.40 245.50 375.95 242.40 Q 377.25 235.75 370.40 228.25 L 365.50 222.55 L 365.45 222.50 Q 363.15 219.25 362.70 216.00 Q 360.90 202.70 357.25 192.35 Q 351.35 175.30 341.25 167.45 L 341.25 167.50" fill="rgb(255,255,255)" stroke="#0f172a" stroke-width="1.2" /><path d="M 324.75 191.00 Q 322.70 191.65 320.30 193.95 L 318.20 196.10 Q 313.25 191.75 310.20 189.95 Q 308.40 188.90 307.60 187.45 L 306.15 184.85 L 310.65 179.90 Q 310.50 178.90 308.65 180.05 L 305.60 182.35 Q 303.95 183.65 304.30 184.70 Q 304.45 185.25 304.95 185.55 Q 306.20 188.55 306.45 189.95 Q 306.90 193.05 305.05 194.90 L 301.15 198.70 L 299.45 200.40 L 299.40 200.50 L 288.80 205.70 Q 279.55 209.80 273.65 210.20 Q 272.40 209.10 270.70 208.60 L 266.60 208.40 Q 264.55 208.70 263.10 209.80 Q 259.50 209.30 257.00 208.15 Q 254.80 207.00 253.70 206.60 L 252.05 201.70 Q 249.80 198.00 248.35 197.85 Q 247.10 197.75 245.90 194.50 L 244.90 191.25 L 244.40 188.45 L 243.15 187.85 L 241.00 191.70 L 239.45 193.05 Q 237.50 194.30 235.45 193.85 Q 230.90 192.35 228.15 191.75 Q 223.10 190.55 222.05 192.65 Q 224.55 192.15 230.25 194.80 Q 236.10 197.50 237.90 197.35 Q 240.35 198.65 241.15 201.55 L 242.05 205.85 Q 240.00 207.05 239.20 209.20 Q 237.35 213.95 237.40 217.40 L 233.45 214.00 L 231.10 213.75 Q 228.30 213.10 225.45 210.80 Q 221.95 207.95 218.40 204.40 Q 214.75 200.75 214.65 199.85 Q 214.55 199.15 215.85 194.00 L 218.40 183.90 Q 219.35 179.95 225.15 175.10 L 230.75 171.00 L 231.70 169.00 Q 233.15 166.60 235.65 164.55 Q 238.05 162.55 243.15 161.05 L 247.65 159.85 L 248.00 159.10 Q 248.70 158.15 250.30 157.30 L 251.10 158.10 Q 253.60 161.05 256.75 170.70 L 255.70 170.80 Q 253.95 171.05 252.05 171.80 Q 250.15 172.60 249.15 173.55 Q 248.75 173.75 246.70 178.30 Q 244.65 182.85 244.95 182.70 Q 244.20 183.50 244.70 184.65 Q 245.20 185.80 246.55 186.75 Q 251.30 190.05 255.55 194.35 L 264.20 203.70 Q 265.40 204.90 266.70 205.45 L 268.80 205.55 L 277.40 199.40 Q 285.80 193.60 287.10 193.20 Q 288.60 192.35 289.65 190.55 Q 290.70 188.70 290.65 186.85 Q 290.55 180.25 291.65 174.30 Q 291.95 172.65 291.25 171.45 Q 290.55 170.25 289.05 170.05 L 285.25 169.65 Q 289.90 165.45 295.35 162.85 Q 299.15 161.05 303.05 160.20 L 304.25 159.95 L 311.20 159.35 Q 313.75 161.05 316.25 163.95 L 318.25 166.60 L 321.45 167.50 Q 324.95 168.55 326.50 169.45 Q 330.20 171.60 337.55 181.05 Q 344.95 190.50 344.75 192.95 Q 344.55 195.30 342.10 199.45 Q 339.75 203.40 336.50 207.10 Q 334.80 209.00 330.75 210.95 Q 326.25 212.90 324.50 213.75 Q 323.75 209.50 321.05 206.55 Q 318.00 203.20 315.40 202.95 Q 317.15 200.00 320.00 196.90 Q 323.20 193.35 325.30 192.45 Q 327.40 191.60 329.45 191.45 L 331.20 191.35 Q 331.50 191.05 329.20 190.75 L 324.75 191.00" fill="rgb(255,255,255)" stroke="#0f172a" stroke-width="1.2" /><path d="M 339.50 179.75 Q 332.15 168.95 328.25 166.65 Q 325.55 165.05 322.55 164.80 L 319.35 164.70 L 317.45 162.30 L 314.35 158.90 L 316.80 158.75 Q 328.45 159.95 340.00 169.05 Q 349.65 176.60 355.35 193.00 Q 358.90 203.20 360.70 216.25 Q 361.15 219.95 363.85 223.70 L 368.90 229.60 Q 374.95 236.25 374.00 242.05 Q 373.65 243.60 372.40 245.95 Q 371.30 241.25 366.55 236.70 Q 361.55 231.80 354.50 229.05 L 354.45 229.05 Q 347.15 226.20 341.75 227.05 Q 335.25 228.05 333.95 233.90 Q 331.95 242.50 325.00 246.50 Q 321.60 248.40 318.65 248.75 Q 318.60 244.50 317.45 241.50 Q 314.60 234.15 311.90 229.30 L 309.75 225.70 Q 310.90 226.45 312.30 226.65 Q 316.25 227.10 318.35 225.25 Q 319.50 224.15 319.90 222.45 L 320.10 220.85 L 320.05 220.65 Q 324.30 218.70 325.00 215.20 Q 326.60 214.55 331.55 212.85 Q 336.20 211.00 338.45 208.40 Q 341.95 204.45 344.30 199.75 Q 346.50 195.35 346.55 192.80 Q 346.60 190.20 339.50 179.75" fill="rgb(255,255,255)" stroke="#0f172a" stroke-width="1.2" /><path d="M 324.25 296.60 L 322.05 296.80 L 324.70 300.05 L 329.90 305.60 L 334.95 311.10 Q 337.90 314.70 337.20 318.20 Q 336.65 321.10 334.65 322.00 Q 332.10 323.10 327.40 321.55 Q 322.05 319.75 321.15 315.70 Q 320.45 312.75 317.80 305.80 L 315.15 299.00 L 315.15 298.95 L 315.10 298.90 Q 309.70 291.40 306.45 285.20 Q 304.50 281.45 304.10 276.70 L 304.10 272.60 L 304.60 270.55 L 304.40 270.35 Q 310.00 271.70 314.95 267.60 L 315.05 268.85 L 314.80 271.50 Q 314.65 272.65 315.05 272.95 L 316.00 273.70 Q 316.40 273.90 316.40 272.80 Q 316.40 271.70 317.70 264.70 Q 322.15 273.25 324.10 278.40 Q 325.55 282.20 325.05 289.70 L 324.25 296.60" fill="rgb(255,255,255)" stroke="#0f172a" stroke-width="1.2" /><path d="M 258.95 91.40 Q 258.45 93.25 259.40 94.40 Q 260.80 96.10 262.95 96.25 Q 265.10 96.45 266.95 95.00 Q 272.45 90.90 274.15 90.80 Q 275.65 90.75 277.95 92.10 Q 279.80 93.15 280.85 92.45 Q 281.55 92.05 283.05 90.45 L 285.40 88.25 Q 286.85 87.05 287.65 87.10 Q 289.10 87.15 291.15 89.30 L 292.25 90.60 L 293.55 91.75 Q 296.25 93.30 297.65 93.75 Q 300.45 94.75 302.15 98.35 L 304.35 102.50 Q 306.05 103.70 307.50 107.10 Q 308.55 109.55 309.15 112.25 Q 310.15 116.95 307.50 123.70 Q 306.20 127.05 304.65 129.50 Q 304.65 125.10 302.30 121.65 L 299.10 117.70 Q 300.90 116.90 302.35 115.75 Q 304.20 114.20 304.30 112.75 Q 304.45 110.55 303.45 108.90 Q 302.10 106.60 298.85 106.35 Q 297.80 106.25 294.95 106.90 L 291.75 107.10 L 288.80 102.60 Q 286.35 98.65 284.35 99.10 L 280.65 100.45 L 277.95 101.40 L 276.15 101.25 L 274.95 100.25 L 273.00 98.95 L 270.15 99.10 Q 269.10 99.45 266.25 101.75 L 263.25 104.20 Q 261.40 105.25 259.75 105.20 Q 257.85 105.15 256.85 103.70 Q 255.45 101.60 255.35 98.65 Q 255.30 95.85 256.50 93.90 Q 257.45 92.30 258.95 91.40" fill="rgb(255,255,255)" stroke="#0f172a" stroke-width="1.2" /><path d="M 298.40 108.15 Q 301.15 108.40 301.65 111.65 Q 302.20 115.15 297.65 116.55 Q 297.40 116.55 297.10 116.90 Q 296.75 117.30 297.30 117.80 Q 299.90 120.15 301.25 122.05 Q 304.30 126.55 303.30 131.15 Q 302.55 127.25 300.75 123.90 Q 298.45 120.25 297.55 119.60 L 296.55 119.65 Q 296.20 120.05 296.65 120.45 L 297.70 121.70 L 299.70 124.55 Q 301.50 127.20 302.80 132.15 L 302.30 133.00 Q 301.35 129.15 299.60 126.50 Q 298.10 124.30 296.85 123.50 Q 296.30 123.20 296.10 123.75 Q 295.85 124.35 296.50 124.95 Q 297.80 126.15 298.55 127.30 Q 299.80 129.25 301.70 133.95 L 301.50 134.30 L 300.65 134.35 Q 299.85 134.60 300.20 135.50 Q 303.30 139.05 300.45 142.75 Q 297.60 146.45 293.25 145.00 Q 292.90 148.70 288.65 152.50 Q 284.75 156.05 279.20 158.35 Q 273.50 160.70 268.85 160.55 Q 263.70 160.40 261.80 157.10 L 265.65 157.30 Q 268.75 157.15 268.70 156.70 Q 264.50 156.65 260.05 154.45 Q 251.15 150.00 249.90 137.35 Q 248.60 124.30 252.85 115.65 Q 254.55 112.25 259.85 106.55 Q 261.85 106.65 264.10 105.40 L 267.20 102.85 Q 270.00 100.50 270.85 100.25 Q 271.90 99.90 273.45 100.90 L 274.95 102.10 Q 276.30 103.05 277.95 103.00 L 281.20 102.35 Q 283.25 101.75 285.40 102.90 Q 287.65 104.10 289.15 106.80 Q 289.85 108.05 291.30 108.30 L 293.90 108.20 Q 295.25 108.00 298.40 108.15" fill="rgb(255,255,255)" stroke="#0f172a" stroke-width="1.2" /><path d="M 284.25 110.30 Q 283.85 110.30 283.60 110.65 L 282.70 111.45 Q 281.85 112.30 281.95 112.60 L 282.80 113.20 L 284.50 114.35 L 286.35 116.00 L 287.65 116.95 Q 288.25 115.80 286.65 113.10 L 284.95 110.60 Q 284.65 110.30 284.25 110.30" fill="rgb(255,255,255)" stroke="#0f172a" stroke-width="1.2" /><path d="M 296.10 127.35 Q 295.75 127.10 295.40 127.50 Q 295.00 127.95 295.55 128.50 L 297.20 130.20 L 298.40 132.25 Q 299.00 133.40 299.25 132.90 Q 299.45 132.55 299.05 131.45 L 298.15 129.55 Q 297.30 128.10 296.10 127.35" fill="rgb(255,255,255)" stroke="#0f172a" stroke-width="1.2" /><path d="M 295.30 132.80 Q 295.80 133.55 295.75 134.00 Q 295.65 134.55 296.25 134.65 Q 296.85 134.75 296.95 134.00 Q 297.00 133.30 296.50 132.35 L 295.55 131.15 L 294.70 131.25 Q 294.35 131.70 294.75 132.05 L 295.30 132.80" fill="rgb(255,255,255)" stroke="#0f172a" stroke-width="1.2" /><path d="M 265.10 109.95 Q 265.50 109.60 265.50 109.10 L 265.55 108.10 Q 265.60 107.60 265.25 107.35 L 264.45 107.30 L 260.20 108.85 Q 259.20 109.25 260.30 109.50 L 264.25 110.15 L 265.10 109.95" fill="rgb(255,255,255)" stroke="#0f172a" stroke-width="1.2" /><path d="M 267.75 121.25 L 262.85 125.55 Q 262.50 125.80 262.40 126.25 L 262.45 127.10 L 263.95 130.80 Q 264.40 131.60 265.35 131.70 L 266.25 131.65 L 266.85 131.30 L 266.80 130.65 L 265.55 127.85 Q 265.35 127.50 265.45 127.00 L 265.75 126.20 L 268.65 122.75 Q 270.35 120.65 271.65 118.20 Q 272.10 117.30 271.65 117.10 Q 271.20 116.95 270.55 117.75 L 267.75 121.25" fill="rgb(255,255,255)" stroke="#0f172a" stroke-width="1.2" /><path d="M 281.75 119.00 Q 281.00 118.80 280.25 119.65 Q 279.50 120.50 279.15 121.85 Q 278.80 123.25 279.10 124.35 Q 279.40 125.40 280.15 125.60 Q 280.85 125.80 281.60 124.95 Q 282.35 124.10 282.70 122.75 Q 283.05 121.40 282.75 120.30 Q 282.45 119.20 281.75 119.00" fill="rgb(255,255,255)" stroke="#0f172a" stroke-width="1.2" /><path d="M 256.00 104.30 Q 256.85 105.55 258.00 106.10 Q 255.75 108.60 254.10 110.95 Q 253.30 108.60 253.35 107.30 Q 253.45 105.20 254.30 104.20 Q 255.15 103.15 256.00 104.30" fill="rgb(255,255,255)" stroke="#0f172a" stroke-width="1.2" /><path d="M 258.40 120.10 Q 258.70 121.15 259.45 121.35 Q 260.15 121.55 260.90 120.70 Q 261.65 119.85 262.00 118.50 Q 262.35 117.15 262.05 116.05 Q 261.75 114.95 261.05 114.75 Q 260.30 114.55 259.55 115.40 Q 258.80 116.25 258.45 117.60 Q 258.10 119.00 258.40 120.10" fill="rgb(255,255,255)" stroke="#0f172a" stroke-width="1.2" /><path d="M 254.95 132.00 L 252.70 133.80 L 252.30 134.50 Q 252.15 135.00 252.30 135.35 L 253.70 139.05 L 254.00 139.40 L 254.25 139.00 L 254.30 138.50 L 254.70 137.95 L 255.40 138.00 L 258.10 140.45 Q 261.40 143.05 264.45 143.70 Q 267.45 144.35 273.00 142.55 L 277.90 140.60 L 278.70 140.75 L 279.25 141.35 L 278.80 143.60 Q 278.95 144.00 279.20 144.00 L 279.55 143.60 L 281.40 139.35 Q 281.75 138.45 281.05 137.75 L 276.90 133.25 Q 276.60 133.00 276.45 133.05 L 276.35 133.55 L 276.60 135.25 L 276.25 135.95 L 275.40 136.35 L 264.85 137.10 Q 262.75 136.90 259.15 135.60 L 256.00 134.30 Q 255.15 133.95 255.30 133.00 L 255.50 132.30 L 255.45 131.85 Q 255.30 131.75 254.95 132.00" fill="rgb(255,255,255)" stroke="#0f172a" stroke-width="1.2" /><path d="M 255.75 135.25 L 258.95 136.50 Q 262.65 137.85 265.10 138.15 L 275.65 137.45 L 276.75 137.45 Q 277.50 137.55 278.00 138.15 Q 278.55 138.80 278.05 139.30 L 277.10 139.85 Q 271.15 141.60 268.95 141.85 L 264.80 141.60 Q 262.20 141.15 260.90 140.45 L 255.30 137.10 Q 254.65 136.85 254.60 135.85 Q 254.55 134.90 255.75 135.25" fill="rgb(255,255,255)" stroke="#0f172a" stroke-width="1.2" /><path d="M 260.55 145.30 L 262.00 146.50 Q 263.20 147.35 265.00 147.10 L 265.80 146.80 L 266.10 146.10 L 265.80 145.45 L 265.00 145.10 L 260.80 144.75 L 260.30 144.85 L 260.55 145.30" fill="rgb(255,255,255)" stroke="#0f172a" stroke-width="1.2" /><path d="M 248.20 155.90 Q 245.50 157.40 245.05 158.90 L 242.25 159.15 Q 242.65 157.30 244.30 156.15 Q 245.90 155.05 248.20 155.90" fill="rgb(255,255,255)" stroke="#0f172a" stroke-width="1.2" /><path d="M 255.80 178.15 Q 254.80 183.50 255.05 189.55 L 258.25 192.25 Q 257.85 183.05 260.40 175.10 L 257.05 175.20 L 252.05 176.95 L 252.45 179.35 L 255.75 178.15 L 255.80 178.15" fill="rgb(255,255,255)" stroke="#0f172a" stroke-width="1.2" /><path d="M 254.85 173.45 L 270.15 172.85 L 277.65 173.30 L 286.25 173.85 Q 286.85 173.95 287.25 174.50 Q 287.65 175.10 287.55 175.75 Q 286.80 181.70 287.20 188.15 L 287.00 189.05 L 286.30 189.75 Q 284.95 190.15 276.05 196.05 Q 267.85 201.50 266.70 202.45 L 266.05 202.40 L 265.30 201.90 L 256.90 192.60 Q 252.85 188.35 248.05 185.10 L 247.65 184.65 Q 247.55 184.35 247.75 184.15 Q 247.40 184.30 249.45 179.60 Q 251.50 174.90 251.90 174.70 L 253.25 173.90 L 254.85 173.45" fill="rgb(255,255,255)" stroke="#0f172a" stroke-width="1.2" /><path d="M 262.65 178.80 L 266.25 177.85 L 266.30 177.85 Q 263.80 187.25 263.80 196.25 L 266.50 198.95 L 266.95 198.75 Q 267.20 193.55 268.40 186.70 Q 269.80 178.95 271.45 175.00 L 267.85 174.80 L 262.45 176.30 L 262.65 178.80" fill="rgb(255,255,255)" stroke="#0f172a" stroke-width="1.2" /><path d="M 278.35 179.75 Q 274.80 187.20 274.00 195.10 L 277.50 193.20 Q 279.20 184.45 284.15 176.30 L 281.00 175.85 L 275.35 177.70 L 274.55 181.00 L 278.30 179.70 L 278.35 179.75" fill="rgb(255,255,255)" stroke="#0f172a" stroke-width="1.2" /><path d="M 310.45 191.60 L 316.90 197.10 Q 315.35 199.70 313.45 203.40 Q 309.80 204.90 307.75 205.85 Q 303.90 207.60 303.35 208.95 Q 302.95 209.80 302.10 213.05 L 301.00 211.25 Q 300.20 209.85 300.15 207.65 Q 300.10 203.25 303.75 199.65 L 308.00 195.00 L 310.45 191.60" fill="rgb(255,255,255)" stroke="#0f172a" stroke-width="1.2" /><path d="M 319.85 207.70 Q 321.80 209.80 322.40 212.15 L 322.60 214.50 L 322.10 216.45 Q 321.15 218.40 319.00 219.30 Q 316.80 220.25 315.85 219.65 L 315.30 219.15 L 315.15 218.85 Q 315.00 218.25 314.35 218.15 Q 313.65 218.15 313.55 218.80 Q 313.15 220.80 314.20 221.75 Q 315.45 222.80 318.30 222.10 Q 318.00 223.30 317.20 224.05 Q 315.70 225.40 312.50 225.00 Q 309.35 224.55 308.55 220.95 L 308.35 217.25 L 308.15 216.70 Q 307.90 216.45 307.60 216.45 Q 306.85 216.45 306.75 217.15 L 306.65 219.20 Q 305.80 218.15 305.55 217.05 L 305.50 215.25 Q 305.40 214.55 304.75 214.45 Q 304.00 214.35 303.85 215.05 L 303.85 215.20 Q 303.20 214.15 304.55 211.00 Q 304.95 210.05 308.45 208.00 Q 311.40 206.20 314.90 204.55 Q 316.95 204.55 319.85 207.70" fill="rgb(255,255,255)" stroke="#0f172a" stroke-width="1.2" /><path d="M 298.20 210.25 L 293.05 213.70 Q 287.30 218.05 284.35 222.25 Q 281.65 226.10 280.40 231.35 Q 279.80 234.00 279.70 235.85 L 278.40 236.05 L 278.00 236.05 Q 276.40 235.90 274.20 234.85 Q 272.80 234.20 270.35 231.95 L 264.20 225.75 Q 257.20 218.20 254.85 214.25 L 254.70 211.25 L 255.65 213.05 Q 257.45 215.10 261.55 216.35 Q 262.80 218.35 265.50 219.10 L 269.70 219.30 Q 271.80 218.90 273.30 217.70 Q 279.90 217.35 289.35 212.45 L 297.45 207.60 L 298.20 210.25" fill="rgb(255,255,255)" stroke="#0f172a" stroke-width="1.2" /><path d="M 297.00 205.60 Q 293.90 207.80 289.60 210.15 Q 280.95 214.85 275.00 215.50 Q 275.60 213.95 275.10 212.45 Q 280.20 212.00 288.55 208.05 L 298.25 203.00 L 297.00 205.60" fill="rgb(255,255,255)" stroke="#0f172a" stroke-width="1.2" /><path d="M 299.20 212.35 L 308.45 228.15 Q 312.55 236.25 313.85 240.80 Q 315.65 247.15 315.35 252.25 Q 315.20 254.85 314.70 256.20 L 313.10 254.60 L 312.00 257.25 L 313.70 259.95 L 314.60 264.65 Q 312.30 267.60 307.75 267.65 Q 304.55 267.70 300.60 266.30 Q 294.85 260.15 292.30 256.25 L 289.90 252.65 Q 287.40 249.00 284.60 243.25 L 281.70 237.25 Q 281.95 228.55 289.45 220.40 Q 293.80 215.65 299.20 212.35" fill="rgb(255,255,255)" stroke="#0f172a" stroke-width="1.2" /><path d="M 272.25 213.25 Q 272.50 213.95 272.10 214.60 Q 271.45 215.75 269.75 216.20 Q 268.00 216.70 266.30 216.20 Q 264.40 215.65 263.95 214.45 Q 263.65 213.80 264.05 213.10 Q 264.70 212.00 266.45 211.50 Q 268.20 211.00 269.85 211.50 Q 271.65 211.95 272.25 213.25" fill="rgb(255,255,255)" stroke="#0f172a" stroke-width="1.2" /><path d="M 254.20 208.35 L 256.20 209.80 Q 257.85 210.90 261.50 211.55 L 261.45 211.60 Q 260.80 212.80 260.85 214.10 Q 257.00 212.90 255.40 211.00 L 254.55 209.35 L 254.20 208.35" fill="rgb(255,255,255)" stroke="#0f172a" stroke-width="1.2" /><path d="M 250.75 209.45 L 251.00 211.15 Q 251.10 213.25 250.50 214.95 Q 249.95 216.55 248.10 219.05 L 244.85 223.45 L 244.80 223.55 Q 242.80 223.55 240.85 221.55 Q 237.60 218.20 240.90 209.85 Q 241.80 207.60 245.85 208.25 Q 247.95 208.60 250.75 209.45" fill="rgb(255,255,255)" stroke="#0f172a" stroke-width="1.2" /><path d="M 253.95 215.95 Q 256.55 222.25 264.55 229.55 L 267.25 231.95 Q 270.90 235.05 274.20 237.15 Q 266.90 244.65 260.70 257.15 Q 257.05 264.40 254.70 271.40 Q 249.90 272.85 245.65 270.95 Q 242.65 269.65 240.30 266.90 L 238.30 260.80 Q 237.25 257.30 237.30 254.10 Q 237.40 245.90 244.75 231.95 L 245.30 230.85 Q 247.55 226.70 250.90 221.20 L 253.95 215.95" fill="rgb(255,255,255)" stroke="#0f172a" stroke-width="1.2" /><path d="M 250.90 293.25 Q 248.90 300.45 249.60 304.00 Q 247.70 306.30 235.25 308.45 Q 222.35 310.70 221.10 307.75 Q 219.95 305.00 230.00 301.45 Q 235.00 299.65 240.25 298.40 Q 239.70 278.35 240.40 270.70 Q 243.80 274.30 255.25 274.90 Q 256.25 279.85 254.75 282.90 Q 252.60 287.20 250.90 293.25" fill="rgb(255,255,255)" stroke="#0f172a" stroke-width="1.2" />
  </g>
</svg>